<svg xmlns="http://www.w3.org/2000/svg" version="1.1" xmlns:xlink="http://www.w3.org/1999/xlink" width="512" height="512" x="0" y="0" viewBox="0 0 512.001 512.001" style="enable-background:new 0 0 512 512" xml:space="preserve" class=""><g><path d="m477.202 461.601-127.2-127.2c-5.7-6-15.3-6-21-.3-17.701 17.699-46.201 17.699-63.9.3l-87.501-88.176c-17.401-17.701-17.401-46.199.3-63.9 5.7-5.7 5.7-15.3-.3-21l-127.2-127.2c-5.7-6-15.3-6-21 0-18.9 18.6-29.399 52.8-29.399 95.7-.3 72.9 32.3 183.876 116.6 268.176s191.7 114 264.3 114h.601c42.9 0 77.1-10.499 95.7-29.399 5.999-5.7 5.999-15.301-.001-21.001z" style="" fill="#0039a6" data-original="#0d70b2" class="" opacity="1"></path><path d="M477.202 461.601c6 5.7 6 15.3 0 21-18.6 18.9-52.8 29.399-95.7 29.399h-.601c-72.599 0-180-29.7-264.3-114L222.8 292.099l42.301 42.301c17.699 17.399 46.199 17.399 63.9-.3 5.7-5.7 15.3-5.7 21 .3l127.201 127.201z" style="" fill="#0039a6" data-original="#0059aa" class="" opacity="1"></path><path d="M198.901 97.725 114 12.824c-16.8-17.098-46.8-17.098-63.9 0l-20.7 21 148.5 148.5 21-20.7v-.3c17.7-17.399 17.7-46.198.001-63.599z" style="" fill="#1ba6be" data-original="#17ace8" class="" opacity="1"></path><path d="M498.501 398.001 413.602 313.1c-16.8-17.1-46.8-17.1-63.9 0l-20.7 21 148.5 148.5 20.999-20.7v-.3c17.701-17.399 17.701-46.2 0-63.599z" style="" fill="#1ba6be" data-original="#1689fc" class="" opacity="1"></path><path d="M512.001 225.001c0 19.799-30 19.799-30 0 0-53.701-21.899-102.601-56.999-138.001-35.402-35.099-84.3-56.999-138.001-56.999-19.799 0-19.799-30 0-30 62.1 0 118.5 25.199 159 65.999 40.801 40.501 66 96.901 66 159.001z" style="" fill="#f83600" data-original="#1de8f1" class="" opacity="1"></path><path d="M452.001 225.001c0 19.799-30 19.799-30 0 0-37.202-15.3-71.1-39.6-95.402-24.3-24.3-58.2-39.598-95.4-39.598-19.799 0-19.799-30 0-30 45.601 0 86.7 18.3 116.7 48.3s48.3 71.099 48.3 116.7z" style="" fill="#f83600" data-original="#1de8f1" class="" opacity="1"></path><path d="M392.001 225.001c0 19.799-30 19.799-30 0 0-20.7-8.399-39.3-21.899-53.101-13.801-13.5-32.401-21.899-53.101-21.899-19.799 0-19.799-30 0-30 29.101 0 55.201 11.699 74.101 30.899 19.199 18.9 30.899 45 30.899 74.101zM332.001 225.001c0 19.799-30 19.799-30 0 0-4.2-1.5-8.101-4.499-10.501-2.401-2.999-6.301-4.499-10.501-4.499-19.799 0-19.799-30 0-30 12.301 0 23.701 5.099 31.8 13.2 8.101 8.099 13.2 19.499 13.2 31.8z" style="" fill="#f83600" data-original="#1de8f1" class="" opacity="1"></path><path d="M302.001 225.001c0-4.2-1.5-8.101-4.499-10.501l21.299-21.299c8.101 8.099 13.2 19.499 13.2 31.8 0 19.799-30 19.799-30 0zM362.001 225.001c0-20.7-8.399-39.3-21.899-53.101l21-21c19.199 18.9 30.899 45 30.899 74.101 0 19.799-30 19.799-30 0zM422.001 225.001c0-37.202-15.3-71.1-39.6-95.402l21.301-21.299c30 30 48.3 71.1 48.3 116.7-.001 19.8-30.001 19.8-30.001.001zM512.001 225.001c0 19.799-30 19.799-30 0 0-53.701-21.899-102.601-56.999-138.001l20.999-21c40.801 40.501 66 96.901 66 159.001z" style="" fill="#f83600" data-original="#1bd9de" class="" opacity="1"></path></g></svg>