<svg xmlns="http://www.w3.org/2000/svg" version="1.1" xmlns:xlink="http://www.w3.org/1999/xlink" width="512" height="512" x="0" y="0" viewBox="0 0 128 128" style="enable-background:new 0 0 512 512" xml:space="preserve"><g><path d="M122.302 54.782c-1.848-1.794-3.76-3.648-4.197-5.282-.468-1.752.276-4.395.996-6.95 1.036-3.68 2.108-7.487.33-10.559-1.804-3.119-5.672-4.095-9.412-5.039-2.545-.641-5.177-1.306-6.42-2.55-1.245-1.243-1.909-3.875-2.55-6.42-.945-3.74-1.921-7.609-5.04-9.414-3.072-1.775-6.878-.705-10.559.331-2.555.72-5.198 1.47-6.95.996-1.633-.437-3.488-2.348-5.282-4.197C70.5 2.896 67.689 0 64 0s-6.5 2.896-9.218 5.698c-1.794 1.849-3.648 3.76-5.281 4.197-1.754.471-4.396-.276-6.952-.996-3.68-1.037-7.486-2.108-10.558-.332-3.118 1.806-4.095 5.674-5.039 9.414-.642 2.545-1.306 5.177-2.55 6.421-1.243 1.243-3.875 1.908-6.42 2.55-3.74.943-7.608 1.92-9.413 5.038-1.777 3.073-.706 6.878.33 10.56.72 2.555 1.464 5.199.996 6.95-.437 1.634-2.349 3.488-4.197 5.282C2.896 57.5 0 60.311 0 64s2.896 6.5 5.698 9.218c1.848 1.794 3.76 3.648 4.197 5.282.468 1.752-.276 4.395-.996 6.95-1.036 3.68-2.108 7.487-.33 10.559 1.804 3.119 5.672 4.095 9.412 5.039 2.545.641 5.177 1.306 6.42 2.55 1.244 1.243 1.909 3.875 2.55 6.42.944 3.74 1.921 7.609 5.04 9.414 3.071 1.775 6.878.705 10.559-.331 2.555-.72 5.198-1.466 6.95-.996 1.633.437 3.488 2.348 5.282 4.197C57.5 125.104 60.311 128 64 128s6.5-2.896 9.218-5.698c1.794-1.849 3.648-3.76 5.281-4.197 1.753-.472 4.396.276 6.952.996 3.68 1.038 7.486 2.107 10.558.332 3.118-1.806 4.095-5.674 5.039-9.414.642-2.545 1.306-5.177 2.55-6.421 1.243-1.244 3.875-1.908 6.42-2.55 3.74-.944 7.608-1.92 9.413-5.038 1.777-3.073.706-6.878-.33-10.56-.72-2.555-1.464-5.2-.996-6.95.436-1.634 2.349-3.488 4.197-5.282C125.104 70.5 128 67.689 128 64s-2.896-6.5-5.698-9.218Zm-2.785 15.565c-2.24 2.173-4.554 4.419-5.276 7.12-.752 2.812.143 5.992 1.01 9.067.81 2.882 1.65 5.862.718 7.472-.959 1.657-3.994 2.423-6.93 3.164-3.07.774-6.246 1.576-8.27 3.6-2.023 2.023-2.825 5.199-3.6 8.27-.74 2.936-1.507 5.97-3.164 6.93-1.61.928-4.589.092-7.47-.719-3.076-.867-6.258-1.76-9.069-1.01-2.7.722-4.947 3.036-7.119 5.276C68.21 121.72 65.997 124 64 124s-4.208-2.28-6.347-4.483c-2.173-2.239-4.419-4.554-7.12-5.277a8.877 8.877 0 0 0-2.29-.281 26.003 26.003 0 0 0-6.777 1.291c-2.882.811-5.862 1.652-7.472.719-1.657-.958-2.423-3.994-3.164-6.93-.775-3.071-1.576-6.246-3.6-8.27-2.023-2.024-5.199-2.825-8.27-3.6-2.935-.74-5.97-1.507-6.93-3.164-.93-1.61-.092-4.589.72-7.47.865-3.076 1.76-6.256 1.01-9.068-.723-2.701-3.038-4.947-5.277-7.12C6.28 68.208 4 65.997 4 64s2.28-4.208 4.483-6.347c2.24-2.173 4.554-4.419 5.276-7.12.752-2.812-.143-5.992-1.01-9.067-.81-2.882-1.65-5.862-.718-7.472.959-1.657 3.994-2.423 6.93-3.164 3.07-.774 6.246-1.576 8.27-3.6 2.023-2.023 2.825-5.199 3.6-8.27.74-2.936 1.507-5.97 3.164-6.93 1.608-.93 4.588-.092 7.47.719 3.076.867 6.256 1.758 9.069 1.01 2.7-.722 4.947-3.036 7.119-5.276C59.792 6.28 62.003 4 64 4s4.208 2.28 6.347 4.483c2.173 2.239 4.419 4.554 7.12 5.277 2.813.748 5.992-.144 9.067-1.01 2.882-.812 5.862-1.652 7.472-.719 1.657.958 2.423 3.994 3.164 6.93.775 3.071 1.576 6.246 3.6 8.27 2.023 2.024 5.199 2.825 8.27 3.6 2.935.74 5.97 1.507 6.93 3.164.93 1.61.092 4.589-.72 7.47-.865 3.076-1.76 6.256-1.01 9.068.723 2.701 3.038 4.947 5.277 7.12C121.72 59.792 124 62.003 124 64s-2.28 4.208-4.483 6.347Z" fill="#ffffff" opacity="1" data-original="#000000"></path><path d="M22.38 69.98a1.98 1.98 0 1 0-.19.01 1.186 1.186 0 0 0 .19-.01ZM25.61 75.27a2.001 2.001 0 1 0-1.92 2.56 1.865 1.865 0 0 0 .56-.08 2 2 0 0 0 1.36-2.48ZM32.22 36.46a1.996 1.996 0 1 0 .34 2.81 2.004 2.004 0 0 0-.34-2.81ZM34.98 94.43a1.998 1.998 0 0 0 .21 2.82 1.952 1.952 0 0 0 1.3.49 2.002 2.002 0 1 0-1.51-3.31ZM25.74 81.47a2.012 2.012 0 0 0-.86 2.7v-.01a2.016 2.016 0 0 0 1.78 1.09 1.928 1.928 0 0 0 .92-.23 2 2 0 1 0-1.84-3.55ZM29.75 88.39a1.998 1.998 0 1 0 2.47 3.14 1.998 1.998 0 0 0-2.47-3.14ZM22 62c.06 0 .13.01.19.01a2.006 2.006 0 0 0 1.99-1.81v-.01A1.999 1.999 0 1 0 22 62ZM50.26 26.3a2.166 2.166 0 0 0 .66-.11 2.004 2.004 0 1 0-.66.11ZM73.43 25.12a1.93 1.93 0 0 0 .47.05 1.974 1.974 0 1 0-.47-.05ZM80.62 27.6a1.901 1.901 0 0 0 .83.19 2.001 2.001 0 1 0-1.82-2.84 1.99 1.99 0 0 0 .99 2.65ZM65.91 24.04h-.01a.384.384 0 0 0 .1.01 2.192 2.192 0 1 0-.09-.01ZM23.13 54.08a1.78 1.78 0 0 0 .56.08 2 2 0 1 0-.56-.08ZM87.2 31.41a2.022 2.022 0 0 0 1.16.37 1.994 1.994 0 1 0-1.16-.37ZM36.5 34.26a2.005 2.005 0 1 0-1.51-.69 1.997 1.997 0 0 0 1.51.69ZM43 29.62a2 2 0 1 0-1.73-1 1.997 1.997 0 0 0 1.73 1ZM44 98.65a2 2 0 1 0 .73 2.73 1.995 1.995 0 0 0-.73-2.73ZM58.02 24.42a1.384 1.384 0 0 0 .29-.02 2 2 0 0 0-.57-3.96 2 2 0 0 0 .28 3.98ZM27.58 42.97a2.004 2.004 0 0 0-1.84 3.56 2.047 2.047 0 0 0 .92.22 2.001 2.001 0 0 0 .92-3.78ZM100.42 85.03a2 2 0 0 0-2.17 3.36 2.054 2.054 0 0 0 1.08.32 2.016 2.016 0 0 0 1.69-.92 1.993 1.993 0 0 0-.6-2.76ZM99.34 43.29a1.992 1.992 0 0 0 1.68-3.08 2 2 0 1 0-1.68 3.08ZM101.15 49.13a1.999 1.999 0 1 0 1.11-2.6 1.996 1.996 0 0 0-1.11 2.6ZM103.28 56.43a2.01 2.01 0 0 0 1.97 1.62 2.469 2.469 0 0 0 .38-.03 2.001 2.001 0 1 0-2.35-1.59Z" fill="#ffffff" opacity="1" data-original="#000000"></path><circle cx="106" cy="64" r="2" fill="#ffffff" opacity="1" data-original="#000000"></circle><path d="M93.02 33.57a2 2 0 0 0 1.38 3.45 2.029 2.029 0 0 0 1.38-.55 2.002 2.002 0 0 0-2.76-2.9ZM103.75 77.75a2.004 2.004 0 0 0-1.49 3.72 2.158 2.158 0 0 0 .74.14 1.985 1.985 0 0 0 1.86-1.26v.01a2.012 2.012 0 0 0-1.11-2.61ZM105.63 69.98a2.002 2.002 0 1 0-.76 3.93 1.742 1.742 0 0 0 .38.04 2.004 2.004 0 0 0 .38-3.97ZM73.43 102.88a2.004 2.004 0 0 0 .47 3.95 1.83 1.83 0 0 0 .47-.06 2 2 0 1 0-.94-3.89ZM50.92 101.81a2 2 0 1 0-1.31 3.78 1.813 1.813 0 0 0 .65.11 2.001 2.001 0 0 0 .66-3.89ZM65.9 103.96v-.01a2.001 2.001 0 0 0 .09 4h.1a1.997 1.997 0 1 0-.19-3.99ZM92.95 91.6a2.004 2.004 0 0 0 .07 2.83 1.967 1.967 0 0 0 1.38.55 1.937 1.937 0 0 0 1.44-.62 1.998 1.998 0 0 0-2.89-2.76ZM80.62 100.39v.01a1.994 1.994 0 0 0 .83 3.81 2.049 2.049 0 0 0 .83-.18 2 2 0 0 0-1.66-3.64ZM58.3 103.6a2 2 0 0 0-.56 3.96c.1.01.19.02.28.02a2 2 0 0 0 .28-3.98ZM87.2 96.59a2.004 2.004 0 0 0 1.16 3.63 1.92 1.92 0 0 0 1.16-.38 1.997 1.997 0 1 0-2.32-3.25ZM64 33a31 31 0 1 0 31 31 31.035 31.035 0 0 0-31-31Zm0 58a27 27 0 1 1 27-27 27.03 27.03 0 0 1-27 27Z" fill="#ffffff" opacity="1" data-original="#000000"></path><path d="m72.547 57.34-2.49-.003a6.742 6.742 0 0 0 .039-1.268c-.163-1.73-.542-5.766-3.793-7.434A5.491 5.491 0 0 0 63.757 48q-.146 0-.293.008a5.442 5.442 0 0 0-3.4 1.491 6.475 6.475 0 0 0-1.824 5.375c.006.137.013.273.013.406v.487c-.287.68-.976 1.98-1.493 2.934h-.25A1.986 1.986 0 0 0 55 58H42a2 2 0 0 0 0 4h11v12h-5a2 2 0 0 0 0 4h7a1.994 1.994 0 0 0 1.69-.939l.166-.002c.3-.006.594-.012.862-.014a6.062 6.062 0 0 0 1.434.675 3.998 3.998 0 0 0 1.19.183 98.994 98.994 0 0 1 .634.003h2.364l2.274.002h.578c.074 0 .146-.002.218-.005v.003h3.984a5.536 5.536 0 0 0 5.452-5.605l-.001-.127a5.69 5.69 0 0 0 .899-3.081q0-.237-.02-.47a5.728 5.728 0 0 0 .662-3.356 5.666 5.666 0 0 0 .614-2.57 5.287 5.287 0 0 0-5.453-5.358Zm.069 6.96c-.086.005-.14.074-.025.139a1.654 1.654 0 0 1 .829 1.448 1.535 1.535 0 0 1-1.454 1.604s-.21.067-.036.161a1.621 1.621 0 0 1 .813 1.44 1.533 1.533 0 0 1-1.449 1.607h-.14c-.056 0-.117.017-.127.089a.102.102 0 0 0 .044.094 1.67 1.67 0 0 1 .775 1.419 1.533 1.533 0 0 1-1.452 1.605H66.41c0 .001-.341.002-.796.002l-2.274-.002h-2.364c.005-.003-.63-.003-.63-.003-.505-.158-.886-.577-1.37-.776a4.041 4.041 0 0 0-1.085-.083c-.27 0-.577.006-.891.012V62.7l1.604-.007h.003a.933.933 0 0 0 .793-.48c.743-1.374 2.853-5.087 2.853-5.919V55.28c0-1.001-.236-2.133.53-2.846a1.49 1.49 0 0 1 .907-.432l.067-.002a1.573 1.573 0 0 1 .72.193c1.235.634 1.512 2.929 1.636 4.245a24.995 24.995 0 0 1-.802 4.24c-.175.65.68.655.68.655l6.556.006A1.325 1.325 0 0 1 74 62.697a1.552 1.552 0 0 1-1.384 1.602Z" fill="#ffffff" opacity="1" data-original="#000000"></path></g></svg>