<svg xmlns="http://www.w3.org/2000/svg" version="1.1" xmlns:xlink="http://www.w3.org/1999/xlink" width="512" height="512" x="0" y="0" viewBox="0 0 64 64" style="enable-background:new 0 0 512 512" xml:space="preserve"><g><path d="M11 42a11 11 0 1 0 11 11 11.012 11.012 0 0 0-11-11Zm0 20a9 9 0 1 1 9-9 9.01 9.01 0 0 1-9 9Z" fill="#ffffff" opacity="1" data-original="#000000"></path><path d="M12.745 49.447a.822.822 0 0 1 .255.53A1 1 0 0 0 13.95 51a1.032 1.032 0 0 0 1.048-.95 2.797 2.797 0 0 0-.8-1.978A3.678 3.678 0 0 0 12 47.062V47a1 1 0 0 0-2 0v.085a3.445 3.445 0 0 0 0 6.832v2.99a1.576 1.576 0 0 1-.745-.354.841.841 0 0 1-.255-.506 1 1 0 0 0-1.998-.096 2.797 2.797 0 0 0 .8 1.977A3.677 3.677 0 0 0 10 58.938V59a1 1 0 0 0 2 0v-.085a3.445 3.445 0 0 0 0-6.832v-2.989a1.573 1.573 0 0 1 .745.353ZM9 50.5A1.421 1.421 0 0 1 10 49.143v2.716a1.423 1.423 0 0 1-.999-1.359Zm3.998 5A1.421 1.421 0 0 1 12 56.856v-2.716a1.423 1.423 0 0 1 .999 1.359ZM63 57h-5V15a1 1 0 0 0-1-1h-8a1 1 0 0 0-1 1v42h-4V21a1 1 0 0 0-1-1h-8a1 1 0 0 0-1 1v36h-4V27a1 1 0 0 0-1-1h-8a1 1 0 0 0-1 1v16.21a1 1 0 0 0 2 0V28h6v29h-3.93a1 1 0 1 0 0 2H62v3H20.79a1 1 0 0 0 0 2H63a1 1 0 0 0 1-1v-5a1 1 0 0 0-1-1ZM50 16h6v41h-6Zm-14 6h6v35h-6ZM7 40.58a1 1 0 0 0 1-1V33h6v6.58a1 1 0 0 0 2 0V32a1 1 0 0 0-1-1H7a1 1 0 0 0-1 1v7.58a1 1 0 0 0 1 1ZM10.999 25l.048-.001C28.967 24.145 46.52 8.673 52 3.404V10a1 1 0 0 0 2 0V1l-.002-.012A1.024 1.024 0 0 0 53 0h-9a1 1 0 0 0 0 2h6.554C45.165 7.119 27.92 22.193 10.953 23.001A1 1 0 0 0 10.999 25Z" fill="#ffffff" opacity="1" data-original="#000000"></path></g></svg>