<svg xmlns="http://www.w3.org/2000/svg" xmlns:xlink="http://www.w3.org/1999/xlink" width="500" zoomAndPan="magnify" viewBox="0 0 375 113.999999" height="152" preserveAspectRatio="xMidYMid meet" version="1.0"><defs><g/><clipPath id="250e33bf6c"><path d="M 1.960938 10.34375 L 77.441406 10.34375 L 77.441406 103.398438 L 1.960938 103.398438 Z M 1.960938 10.34375 " clip-rule="nonzero"/></clipPath></defs><g fill="#039be5" fill-opacity="0.4"><g transform="translate(78.778326, 90.115972)"><g><path d="M 34.234375 -55.515625 C 44.171875 -55.515625 51.757812 -53.179688 57 -48.515625 C 62.25 -43.859375 64.875 -36.734375 64.875 -27.140625 L 64.875 -23.640625 L 24.15625 -23.640625 C 24.15625 -19.734375 25.03125 -16.785156 26.78125 -14.796875 C 28.53125 -12.816406 31.289062 -11.828125 35.0625 -11.828125 C 38.488281 -11.828125 41.003906 -12.546875 42.609375 -13.984375 C 44.222656 -15.421875 45.03125 -17.335938 45.03125 -19.734375 L 64.875 -19.734375 C 64.875 -13.160156 62.367188 -8.019531 57.359375 -4.3125 C 52.359375 -0.613281 45.0625 1.234375 35.46875 1.234375 C 25.394531 1.234375 17.582031 -1.113281 12.03125 -5.8125 C 6.476562 -10.507812 3.703125 -17.617188 3.703125 -27.140625 C 3.703125 -36.460938 6.410156 -43.519531 11.828125 -48.3125 C 17.242188 -53.113281 24.710938 -55.515625 34.234375 -55.515625 Z M 35.0625 -42.46875 C 28.613281 -42.46875 25.015625 -39.414062 24.265625 -33.3125 L 44.203125 -33.3125 C 44.203125 -36.125 43.394531 -38.351562 41.78125 -40 C 40.175781 -41.644531 37.9375 -42.46875 35.0625 -42.46875 Z M 35.0625 -42.46875 "/></g></g></g><g fill="#039be5" fill-opacity="0.4"><g transform="translate(141.483898, 90.115972)"><g><path d="M 43.59375 -55.515625 C 49.894531 -55.515625 54.625 -53.765625 57.78125 -50.265625 C 60.9375 -46.773438 62.515625 -41.738281 62.515625 -35.15625 L 62.515625 0 L 42.046875 0 L 42.046875 -32.6875 C 42.046875 -35.019531 41.445312 -36.890625 40.25 -38.296875 C 39.050781 -39.703125 37.351562 -40.40625 35.15625 -40.40625 C 32.625 -40.40625 30.566406 -39.582031 28.984375 -37.9375 C 27.410156 -36.289062 26.625 -34.269531 26.625 -31.875 L 26.625 0 L 6.171875 0 L 6.171875 -54.28125 L 22.921875 -54.28125 L 24.265625 -46.0625 C 26.390625 -48.9375 29.179688 -51.226562 32.640625 -52.9375 C 36.097656 -54.65625 39.75 -55.515625 43.59375 -55.515625 Z M 43.59375 -55.515625 "/></g></g></g><g fill="#039be5" fill-opacity="0.4"><g transform="translate(204.189469, 90.115972)"><g><path d="M 42.359375 -54.28125 L 42.359375 -40.40625 L 30.84375 -40.40625 L 30.84375 -19.734375 C 30.84375 -17.265625 31.253906 -15.460938 32.078125 -14.328125 C 32.898438 -13.203125 34.40625 -12.640625 36.59375 -12.640625 L 42.359375 -12.640625 L 42.359375 -0.609375 C 40.710938 -0.0664062 38.585938 0.375 35.984375 0.71875 C 33.378906 1.0625 31.117188 1.234375 29.203125 1.234375 C 23.171875 1.234375 18.523438 0.140625 15.265625 -2.046875 C 12.015625 -4.242188 10.390625 -7.984375 10.390625 -13.265625 L 10.390625 -40.40625 L 2.78125 -40.40625 L 2.78125 -54.28125 L 11.203125 -54.28125 L 15.625 -70.734375 L 30.84375 -70.734375 L 30.84375 -54.28125 Z M 42.359375 -54.28125 "/></g></g></g><g fill="#039be5" fill-opacity="0.4"><g transform="translate(243.971159, 90.115972)"><g><path d="M 6.890625 -60.65625 L 6.890625 -74.546875 L 27.34375 -74.546875 L 27.34375 -60.65625 Z M 6.890625 0 L 6.890625 -54.28125 L 27.34375 -54.28125 L 27.34375 0 Z M 6.890625 0 "/></g></g></g><g fill="#039be5" fill-opacity="0.4"><g transform="translate(272.342337, 90.115972)"><g><path d="M 31.96875 -55.515625 C 39.238281 -55.515625 45.390625 -54.09375 50.421875 -51.25 C 55.460938 -48.40625 57.984375 -44.003906 57.984375 -38.046875 L 38.96875 -38.046875 C 38.96875 -40.023438 38.078125 -41.425781 36.296875 -42.25 C 35.054688 -42.9375 33.515625 -43.28125 31.671875 -43.28125 C 26.734375 -43.28125 24.265625 -42.113281 24.265625 -39.78125 C 24.265625 -38.476562 25.117188 -37.550781 26.828125 -37 C 28.546875 -36.457031 31.359375 -35.878906 35.265625 -35.265625 C 40.066406 -34.578125 44.078125 -33.769531 47.296875 -32.84375 C 50.515625 -31.914062 53.320312 -30.269531 55.71875 -27.90625 C 58.125 -25.539062 59.328125 -22.238281 59.328125 -18 C 59.328125 -11.070312 56.738281 -6.132812 51.5625 -3.1875 C 46.382812 -0.238281 39.613281 1.234375 31.25 1.234375 C 26.457031 1.234375 21.9375 0.566406 17.6875 -0.765625 C 13.4375 -2.109375 9.972656 -4.179688 7.296875 -6.984375 C 4.628906 -9.796875 3.296875 -13.363281 3.296875 -17.6875 L 22.3125 -17.6875 L 22.3125 -17.265625 C 22.375 -14.941406 23.347656 -13.316406 25.234375 -12.390625 C 27.117188 -11.460938 29.125 -11 31.25 -11 C 36.9375 -11 39.78125 -12.335938 39.78125 -15.015625 C 39.78125 -16.378906 38.890625 -17.367188 37.109375 -17.984375 C 35.328125 -18.609375 32.414062 -19.265625 28.375 -19.953125 C 23.507812 -20.765625 19.515625 -21.648438 16.390625 -22.609375 C 13.273438 -23.578125 10.550781 -25.207031 8.21875 -27.5 C 5.894531 -29.800781 4.734375 -33.003906 4.734375 -37.109375 C 4.734375 -43.765625 7.25 -48.492188 12.28125 -51.296875 C 17.320312 -54.109375 23.882812 -55.515625 31.96875 -55.515625 Z M 31.96875 -55.515625 "/></g></g></g><g fill="#039be5" fill-opacity="0.4"><g transform="translate(329.291238, 90.115972)"><g><path d="M 42.359375 -54.28125 L 42.359375 -40.40625 L 30.84375 -40.40625 L 30.84375 -19.734375 C 30.84375 -17.265625 31.253906 -15.460938 32.078125 -14.328125 C 32.898438 -13.203125 34.40625 -12.640625 36.59375 -12.640625 L 42.359375 -12.640625 L 42.359375 -0.609375 C 40.710938 -0.0664062 38.585938 0.375 35.984375 0.71875 C 33.378906 1.0625 31.117188 1.234375 29.203125 1.234375 C 23.171875 1.234375 18.523438 0.140625 15.265625 -2.046875 C 12.015625 -4.242188 10.390625 -7.984375 10.390625 -13.265625 L 10.390625 -40.40625 L 2.78125 -40.40625 L 2.78125 -54.28125 L 11.203125 -54.28125 L 15.625 -70.734375 L 30.84375 -70.734375 L 30.84375 -54.28125 Z M 42.359375 -54.28125 "/></g></g></g><g fill="#039be5" fill-opacity="1"><g transform="translate(78.778326, 90.115972)"><g><path d="M 34.234375 -55.515625 C 44.171875 -55.515625 51.757812 -53.179688 57 -48.515625 C 62.25 -43.859375 64.875 -36.734375 64.875 -27.140625 L 64.875 -23.640625 L 24.15625 -23.640625 C 24.15625 -19.734375 25.03125 -16.785156 26.78125 -14.796875 C 28.53125 -12.816406 31.289062 -11.828125 35.0625 -11.828125 C 38.488281 -11.828125 41.003906 -12.546875 42.609375 -13.984375 C 44.222656 -15.421875 45.03125 -17.335938 45.03125 -19.734375 L 64.875 -19.734375 C 64.875 -13.160156 62.367188 -8.019531 57.359375 -4.3125 C 52.359375 -0.613281 45.0625 1.234375 35.46875 1.234375 C 25.394531 1.234375 17.582031 -1.113281 12.03125 -5.8125 C 6.476562 -10.507812 3.703125 -17.617188 3.703125 -27.140625 C 3.703125 -36.460938 6.410156 -43.519531 11.828125 -48.3125 C 17.242188 -53.113281 24.710938 -55.515625 34.234375 -55.515625 Z M 35.0625 -42.46875 C 28.613281 -42.46875 25.015625 -39.414062 24.265625 -33.3125 L 44.203125 -33.3125 C 44.203125 -36.125 43.394531 -38.351562 41.78125 -40 C 40.175781 -41.644531 37.9375 -42.46875 35.0625 -42.46875 Z M 35.0625 -42.46875 "/></g></g></g><g fill="#039be5" fill-opacity="1"><g transform="translate(141.483898, 90.115972)"><g><path d="M 43.59375 -55.515625 C 49.894531 -55.515625 54.625 -53.765625 57.78125 -50.265625 C 60.9375 -46.773438 62.515625 -41.738281 62.515625 -35.15625 L 62.515625 0 L 42.046875 0 L 42.046875 -32.6875 C 42.046875 -35.019531 41.445312 -36.890625 40.25 -38.296875 C 39.050781 -39.703125 37.351562 -40.40625 35.15625 -40.40625 C 32.625 -40.40625 30.566406 -39.582031 28.984375 -37.9375 C 27.410156 -36.289062 26.625 -34.269531 26.625 -31.875 L 26.625 0 L 6.171875 0 L 6.171875 -54.28125 L 22.921875 -54.28125 L 24.265625 -46.0625 C 26.390625 -48.9375 29.179688 -51.226562 32.640625 -52.9375 C 36.097656 -54.65625 39.75 -55.515625 43.59375 -55.515625 Z M 43.59375 -55.515625 "/></g></g></g><g fill="#039be5" fill-opacity="1"><g transform="translate(204.189469, 90.115972)"><g><path d="M 42.359375 -54.28125 L 42.359375 -40.40625 L 30.84375 -40.40625 L 30.84375 -19.734375 C 30.84375 -17.265625 31.253906 -15.460938 32.078125 -14.328125 C 32.898438 -13.203125 34.40625 -12.640625 36.59375 -12.640625 L 42.359375 -12.640625 L 42.359375 -0.609375 C 40.710938 -0.0664062 38.585938 0.375 35.984375 0.71875 C 33.378906 1.0625 31.117188 1.234375 29.203125 1.234375 C 23.171875 1.234375 18.523438 0.140625 15.265625 -2.046875 C 12.015625 -4.242188 10.390625 -7.984375 10.390625 -13.265625 L 10.390625 -40.40625 L 2.78125 -40.40625 L 2.78125 -54.28125 L 11.203125 -54.28125 L 15.625 -70.734375 L 30.84375 -70.734375 L 30.84375 -54.28125 Z M 42.359375 -54.28125 "/></g></g></g><g fill="#039be5" fill-opacity="1"><g transform="translate(243.971159, 90.115972)"><g><path d="M 6.890625 -60.65625 L 6.890625 -74.546875 L 27.34375 -74.546875 L 27.34375 -60.65625 Z M 6.890625 0 L 6.890625 -54.28125 L 27.34375 -54.28125 L 27.34375 0 Z M 6.890625 0 "/></g></g></g><g fill="#039be5" fill-opacity="1"><g transform="translate(272.342337, 90.115972)"><g><path d="M 31.96875 -55.515625 C 39.238281 -55.515625 45.390625 -54.09375 50.421875 -51.25 C 55.460938 -48.40625 57.984375 -44.003906 57.984375 -38.046875 L 38.96875 -38.046875 C 38.96875 -40.023438 38.078125 -41.425781 36.296875 -42.25 C 35.054688 -42.9375 33.515625 -43.28125 31.671875 -43.28125 C 26.734375 -43.28125 24.265625 -42.113281 24.265625 -39.78125 C 24.265625 -38.476562 25.117188 -37.550781 26.828125 -37 C 28.546875 -36.457031 31.359375 -35.878906 35.265625 -35.265625 C 40.066406 -34.578125 44.078125 -33.769531 47.296875 -32.84375 C 50.515625 -31.914062 53.320312 -30.269531 55.71875 -27.90625 C 58.125 -25.539062 59.328125 -22.238281 59.328125 -18 C 59.328125 -11.070312 56.738281 -6.132812 51.5625 -3.1875 C 46.382812 -0.238281 39.613281 1.234375 31.25 1.234375 C 26.457031 1.234375 21.9375 0.566406 17.6875 -0.765625 C 13.4375 -2.109375 9.972656 -4.179688 7.296875 -6.984375 C 4.628906 -9.796875 3.296875 -13.363281 3.296875 -17.6875 L 22.3125 -17.6875 L 22.3125 -17.265625 C 22.375 -14.941406 23.347656 -13.316406 25.234375 -12.390625 C 27.117188 -11.460938 29.125 -11 31.25 -11 C 36.9375 -11 39.78125 -12.335938 39.78125 -15.015625 C 39.78125 -16.378906 38.890625 -17.367188 37.109375 -17.984375 C 35.328125 -18.609375 32.414062 -19.265625 28.375 -19.953125 C 23.507812 -20.765625 19.515625 -21.648438 16.390625 -22.609375 C 13.273438 -23.578125 10.550781 -25.207031 8.21875 -27.5 C 5.894531 -29.800781 4.734375 -33.003906 4.734375 -37.109375 C 4.734375 -43.765625 7.25 -48.492188 12.28125 -51.296875 C 17.320312 -54.109375 23.882812 -55.515625 31.96875 -55.515625 Z M 31.96875 -55.515625 "/></g></g></g><g fill="#039be5" fill-opacity="1"><g transform="translate(329.291238, 90.115972)"><g><path d="M 42.359375 -54.28125 L 42.359375 -40.40625 L 30.84375 -40.40625 L 30.84375 -19.734375 C 30.84375 -17.265625 31.253906 -15.460938 32.078125 -14.328125 C 32.898438 -13.203125 34.40625 -12.640625 36.59375 -12.640625 L 42.359375 -12.640625 L 42.359375 -0.609375 C 40.710938 -0.0664062 38.585938 0.375 35.984375 0.71875 C 33.378906 1.0625 31.117188 1.234375 29.203125 1.234375 C 23.171875 1.234375 18.523438 0.140625 15.265625 -2.046875 C 12.015625 -4.242188 10.390625 -7.984375 10.390625 -13.265625 L 10.390625 -40.40625 L 2.78125 -40.40625 L 2.78125 -54.28125 L 11.203125 -54.28125 L 15.625 -70.734375 L 30.84375 -70.734375 L 30.84375 -54.28125 Z M 42.359375 -54.28125 "/></g></g></g><g clip-path="url(#250e33bf6c)"><path fill="#242424" d="M 77.511719 56.460938 L 77.511719 56.726562 C 77.511719 83.648438 60.8125 103.640625 32.191406 103.640625 L 8.066406 103.640625 C 4.703125 103.640625 1.976562 100.699219 1.976562 97.070312 L 1.976562 60.910156 L 20.757812 60.910156 C 20.628906 62.136719 20.511719 63.351562 20.511719 64.515625 C 20.511719 67 21.117188 73.757812 22.167969 78.683594 C 22.167969 78.683594 22.25 80.425781 23.984375 83.648438 C 25.722656 86.875 28.183594 84.523438 28.75 83.390625 C 29.316406 82.257812 30.042969 72.710938 31.617188 67.347656 C 33.195312 61.988281 37.070312 62.378906 39.332031 63.644531 C 41.59375 64.90625 43.777344 68.308594 44.019531 70.269531 C 44.261719 72.230469 43.949219 76.429688 44.058594 79.308594 C 44.167969 82.183594 44.945312 84.742188 46.265625 83.171875 C 47.585938 81.601562 48.691406 79.074219 50.304688 73.84375 C 51.921875 68.613281 52.015625 59.023438 51.933594 55.734375 C 51.855469 52.449219 52.824219 50.128906 54.695312 46.6875 C 56.566406 43.242188 56.632812 38.359375 54.695312 35.71875 C 52.753906 33.070312 50.222656 32.695312 47.074219 32.808594 C 43.921875 32.921875 33.800781 35.746094 28.226562 37.054688 C 28.226562 37.054688 31.804688 35.253906 32.5625 34.816406 C 33.316406 34.378906 32.75 34.148438 31.699219 33.800781 C 30.648438 33.449219 26.796875 32.753906 24 32.8125 C 21.199219 32.867188 18.503906 34.0625 17.265625 37.375 C 16.027344 40.6875 17.132812 43.824219 18.828125 47.921875 C 19.722656 50.078125 20.328125 51.671875 20.691406 53.078125 L 1.976562 53.078125 L 1.976562 16.914062 C 1.976562 13.285156 4.703125 10.34375 8.066406 10.34375 L 32.644531 10.34375 C 61.042969 10.34375 77.511719 29.535156 77.511719 56.460938 " fill-opacity="1" fill-rule="nonzero"/></g></svg>