<?xml version="1.0" encoding="UTF-8" standalone="no"?>
<svg
   version="1.1"
   width="512"
   height="512"
   x="0"
   y="0"
   viewBox="0 0 512 512"
   style="enable-background:new 0 0 512 512"
   xml:space="preserve"
   class=""
   id="svg25"
   sodipodi:docname="developer.svg"
   inkscape:version="1.3.2 (091e20e, 2023-11-25, custom)"
   xmlns:inkscape="http://www.inkscape.org/namespaces/inkscape"
   xmlns:sodipodi="http://sodipodi.sourceforge.net/DTD/sodipodi-0.dtd"
   xmlns="http://www.w3.org/2000/svg"
   xmlns:svg="http://www.w3.org/2000/svg"><defs
     id="defs25"><rect
       x="274.61263"
       y="147.68057"
       width="177.58284"
       height="80.553039"
       id="rect26" /></defs><sodipodi:namedview
     id="namedview25"
     pagecolor="#ffffff"
     bordercolor="#000000"
     borderopacity="0.25"
     inkscape:showpageshadow="2"
     inkscape:pageopacity="0.0"
     inkscape:pagecheckerboard="0"
     inkscape:deskcolor="#d1d1d1"
     inkscape:zoom="1.6386719"
     inkscape:cx="256"
     inkscape:cy="256"
     inkscape:window-width="1920"
     inkscape:window-height="1017"
     inkscape:window-x="-8"
     inkscape:window-y="-8"
     inkscape:window-maximized="1"
     inkscape:current-layer="g25" /><g
     id="g25"><clipPath
       id="a"><path
         d="M122.61 160.59h55.14v110.45h-55.14z"
         fill="#000000"
         opacity="1"
         data-original="#000000"
         id="path1" /></clipPath><clipPath
       id="b"><rect
         width="190.55"
         height="154.02"
         x="268.14"
         y="102.13"
         rx="8.36"
         fill="#000000"
         opacity="1"
         data-original="#000000"
         id="rect1" /></clipPath><path
       fill="#f83600"
       d="M265 407.09c-2.64-9.24-12.15-87.28-20.78-119.65s-52.1-46-52.1-46l11.58 118.35 6.87 109.35h146.91l6.34-30.25s-96.17-22.55-98.82-31.8z"
       opacity="1"
       data-original="#e73f46"
       class=""
       id="path2" /><g
       clip-path="url(#a)"
       id="g4"><path
         fill="#f5b493"
         d="M122.61 160.59h55.14v110.45h-55.14z"
         opacity="1"
         data-original="#f5b493"
         class=""
         id="path3" /><path
         fill="#eba284"
         d="M123.27 172.32c5.26 31.62 28.56 54.73 59.6 62.07v-40.94z"
         opacity="1"
         data-original="#eba284"
         id="path4" /></g><path
       fill="#f83600"
       d="M150.07 231.67c-37.15-1-61 10.44-72.13 16.91-11.56 6.74-17.07 12.69-18.5 14.27-16.11 17.87-17.65 40.41-18.49 56-7.45 136.94-6.61 147.76 20.78 156.26 34.25 10.63 63.47 6.39 107.1.38 10.92-1.5 32.76-4.49 62.71-8.47l-11.28-40.85-112.73-10q7.55-45.47 15.08-90.94a129.9 129.9 0 0 0 16.06-27.46c4.55-10.51 10.27-34.37 11.4-66.1z"
       opacity="1"
       data-original="#e73f46"
       class=""
       id="path5" /><path
       fill="#f83600"
       d="M160.44 234.82s53.07 4.84 67.94 30.27 15.84 195.76 15.84 195.76l-160.65 7.71 3.64-170.33z"
       opacity="1"
       data-original="#e73f46"
       class=""
       id="path6" /><path
       fill="#f5b493"
       d="M122.61 234.87s14 31.68 29.57 31.15 25.57-28.63 25.57-28.63-26.32-20.72-55.14-2.52z"
       opacity="1"
       data-original="#f5b493"
       class=""
       id="path7" /><path
       fill="#f83600"
       d="M122.61 215.68a9.7 9.7 0 0 0-8.34 5.95c-2.38 5.81-7.48 14.89-7.48 14.89s14.21 48 21.88 50.37S150.18 266 150.18 266a58.41 58.41 0 0 1-27.57-50.32zM177.75 219.69s4.46.18 6.23 3.88 8.14 17.28 8.14 17.28-8 35.47-17.22 41S152.18 266 152.18 266s22.07-11.26 25.57-46.31z"
       opacity="1"
       data-original="#e73f46"
       class=""
       id="path8" /><path
       fill="#cc3745"
       d="M106.79 236.52a95.1 95.1 0 0 0 11.57 38.22c3.42 6.09 12.18 21.73 19.82 20.34 9.2-1.67 17.79-32.86 14-24.31.1 0 0 0-14.79 18.76a148.84 148.84 0 0 1-30.6-53.01z"
       opacity="1"
       data-original="#cc3745"
       class=""
       id="path9" /><path
       fill="#cc3745"
       d="M152.8 269.89c.55 1 12.46 23 21.66 20.79 1.91-.47 4.83-2.25 10.22-18.85a203.08 203.08 0 0 0 7.44-31l-18.54 44.72zM154.85 280.89s-7.31 33.14 6.08 68.21 10.57 119.46 10.57 119.46h5.64s3.52-68.21-6.35-100.58-18.14-61.66-15.94-87.09zM228 292l-2.79 51q6.44 65.32 12.86 130.64l9.69-2.7-17.63-128.01Q229.05 317.45 228 292z"
       opacity="1"
       data-original="#cc3745"
       class=""
       id="path10" /><path
       fill="#f5b493"
       d="m159.14 468.68 21-.91s11.78-1.83 18.3-9.58 17.55 8 23.06 7.8-4.56-15.55-4.56-15.55 12.15 15.22 17.45 15-6-19.22-6-19.22 12.15 19 17.08 17.8-9.86-26.6-16.56-31.36-36.77 1.06-36.77 1.06l-32 .88s-8.23 18.49-1 34.08z"
       opacity="1"
       data-original="#f5b493"
       class=""
       id="path11" /><path
       fill="#f83600"
       d="M148.46 430.19s-3.64 35.17 0 48.05l16.84-3.31s-4.05-29.95-1.4-40.34z"
       opacity="1"
       data-original="#e73f46"
       class=""
       id="path12" /><path
       fill="#cc3745"
       d="M144 430.19s-1.4 20.43 2.91 34.35l1.56-34.35z"
       opacity="1"
       data-original="#cc3745"
       class=""
       id="path13" /><path
       fill="#cc3745"
       d="M87.21 298.23a60.59 60.59 0 0 1 6.84 47.59l-.79 73.71 66.85 15.06L102 412.66q-.27-32.84-.53-65.68c4.08-17.75-.78-36.5-14.26-48.75z"
       opacity="1"
       data-original="#cc3745"
       class=""
       id="path14" /><circle
       cx="155.22"
       cy="440.8"
       r="4.89"
       fill="#efbd42"
       opacity="1"
       data-original="#efbd42"
       id="circle14" /><path
       fill="#cc3745"
       d="M95.55 414.86S77.23 426 70.89 442.34c0 0 19.73-19.73 32.59-23.6zM265 407.09s-13.87 9.71-18.56 21.91l26.71-16.33z"
       opacity="1"
       data-original="#cc3745"
       class=""
       id="path15" /><path
       fill="#f5b493"
       d="M227.44 143.54c-1.51-12-4.4-19.33-5.12-27.2-1.79-19.44.34-34.29-13.55-47.53A67.55 67.55 0 0 0 194.08 56c-20-14.63-53.18-15-75.59 1.78C92.68 77.17 93 110.47 93.07 118.74c.37 38.63 27.2 64.55 38.91 74.08a98.94 98.94 0 0 0 21.15 15.46c8.59 4.57 31.61 16.79 48.2 6.1 4.34-2.79 10.29-9.8 17.31-26.21 9.07-21.17 10.3-32.6 8.8-44.63z"
       opacity="1"
       data-original="#f5b493"
       class=""
       id="path16" /><g
       fill="#2d1929"
       id="g17"><path
         d="M194.27 160.15c4-2.26 6.12-4.57 6.17-6.86.05-2.78-3-4.57-5.91-7.88-3.73-4.19-6.24-9.68-7.47-16.32a.51.51 0 0 1 .41-.58.5.5 0 0 1 .58.4c3.25 17.71 13.51 18.44 13.39 24.4-.06 2.67-2.31 5.27-6.69 7.72a.5.5 0 0 1-.48-.88zM208.64 137.74c-2.83.24-5.42-3.11-5.79-7.49s1.63-8.1 4.46-8.34 5.42 3.12 5.79 7.49-1.63 8.11-4.46 8.34zM164.59 141.43c-2.83.23-5.42-3.12-5.78-7.49s1.63-8.11 4.46-8.35 5.42 3.12 5.78 7.49-1.63 8.11-4.46 8.35zM187.86 184.36c-5.6 0-15.29-1.33-20.92-9.68a.5.5 0 0 1 .13-.7.51.51 0 0 1 .7.14c7.87 11.67 24.1 9 24.27 9a.5.5 0 0 1 .17 1 29 29 0 0 1-4.35.24zM191.37 107.31a1 1 0 0 1-.65-1.75c.11-.1 11.33-9.55 24.06-2.29a1 1 0 0 1-1 1.74c-11.48-6.55-21.34 1.71-21.76 2.06a1 1 0 0 1-.65.24zM147.92 111.24a1 1 0 0 1-.73-1.68c9.91-10.78 23.47-5.18 23.61-5.13a1 1 0 0 1-.78 1.85c-.51-.22-12.42-5.09-21.36 4.64a1 1 0 0 1-.74.32z"
         fill="#2d1929"
         opacity="1"
         data-original="#2d1929"
         class=""
         id="path17" /></g><path
       fill="#0039a6"
       d="M447.47 478.8H271.86a4.16 4.16 0 0 1-4.13-4.71l18.79-143.72a4.17 4.17 0 0 1 4.14-3.63h180.62a4.17 4.17 0 0 1 4.11 4.85l-23.81 143.72a4.16 4.16 0 0 1-4.11 3.49z"
       opacity="1"
       data-original="#287eef"
       class=""
       id="path18" /><path
       fill="#0039a6"
       d="M291.83 478.8H157.27a4.17 4.17 0 0 1-4.17-4.17v-1.7a4.16 4.16 0 0 1 4-4.16L291.65 463a4.17 4.17 0 0 1 4.35 4.16v7.51a4.17 4.17 0 0 1-4.17 4.13z"
       opacity="1"
       data-original="#287eef"
       class=""
       id="path19" /><path
       fill="#efefef"
       d="M378.63 423.84a21.07 21.07 0 1 1 21.07-21.07 21.09 21.09 0 0 1-21.07 21.07zm0-40.14a19.07 19.07 0 1 0 19.07 19.07 19.09 19.09 0 0 0-19.07-19.07z"
       opacity="1"
       data-original="#efefef"
       class=""
       id="path20" /><path
       fill="#2d1929"
       d="M269.05 463.93s.18 13.11 6.79 14.87h-6.26c-5.26-3.75-5.03-10.58-.53-14.87zM136.33 113.3c-4.28 3.59-11.88 8.34-25.1 9.78q6.31 31.23 12.64 62.47c-2.74-1.51-56.05-32-55.8-81.64.3-59.26 62.08-88 109.48-63.54a40 40 0 0 1 46.24 24.31c7.21 17.92-1.14 34.32-2.47 36.83-6.07-18.4-18.77-32.94-35.58-42.11a40.27 40.27 0 0 0-20.35 7.4c-16.64 12.38-12.69 32.77-29.06 46.5z"
       opacity="1"
       data-original="#2d1929"
       class=""
       id="path21" /><path
       fill="#f5b493"
       d="M112.8 156.88c-8.69 3.51-19.2-2.21-23.46-12.77s-.68-22 8-25.48 19.19 2.21 23.46 12.76.69 21.97-8 25.49z"
       opacity="1"
       data-original="#f5b493"
       class=""
       id="path22" /><path
       fill="#2d1929"
       d="M113.62 146.79c-.06 0-5.73-.85-6.25-6.34-.32-3.45 4.1-4.78 5.8-5.16-1.08-2.28-5.53-10.74-11.75-10.4-5.84.28-5.66 6.87-5.65 7.15a.5.5 0 0 1-.48.52.53.53 0 0 1-.52-.48c0-.08-.23-7.86 6.6-8.19 7.89-.39 12.78 11.09 13 11.58a.5.5 0 0 1-.38.69c-.06 0-5.91 1-5.6 4.2.44 4.69 5.18 5.41 5.38 5.44a.5.5 0 0 1-.15.99z"
       opacity="1"
       data-original="#2d1929"
       class=""
       id="path23" /><g
       clip-path="url(#b)"
       id="g24"><rect
         width="190.55"
         height="154.02"
         x="268.14"
         y="102.13"
         fill="#efefef"
         rx="8.36"
         opacity="1"
         data-original="#efefef"
         class=""
         id="rect23" /><path
         fill="#0039a6"
         d="M258.26 91.63h204.51v32.75H258.26z"
         opacity="1"
         data-original="#40c2d6"
         class=""
         id="path24" /></g><rect
       width="40.15"
       height="7.75"
       x="282.45"
       y="110.22"
       fill="#efefef"
       rx="3.67"
       opacity="1"
       data-original="#efefef"
       class=""
       id="rect25" /><text
       xml:space="preserve"
       id="text25"
       style="font-weight:bold;font-size:32px;line-height:1.1;font-family:'Comic Sans MS';-inkscape-font-specification:'Comic Sans MS Bold';text-align:center;letter-spacing:-0.55px;white-space:pre;shape-inside:url(#rect26);fill:#284d86"><tspan
         x="287.4863"
         y="174.69068"
         id="tspan2"><tspan
           style="font-family:Montserrat;-inkscape-font-specification:'Montserrat Bold'"
           id="tspan1">TELEFON
</tspan></tspan><tspan
         x="311.32031"
         y="211.49786"
         id="tspan4"><tspan
           style="font-family:Montserrat;-inkscape-font-specification:'Montserrat Bold'"
           id="tspan3">EMAIL</tspan></tspan></text></g></svg>
