<svg xmlns="http://www.w3.org/2000/svg" version="1.1" xmlns:xlink="http://www.w3.org/1999/xlink" width="512" height="512" x="0" y="0" viewBox="0 0 43.349 43.349" style="enable-background:new 0 0 512 512" xml:space="preserve" fill-rule="evenodd" class=""><g><path d="M21.675 30.677a.84.84 0 0 1-.716-.399 130.01 130.01 0 0 0-2.138-3.235c-3.436-5.1-8.141-12.081-8.141-16.046C10.68 4.933 15.61.002 21.675.002c6.063 0 10.995 4.931 10.995 10.995 0 3.965-4.706 10.95-8.141 16.046a129.443 129.443 0 0 0-2.138 3.235.833.833 0 0 1-.716.399zm0-28.982c-5.13 0-9.302 4.173-9.302 9.302 0 3.446 4.723 10.459 7.852 15.101.533.794 1.023 1.517 1.45 2.17.426-.653.917-1.376 1.45-2.17 3.125-4.642 7.848-11.655 7.848-15.101.004-5.129-4.17-9.302-9.298-9.302z" fill="#ffffff" opacity="1" data-original="#000000" class=""></path><path d="M21.675 16.874a6.018 6.018 0 0 1-6.011-6.011 6.018 6.018 0 0 1 6.01-6.011 6.018 6.018 0 0 1 6.012 6.01 6.018 6.018 0 0 1-6.011 6.012zm0-10.332a4.322 4.322 0 0 0-4.318 4.317 4.322 4.322 0 0 0 4.318 4.318 4.322 4.322 0 0 0 4.317-4.318 4.322 4.322 0 0 0-4.317-4.317zM15.413 43.347a.887.887 0 0 1-.268-.042L2.626 39.129a.847.847 0 0 1-.578-.805v-24.34a.846.846 0 0 1 1.114-.803l11.017 3.672a.845.845 0 0 1 .476.398c.427.787.924 1.651 1.485 2.568a.849.849 0 0 1 .123.441V42.5a.846.846 0 0 1-.85.847zm-11.672-5.63 10.826 3.61v-20.83a63.807 63.807 0 0 1-1.242-2.142l-9.584-3.2z" fill="#ffffff" opacity="1" data-original="#000000" class=""></path><path d="M15.413 43.347a.846.846 0 0 1-.847-.847V20.26a.847.847 0 0 1 1.57-.44c1.334 2.193 2.798 4.363 4.085 6.278.533.794 1.023 1.52 1.45 2.17.427-.65.917-1.376 1.45-2.17 1.291-1.915 2.751-4.085 4.085-6.279a.846.846 0 0 1 1.57.441v18.068a.85.85 0 0 1-.579.804l-12.519 4.173a.834.834 0 0 1-.265.042zm.847-20.152v18.131l10.826-3.609V23.195c-.871 1.347-1.75 2.65-2.558 3.852a129.443 129.443 0 0 0-2.137 3.235.851.851 0 0 1-.72.398.84.84 0 0 1-.716-.398c-.547-.875-1.284-1.969-2.138-3.235-.807-1.203-1.682-2.505-2.557-3.852z" fill="#ffffff" opacity="1" data-original="#000000" class=""></path><path d="M40.455 43.347a.886.886 0 0 1-.268-.042l-12.52-4.173a.846.846 0 0 1-.578-.804V20.26c0-.155.043-.307.124-.44 1.248-2.057 2.162-3.765 2.79-5.221a.845.845 0 0 1 1.044-.47l9.676 3.225a.846.846 0 0 1 .578.804V42.5a.846.846 0 0 1-.846.846zm-11.672-5.63 10.825 3.61V18.767l-8.37-2.79c-.61 1.312-1.422 2.8-2.456 4.518z" fill="#ffffff" opacity="1" data-original="#000000" class=""></path></g></svg>