<svg xmlns="http://www.w3.org/2000/svg" xmlns:xlink="http://www.w3.org/1999/xlink" width="500" zoomAndPan="magnify" viewBox="0 0 375 374.999991" height="500" preserveAspectRatio="xMidYMid meet" version="1.0"><defs><g/><clipPath id="4df916c59a"><path d="M 118 161 L 263 161 L 263 225.015625 L 118 225.015625 Z M 118 161 " clip-rule="nonzero"/></clipPath><clipPath id="bcce4840b8"><path d="M 112 75.765625 L 257 75.765625 L 257 140 L 112 140 Z M 112 75.765625 " clip-rule="nonzero"/></clipPath><clipPath id="c659b42704"><path d="M 231 132 L 299.820312 132 L 299.820312 169 L 231 169 Z M 231 132 " clip-rule="nonzero"/></clipPath><clipPath id="b407d2b59d"><path d="M 74.820312 132 L 144 132 L 144 169 L 74.820312 169 Z M 74.820312 132 " clip-rule="nonzero"/></clipPath></defs><g fill="#145da0" fill-opacity="1"><g transform="translate(140.363924, 286.162223)"><g><path d="M 12.1875 -34.109375 L 12.1875 0 L 2.703125 0 L 2.703125 -34.109375 Z M 12.1875 -34.109375 "/></g></g></g><g fill="#145da0" fill-opacity="1"><g transform="translate(164.944997, 286.162223)"><g><path d="M 28.40625 -34.109375 L 28.40625 -26.5625 L 19.3125 -26.5625 L 19.3125 0 L 9.828125 0 L 9.828125 -26.5625 L 0.828125 -26.5625 L 0.828125 -34.109375 Z M 28.40625 -34.109375 "/></g></g></g><g fill="#145da0" fill-opacity="1"><g transform="translate(203.847716, 286.162223)"><g><path d="M 29.65625 -22.75 C 29.65625 -20.675781 29.179688 -18.789062 28.234375 -17.09375 C 27.285156 -15.40625 25.847656 -14.050781 23.921875 -13.03125 C 22.003906 -12.019531 19.660156 -11.515625 16.890625 -11.515625 L 12.1875 -11.515625 L 12.1875 0 L 2.703125 0 L 2.703125 -34.109375 L 16.890625 -34.109375 C 19.628906 -34.109375 21.957031 -33.625 23.875 -32.65625 C 25.800781 -31.695312 27.242188 -30.359375 28.203125 -28.640625 C 29.171875 -26.929688 29.65625 -24.96875 29.65625 -22.75 Z M 15.96875 -19.0625 C 18.644531 -19.0625 19.984375 -20.289062 19.984375 -22.75 C 19.984375 -25.226562 18.644531 -26.46875 15.96875 -26.46875 L 12.1875 -26.46875 L 12.1875 -19.0625 Z M 15.96875 -19.0625 "/></g></g></g><g clip-path="url(#4df916c59a)"><path fill="#002a50" d="M 254.246094 176.136719 L 247.109375 170.667969 C 245.730469 169.613281 245.113281 167.8125 245.566406 166.140625 C 245.566406 166.125 245.585938 166.109375 245.585938 166.09375 C 246.039062 164.40625 247.449219 163.15625 249.1875 162.929688 L 262.308594 161.210938 L 227.398438 161.210938 C 222.679688 178.859375 206.554688 191.886719 187.429688 191.871094 C 168.386719 191.855469 152.277344 178.8125 147.558594 161.210938 L 128.074219 161.210938 C 128.269531 162.121094 129.128906 165.121094 129.371094 166.011719 C 129.84375 167.78125 129.210938 169.644531 127.765625 170.765625 L 120.742188 176.152344 C 118.8125 177.628906 118.277344 180.320312 119.492188 182.429688 L 125.902344 193.507812 C 127.117188 195.617188 129.714844 196.492188 131.96875 195.570312 L 140.289062 192.113281 C 141.894531 191.449219 143.746094 191.820312 144.976562 193.039062 L 144.992188 193.054688 L 145.011719 193.070312 C 146.242188 194.304688 146.617188 196.152344 145.933594 197.757812 L 142.480469 206.082031 C 141.539062 208.335938 142.429688 210.929688 144.539062 212.148438 L 155.617188 218.554688 C 157.726562 219.769531 160.421875 219.234375 161.898438 217.304688 L 167.363281 210.183594 C 168.417969 208.804688 170.21875 208.1875 171.890625 208.644531 C 171.90625 208.644531 171.921875 208.660156 171.9375 208.660156 C 173.625 209.113281 174.875 210.523438 175.101562 212.261719 L 176.269531 221.167969 C 176.59375 223.582031 178.636719 225.382812 181.085938 225.382812 L 193.886719 225.382812 C 196.320312 225.382812 198.378906 223.582031 198.703125 221.167969 L 199.871094 212.261719 C 200.097656 210.523438 201.347656 209.113281 203.035156 208.660156 C 203.050781 208.660156 203.066406 208.644531 203.082031 208.644531 C 204.769531 208.1875 206.554688 208.804688 207.609375 210.183594 L 213.078125 217.304688 C 214.550781 219.234375 217.246094 219.769531 219.355469 218.554688 L 230.433594 212.148438 C 232.542969 210.929688 233.417969 208.335938 232.492188 206.082031 L 229.039062 197.757812 C 228.375 196.152344 228.746094 194.304688 229.964844 193.070312 L 229.996094 193.039062 C 231.226562 191.804688 233.078125 191.449219 234.683594 192.113281 L 243.003906 195.570312 C 245.261719 196.507812 247.855469 195.617188 249.070312 193.507812 L 255.480469 182.429688 C 256.730469 180.304688 256.195312 177.609375 254.246094 176.136719 Z M 254.246094 176.136719 " fill-opacity="1" fill-rule="nonzero"/></g><g clip-path="url(#bcce4840b8)"><path fill="#145da0" d="M 129.386719 134.996094 C 128.933594 136.683594 127.523438 137.933594 125.789062 138.160156 L 112.664062 139.878906 L 147.574219 139.878906 C 152.292969 122.230469 168.417969 109.203125 187.542969 109.21875 C 206.585938 109.238281 222.695312 122.277344 227.417969 139.878906 L 246.816406 139.878906 C 246.621094 139.019531 245.875 136.050781 245.664062 135.207031 C 245.179688 133.359375 245.828125 131.410156 247.351562 130.242188 L 254.261719 124.9375 C 256.195312 123.464844 256.730469 120.769531 255.511719 118.660156 L 249.105469 107.582031 C 247.886719 105.472656 245.292969 104.597656 243.039062 105.523438 L 234.714844 108.976562 C 233.109375 109.640625 231.261719 109.269531 230.027344 108.050781 L 229.996094 108.019531 C 228.761719 106.789062 228.390625 104.9375 229.070312 103.332031 L 232.527344 95.011719 C 233.46875 92.753906 232.574219 90.160156 230.464844 88.945312 L 219.386719 82.535156 C 217.277344 81.320312 214.585938 81.855469 213.109375 83.785156 L 207.640625 90.90625 C 206.585938 92.285156 204.785156 92.902344 203.117188 92.449219 C 203.101562 92.449219 203.082031 92.429688 203.066406 92.429688 C 201.378906 91.976562 200.132812 90.566406 199.90625 88.828125 L 198.738281 79.925781 C 198.410156 77.507812 196.367188 75.707031 193.917969 75.707031 L 181.121094 75.707031 C 178.6875 75.707031 176.625 77.507812 176.300781 79.925781 L 175.132812 88.828125 C 174.90625 90.566406 173.65625 91.976562 171.96875 92.429688 C 171.953125 92.429688 171.9375 92.449219 171.921875 92.449219 C 170.234375 92.902344 168.449219 92.285156 167.394531 90.90625 L 161.929688 83.785156 C 160.453125 81.855469 157.761719 81.320312 155.652344 82.535156 L 144.570312 88.945312 C 142.464844 90.160156 141.585938 92.753906 142.511719 95.011719 L 145.96875 103.332031 C 146.632812 104.9375 146.257812 106.789062 145.042969 108.019531 L 145.011719 108.050781 C 143.777344 109.285156 141.929688 109.640625 140.320312 108.976562 L 132 105.523438 C 129.746094 104.582031 127.148438 105.472656 125.933594 107.582031 L 119.527344 118.660156 C 118.308594 120.769531 118.84375 123.464844 120.773438 124.9375 L 127.914062 130.40625 C 129.292969 131.460938 129.90625 133.261719 129.453125 134.933594 C 129.40625 134.964844 129.386719 134.980469 129.386719 134.996094 Z M 129.386719 134.996094 " fill-opacity="1" fill-rule="nonzero"/></g><g clip-path="url(#c659b42704)"><path fill="#002a50" d="M 285.199219 133.277344 C 285.523438 133.34375 285.863281 133.40625 286.21875 133.503906 C 289.578125 134.316406 293.699219 136.148438 296.148438 138.289062 C 297.574219 139.539062 298.824219 140.984375 299.828125 142.539062 C 300.058594 142.898438 300.171875 143.300781 300.171875 143.691406 C 300.171875 144.144531 300.023438 144.601562 299.734375 144.988281 C 299.246094 145.65625 298.417969 145.960938 297.609375 145.816406 L 284.015625 143.269531 L 278.09375 149.773438 L 281.238281 157.984375 L 294.832031 160.546875 C 295.238281 160.628906 295.597656 160.804688 295.886719 161.082031 C 296.179688 161.355469 296.390625 161.699219 296.503906 162.085938 C 296.746094 162.945312 296.421875 163.871094 295.691406 164.40625 C 294.183594 165.492188 292.496094 166.371094 290.714844 167.019531 C 287.664062 168.136719 283.152344 168.332031 279.714844 167.878906 C 279.359375 167.828125 279.015625 167.78125 278.691406 167.714844 C 272.707031 166.597656 268.734375 162.671875 267.0625 157.5625 L 254.507812 157.5625 L 231.472656 143.5625 L 267.710938 143.5625 C 270.613281 136.3125 277.121094 131.753906 285.199219 133.277344 Z M 285.199219 133.277344 " fill-opacity="1" fill-rule="nonzero"/></g><g clip-path="url(#b407d2b59d)"><path fill="#145da0" d="M 89.792969 167.796875 C 89.46875 167.730469 89.125 167.667969 88.769531 167.570312 C 85.410156 166.757812 81.292969 164.925781 78.84375 162.785156 C 77.414062 161.535156 76.164062 160.089844 75.160156 158.535156 C 74.933594 158.175781 74.820312 157.773438 74.820312 157.382812 C 74.820312 156.929688 74.964844 156.472656 75.242188 156.085938 C 75.726562 155.417969 76.554688 155.113281 77.367188 155.257812 L 90.960938 157.804688 L 96.878906 151.300781 L 93.734375 143.109375 L 80.15625 140.542969 C 79.75 140.464844 79.394531 140.285156 79.101562 140.007812 C 78.808594 139.734375 78.597656 139.394531 78.484375 139.003906 C 78.242188 138.144531 78.566406 137.21875 79.296875 136.683594 C 80.804688 135.597656 82.492188 134.722656 84.277344 134.070312 C 87.324219 132.953125 91.835938 132.757812 95.273438 133.210938 C 95.632812 133.261719 95.972656 133.308594 96.296875 133.375 C 102.28125 134.492188 106.257812 138.417969 107.925781 143.53125 L 120.484375 143.53125 L 143.519531 157.527344 L 107.230469 157.527344 C 104.375 164.761719 97.871094 169.320312 89.792969 167.796875 Z M 89.792969 167.796875 " fill-opacity="1" fill-rule="nonzero"/></g><path fill="#145da0" d="M 223.492188 145.980469 L 238.511719 155.113281 L 151.5 155.113281 L 136.476562 145.980469 L 223.492188 145.980469 M 224.171875 143.546875 L 127.765625 143.546875 L 150.800781 157.542969 L 247.207031 157.542969 Z M 224.171875 143.546875 " fill-opacity="1" fill-rule="nonzero"/></svg>