<svg xmlns="http://www.w3.org/2000/svg" xmlns:xlink="http://www.w3.org/1999/xlink" width="270" zoomAndPan="magnify" viewBox="0 0 202.5 53.25" height="71" preserveAspectRatio="xMidYMid meet" version="1.2"><defs><clipPath id="1a12f62f59"><path d="M 75.898438 1.488281 L 104 1.488281 L 104 33 L 75.898438 33 Z M 75.898438 1.488281 "/></clipPath><clipPath id="fe6519de4b"><path d="M 86 7 L 112.878906 7 L 112.878906 37.726562 L 86 37.726562 Z M 86 7 "/></clipPath><clipPath id="cfdc16842c"><path d="M 87 12 L 101 12 L 101 27.308594 L 87 27.308594 Z M 87 12 "/></clipPath></defs><g id="7152b462d1"><g clip-rule="nonzero" clip-path="url(#1a12f62f59)"><path style=" stroke:none;fill-rule:nonzero;fill:#00bf63;fill-opacity:1;" d="M 85.5 26.992188 L 85.734375 25.691406 C 84.496094 23.957031 83.769531 21.832031 83.769531 19.539062 C 83.769531 13.675781 88.523438 8.921875 94.386719 8.921875 C 94.921875 8.921875 95.445312 8.960938 95.957031 9.039062 L 97.460938 8.207031 C 99.332031 7.167969 101.289062 6.523438 103.296875 6.269531 C 102.9375 6.027344 102.570312 5.796875 102.191406 5.585938 L 101.792969 2.605469 C 100.695312 2.125 99.539062 1.746094 98.34375 1.484375 L 96.269531 3.664062 C 95.652344 3.589844 95.023438 3.550781 94.386719 3.550781 C 93.746094 3.550781 93.121094 3.589844 92.5 3.664062 L 90.429688 1.484375 C 89.230469 1.746094 88.074219 2.125 86.976562 2.605469 L 86.578125 5.585938 C 85.476562 6.203125 84.457031 6.949219 83.535156 7.800781 L 80.578125 7.257812 C 79.773438 8.164062 79.058594 9.144531 78.441406 10.195312 L 79.867188 12.839844 C 79.34375 13.96875 78.953125 15.167969 78.703125 16.421875 L 75.996094 17.722656 C 75.9375 18.320312 75.90625 18.925781 75.90625 19.539062 C 75.90625 20.152344 75.9375 20.757812 75.996094 21.355469 L 78.703125 22.65625 C 78.953125 23.90625 79.34375 25.109375 79.867188 26.238281 L 78.441406 28.878906 C 79.058594 29.929688 79.773438 30.914062 80.578125 31.816406 L 83.535156 31.277344 C 83.980469 31.6875 84.449219 32.074219 84.941406 32.4375 C 84.992188 30.597656 85.179688 28.769531 85.5 26.992188 "/></g><g clip-rule="nonzero" clip-path="url(#fe6519de4b)"><path style=" stroke:none;fill-rule:nonzero;fill:#2c3e50;fill-opacity:1;" d="M 112.773438 21.355469 C 112.832031 20.757812 112.863281 20.152344 112.863281 19.539062 C 112.863281 18.925781 112.832031 18.320312 112.773438 17.722656 L 110.066406 16.421875 C 109.820312 15.167969 109.425781 13.96875 108.902344 12.839844 L 110.328125 10.195312 C 109.714844 9.144531 108.996094 8.164062 108.191406 7.257812 L 105.234375 7.800781 C 102.769531 7.800781 100.417969 8.457031 98.261719 9.652344 C 102.207031 11.203125 105 15.042969 105 19.539062 C 105 25.402344 100.25 30.152344 94.386719 30.152344 C 91.578125 30.152344 89.027344 29.066406 87.128906 27.285156 C 86.769531 29.273438 86.578125 31.351562 86.578125 33.492188 L 86.976562 36.46875 C 88.074219 36.953125 89.230469 37.328125 90.429688 37.589844 L 92.5 35.414062 C 93.121094 35.484375 93.746094 35.523438 94.386719 35.523438 C 95.023438 35.523438 95.652344 35.484375 96.269531 35.414062 L 98.34375 37.589844 C 99.539062 37.328125 100.695312 36.953125 101.792969 36.46875 L 102.191406 33.492188 C 103.292969 32.871094 104.3125 32.128906 105.234375 31.277344 L 108.191406 31.816406 C 108.996094 30.914062 109.714844 29.929688 110.328125 28.878906 L 108.902344 26.238281 C 109.425781 25.109375 109.820312 23.90625 110.066406 22.65625 L 112.773438 21.355469 "/></g><g clip-rule="nonzero" clip-path="url(#cfdc16842c)"><path style=" stroke:none;fill-rule:nonzero;fill:#00bf63;fill-opacity:1;" d="M 89.140625 19.359375 C 90.433594 20.652344 91.359375 21.945312 92.28125 23.609375 C 96.597656 15.476562 101.832031 11.777344 100.726562 13.074219 C 97.210938 17.570312 94.808594 22.128906 92.46875 27.304688 C 91.113281 24.839844 89.386719 21.574219 87.292969 20.898438 C 86.675781 20.28125 88.15625 18.804688 89.140625 19.359375 Z M 89.140625 19.359375 "/></g><g style="fill:#2c3e50;fill-opacity:1;"><g transform="translate(6.069885, 31.113384)"><path style="stroke:none" d="M 17.078125 -4.703125 L 6.875 -4.703125 L 4.9375 0 L -0.28125 0 L 9.515625 -21.984375 L 14.546875 -21.984375 L 24.375 0 L 19.03125 0 Z M 15.484375 -8.578125 L 12 -16.984375 L 8.515625 -8.578125 Z M 15.484375 -8.578125 "/></g></g><g style="fill:#2c3e50;fill-opacity:1;"><g transform="translate(29.556198, 31.113384)"><path style="stroke:none" d="M 12.375 0.375 C 9.226562 0.375 6.78125 -0.492188 5.03125 -2.234375 C 3.289062 -3.972656 2.421875 -6.453125 2.421875 -9.671875 L 2.421875 -21.984375 L 7.5 -21.984375 L 7.5 -9.859375 C 7.5 -5.921875 9.132812 -3.953125 12.40625 -3.953125 C 14 -3.953125 15.210938 -4.425781 16.046875 -5.375 C 16.890625 -6.332031 17.3125 -7.828125 17.3125 -9.859375 L 17.3125 -21.984375 L 22.328125 -21.984375 L 22.328125 -9.671875 C 22.328125 -6.453125 21.453125 -3.972656 19.703125 -2.234375 C 17.953125 -0.492188 15.507812 0.375 12.375 0.375 Z M 12.375 0.375 "/></g></g><g style="fill:#2c3e50;fill-opacity:1;"><g transform="translate(53.827508, 31.113384)"><path style="stroke:none" d="M 7.15625 -17.84375 L 0.125 -17.84375 L 0.125 -21.984375 L 19.28125 -21.984375 L 19.28125 -17.84375 L 12.25 -17.84375 L 12.25 0 L 7.15625 0 Z M 7.15625 -17.84375 "/></g></g><g style="fill:#00bf63;fill-opacity:1;"><g transform="translate(116.062068, 30.107044)"><path style="stroke:none" d="M 7.15625 -17.84375 L 0.125 -17.84375 L 0.125 -21.984375 L 19.28125 -21.984375 L 19.28125 -17.84375 L 12.25 -17.84375 L 12.25 0 L 7.15625 0 Z M 7.15625 -17.84375 "/></g></g><g style="fill:#00bf63;fill-opacity:1;"><g transform="translate(135.37241, 30.107044)"><path style="stroke:none" d="M 19.625 -4.078125 L 19.625 0 L 2.609375 0 L 2.609375 -21.984375 L 19.21875 -21.984375 L 19.21875 -17.90625 L 7.65625 -17.90625 L 7.65625 -13.125 L 17.875 -13.125 L 17.875 -9.171875 L 7.65625 -9.171875 L 7.65625 -4.078125 Z M 19.625 -4.078125 "/></g></g><g style="fill:#00bf63;fill-opacity:1;"><g transform="translate(156.346901, 30.107044)"><path style="stroke:none" d="M 9.828125 0.375 C 8.085938 0.375 6.40625 0.140625 4.78125 -0.328125 C 3.164062 -0.796875 1.863281 -1.410156 0.875 -2.171875 L 2.609375 -6 C 3.546875 -5.3125 4.664062 -4.753906 5.96875 -4.328125 C 7.269531 -3.910156 8.566406 -3.703125 9.859375 -3.703125 C 11.304688 -3.703125 12.375 -3.914062 13.0625 -4.34375 C 13.75 -4.78125 14.09375 -5.351562 14.09375 -6.0625 C 14.09375 -6.582031 13.890625 -7.015625 13.484375 -7.359375 C 13.078125 -7.710938 12.550781 -7.992188 11.90625 -8.203125 C 11.269531 -8.410156 10.410156 -8.640625 9.328125 -8.890625 C 7.648438 -9.285156 6.273438 -9.679688 5.203125 -10.078125 C 4.140625 -10.472656 3.222656 -11.109375 2.453125 -11.984375 C 1.691406 -12.867188 1.3125 -14.046875 1.3125 -15.515625 C 1.3125 -16.796875 1.65625 -17.953125 2.34375 -18.984375 C 3.039062 -20.023438 4.082031 -20.847656 5.46875 -21.453125 C 6.863281 -22.054688 8.566406 -22.359375 10.578125 -22.359375 C 11.984375 -22.359375 13.351562 -22.191406 14.6875 -21.859375 C 16.03125 -21.523438 17.207031 -21.039062 18.21875 -20.40625 L 16.640625 -16.546875 C 14.609375 -17.703125 12.578125 -18.28125 10.546875 -18.28125 C 9.128906 -18.28125 8.078125 -18.046875 7.390625 -17.578125 C 6.710938 -17.117188 6.375 -16.515625 6.375 -15.765625 C 6.375 -15.015625 6.765625 -14.453125 7.546875 -14.078125 C 8.335938 -13.710938 9.539062 -13.351562 11.15625 -13 C 12.820312 -12.601562 14.1875 -12.207031 15.25 -11.8125 C 16.320312 -11.414062 17.238281 -10.785156 18 -9.921875 C 18.769531 -9.066406 19.15625 -7.90625 19.15625 -6.4375 C 19.15625 -5.175781 18.800781 -4.023438 18.09375 -2.984375 C 17.394531 -1.953125 16.34375 -1.132812 14.9375 -0.53125 C 13.539062 0.0703125 11.835938 0.375 9.828125 0.375 Z M 9.828125 0.375 "/></g></g><g style="fill:#00bf63;fill-opacity:1;"><g transform="translate(175.971174, 30.107044)"><path style="stroke:none" d="M 7.15625 -17.84375 L 0.125 -17.84375 L 0.125 -21.984375 L 19.28125 -21.984375 L 19.28125 -17.84375 L 12.25 -17.84375 L 12.25 0 L 7.15625 0 Z M 7.15625 -17.84375 "/></g></g><g style="fill:#2c3e50;fill-opacity:1;"><g transform="translate(8.52081, 48.921368)"><path style="stroke:none" d="M 0.921875 -7.734375 L 2.703125 -7.734375 L 2.703125 0 L 0.921875 0 Z M 0.921875 -7.734375 "/></g></g><g style="fill:#2c3e50;fill-opacity:1;"><g transform="translate(12.10843, 48.921368)"><path style="stroke:none" d="M 8.015625 -7.734375 L 8.015625 0 L 6.546875 0 L 2.6875 -4.6875 L 2.6875 0 L 0.921875 0 L 0.921875 -7.734375 L 2.390625 -7.734375 L 6.234375 -3.03125 L 6.234375 -7.734375 Z M 8.015625 -7.734375 "/></g></g><g style="fill:#2c3e50;fill-opacity:1;"><g transform="translate(20.994695, 48.921368)"><path style="stroke:none" d="M 3.453125 0.125 C 2.847656 0.125 2.257812 0.046875 1.6875 -0.109375 C 1.113281 -0.273438 0.65625 -0.492188 0.3125 -0.765625 L 0.921875 -2.109375 C 1.242188 -1.867188 1.632812 -1.671875 2.09375 -1.515625 C 2.550781 -1.367188 3.007812 -1.296875 3.46875 -1.296875 C 3.976562 -1.296875 4.351562 -1.367188 4.59375 -1.515625 C 4.832031 -1.671875 4.953125 -1.875 4.953125 -2.125 C 4.953125 -2.3125 4.878906 -2.460938 4.734375 -2.578125 C 4.597656 -2.703125 4.414062 -2.800781 4.1875 -2.875 C 3.96875 -2.957031 3.664062 -3.039062 3.28125 -3.125 C 2.6875 -3.269531 2.203125 -3.410156 1.828125 -3.546875 C 1.453125 -3.679688 1.128906 -3.90625 0.859375 -4.21875 C 0.597656 -4.53125 0.46875 -4.941406 0.46875 -5.453125 C 0.46875 -5.898438 0.585938 -6.304688 0.828125 -6.671875 C 1.066406 -7.035156 1.429688 -7.320312 1.921875 -7.53125 C 2.410156 -7.75 3.007812 -7.859375 3.71875 -7.859375 C 4.21875 -7.859375 4.703125 -7.800781 5.171875 -7.6875 C 5.640625 -7.570312 6.050781 -7.40625 6.40625 -7.1875 L 5.859375 -5.828125 C 5.140625 -6.222656 4.425781 -6.421875 3.71875 -6.421875 C 3.207031 -6.421875 2.832031 -6.335938 2.59375 -6.171875 C 2.363281 -6.015625 2.25 -5.804688 2.25 -5.546875 C 2.25 -5.273438 2.382812 -5.078125 2.65625 -4.953125 C 2.9375 -4.828125 3.359375 -4.703125 3.921875 -4.578125 C 4.515625 -4.429688 5 -4.285156 5.375 -4.140625 C 5.75 -4.003906 6.066406 -3.785156 6.328125 -3.484375 C 6.597656 -3.179688 6.734375 -2.773438 6.734375 -2.265625 C 6.734375 -1.828125 6.609375 -1.425781 6.359375 -1.0625 C 6.117188 -0.695312 5.75 -0.40625 5.25 -0.1875 C 4.757812 0.0195312 4.160156 0.125 3.453125 0.125 Z M 3.453125 0.125 "/></g></g><g style="fill:#2c3e50;fill-opacity:1;"><g transform="translate(28.004353, 48.921368)"><path style="stroke:none" d="M 4.265625 -7.734375 C 4.953125 -7.734375 5.546875 -7.617188 6.046875 -7.390625 C 6.554688 -7.160156 6.945312 -6.832031 7.21875 -6.40625 C 7.488281 -5.988281 7.625 -5.492188 7.625 -4.921875 C 7.625 -4.359375 7.488281 -3.863281 7.21875 -3.4375 C 6.945312 -3.019531 6.554688 -2.695312 6.046875 -2.46875 C 5.546875 -2.238281 4.953125 -2.125 4.265625 -2.125 L 2.703125 -2.125 L 2.703125 0 L 0.921875 0 L 0.921875 -7.734375 Z M 4.171875 -3.59375 C 4.703125 -3.59375 5.109375 -3.707031 5.390625 -3.9375 C 5.671875 -4.164062 5.8125 -4.492188 5.8125 -4.921875 C 5.8125 -5.359375 5.671875 -5.691406 5.390625 -5.921875 C 5.109375 -6.160156 4.703125 -6.28125 4.171875 -6.28125 L 2.703125 -6.28125 L 2.703125 -3.59375 Z M 4.171875 -3.59375 "/></g></g><g style="fill:#2c3e50;fill-opacity:1;"><g transform="translate(35.941256, 48.921368)"><path style="stroke:none" d="M 6.90625 -1.4375 L 6.90625 0 L 0.921875 0 L 0.921875 -7.734375 L 6.765625 -7.734375 L 6.765625 -6.296875 L 2.703125 -6.296875 L 2.703125 -4.625 L 6.28125 -4.625 L 6.28125 -3.21875 L 2.703125 -3.21875 L 2.703125 -1.4375 Z M 6.90625 -1.4375 "/></g></g><g style="fill:#2c3e50;fill-opacity:1;"><g transform="translate(43.293124, 48.921368)"><path style="stroke:none" d="M 4.625 0.125 C 3.832031 0.125 3.117188 -0.0390625 2.484375 -0.375 C 1.847656 -0.71875 1.347656 -1.191406 0.984375 -1.796875 C 0.617188 -2.410156 0.4375 -3.097656 0.4375 -3.859375 C 0.4375 -4.628906 0.617188 -5.316406 0.984375 -5.921875 C 1.347656 -6.535156 1.847656 -7.007812 2.484375 -7.34375 C 3.117188 -7.6875 3.832031 -7.859375 4.625 -7.859375 C 5.300781 -7.859375 5.90625 -7.738281 6.4375 -7.5 C 6.976562 -7.269531 7.4375 -6.9375 7.8125 -6.5 L 6.65625 -5.4375 C 6.132812 -6.039062 5.488281 -6.34375 4.71875 -6.34375 C 4.238281 -6.34375 3.8125 -6.238281 3.4375 -6.03125 C 3.0625 -5.820312 2.769531 -5.523438 2.5625 -5.140625 C 2.351562 -4.765625 2.25 -4.335938 2.25 -3.859375 C 2.25 -3.378906 2.351562 -2.953125 2.5625 -2.578125 C 2.769531 -2.203125 3.0625 -1.910156 3.4375 -1.703125 C 3.8125 -1.492188 4.238281 -1.390625 4.71875 -1.390625 C 5.488281 -1.390625 6.132812 -1.695312 6.65625 -2.3125 L 7.8125 -1.25 C 7.4375 -0.800781 6.976562 -0.457031 6.4375 -0.21875 C 5.894531 0.0078125 5.289062 0.125 4.625 0.125 Z M 4.625 0.125 "/></g></g><g style="fill:#2c3e50;fill-opacity:1;"><g transform="translate(51.274196, 48.921368)"><path style="stroke:none" d="M 2.515625 -6.28125 L 0.046875 -6.28125 L 0.046875 -7.734375 L 6.78125 -7.734375 L 6.78125 -6.28125 L 4.3125 -6.28125 L 4.3125 0 L 2.515625 0 Z M 3.421875 0.8125 C 3.660156 0.8125 3.847656 0.867188 3.984375 0.984375 C 4.117188 1.109375 4.1875 1.269531 4.1875 1.46875 C 4.1875 1.695312 4.117188 1.9375 3.984375 2.1875 L 3.59375 2.9375 L 2.796875 2.9375 L 3.0625 2.0625 C 2.9375 2.007812 2.835938 1.929688 2.765625 1.828125 C 2.691406 1.734375 2.65625 1.613281 2.65625 1.46875 C 2.65625 1.269531 2.722656 1.109375 2.859375 0.984375 C 2.992188 0.867188 3.179688 0.8125 3.421875 0.8125 Z M 3.421875 0.8125 "/></g></g><g style="fill:#2c3e50;fill-opacity:1;"><g transform="translate(58.063082, 48.921368)"><path style="stroke:none" d="M 0.921875 -7.734375 L 2.703125 -7.734375 L 2.703125 0 L 0.921875 0 Z M 0.921875 -7.734375 "/></g></g><g style="fill:#2c3e50;fill-opacity:1;"><g transform="translate(61.650702, 48.921368)"><path style="stroke:none" d="M 6.90625 -1.4375 L 6.90625 0 L 0.921875 0 L 0.921875 -7.734375 L 6.765625 -7.734375 L 6.765625 -6.296875 L 2.703125 -6.296875 L 2.703125 -4.625 L 6.28125 -4.625 L 6.28125 -3.21875 L 2.703125 -3.21875 L 2.703125 -1.4375 Z M 6.90625 -1.4375 "/></g></g><g style="fill:#2c3e50;fill-opacity:1;"><g transform="translate(69.024648, 48.921368)"><path style="stroke:none" d=""/></g></g><g style="fill:#2c3e50;fill-opacity:1;"><g transform="translate(72.115521, 48.921368)"><path style="stroke:none" d="M 2.515625 -6.28125 L 0.046875 -6.28125 L 0.046875 -7.734375 L 6.78125 -7.734375 L 6.78125 -6.28125 L 4.3125 -6.28125 L 4.3125 0 L 2.515625 0 Z M 2.515625 -6.28125 "/></g></g><g style="fill:#2c3e50;fill-opacity:1;"><g transform="translate(78.904407, 48.921368)"><path style="stroke:none" d="M 6.90625 -1.4375 L 6.90625 0 L 0.921875 0 L 0.921875 -7.734375 L 6.765625 -7.734375 L 6.765625 -6.296875 L 2.703125 -6.296875 L 2.703125 -4.625 L 6.28125 -4.625 L 6.28125 -3.21875 L 2.703125 -3.21875 L 2.703125 -1.4375 Z M 6.90625 -1.4375 "/></g></g><g style="fill:#2c3e50;fill-opacity:1;"><g transform="translate(86.278353, 48.921368)"><path style="stroke:none" d="M 8.015625 -7.734375 L 8.015625 0 L 6.21875 0 L 6.21875 -3.171875 L 2.703125 -3.171875 L 2.703125 0 L 0.921875 0 L 0.921875 -7.734375 L 2.703125 -7.734375 L 2.703125 -4.6875 L 6.21875 -4.6875 L 6.21875 -7.734375 Z M 8.015625 -7.734375 "/></g></g><g style="fill:#2c3e50;fill-opacity:1;"><g transform="translate(95.164618, 48.921368)"><path style="stroke:none" d="M 8.015625 -7.734375 L 8.015625 0 L 6.546875 0 L 2.6875 -4.6875 L 2.6875 0 L 0.921875 0 L 0.921875 -7.734375 L 2.390625 -7.734375 L 6.234375 -3.03125 L 6.234375 -7.734375 Z M 8.015625 -7.734375 "/></g></g><g style="fill:#2c3e50;fill-opacity:1;"><g transform="translate(104.050883, 48.921368)"><path style="stroke:none" d="M 0.921875 -7.734375 L 2.703125 -7.734375 L 2.703125 0 L 0.921875 0 Z M 0.921875 -7.734375 "/></g></g><g style="fill:#2c3e50;fill-opacity:1;"><g transform="translate(107.638503, 48.921368)"><path style="stroke:none" d="M 4.625 0.125 C 3.832031 0.125 3.117188 -0.0390625 2.484375 -0.375 C 1.847656 -0.71875 1.347656 -1.191406 0.984375 -1.796875 C 0.617188 -2.410156 0.4375 -3.097656 0.4375 -3.859375 C 0.4375 -4.628906 0.617188 -5.316406 0.984375 -5.921875 C 1.347656 -6.535156 1.847656 -7.007812 2.484375 -7.34375 C 3.117188 -7.6875 3.832031 -7.859375 4.625 -7.859375 C 5.300781 -7.859375 5.90625 -7.738281 6.4375 -7.5 C 6.976562 -7.269531 7.4375 -6.9375 7.8125 -6.5 L 6.65625 -5.4375 C 6.132812 -6.039062 5.488281 -6.34375 4.71875 -6.34375 C 4.238281 -6.34375 3.8125 -6.238281 3.4375 -6.03125 C 3.0625 -5.820312 2.769531 -5.523438 2.5625 -5.140625 C 2.351562 -4.765625 2.25 -4.335938 2.25 -3.859375 C 2.25 -3.378906 2.351562 -2.953125 2.5625 -2.578125 C 2.769531 -2.203125 3.0625 -1.910156 3.4375 -1.703125 C 3.8125 -1.492188 4.238281 -1.390625 4.71875 -1.390625 C 5.488281 -1.390625 6.132812 -1.695312 6.65625 -2.3125 L 7.8125 -1.25 C 7.4375 -0.800781 6.976562 -0.457031 6.4375 -0.21875 C 5.894531 0.0078125 5.289062 0.125 4.625 0.125 Z M 4.625 0.125 "/></g></g><g style="fill:#2c3e50;fill-opacity:1;"><g transform="translate(115.542294, 48.921368)"><path style="stroke:none" d="M 6.015625 -1.65625 L 2.421875 -1.65625 L 1.734375 0 L -0.09375 0 L 3.34375 -7.734375 L 5.109375 -7.734375 L 8.578125 0 L 6.6875 0 Z M 5.453125 -3.015625 L 4.21875 -5.96875 L 3 -3.015625 Z M 4.234375 -8.28125 C 3.648438 -8.28125 3.171875 -8.429688 2.796875 -8.734375 C 2.421875 -9.035156 2.222656 -9.441406 2.203125 -9.953125 L 3.28125 -9.953125 C 3.289062 -9.710938 3.382812 -9.519531 3.5625 -9.375 C 3.738281 -9.238281 3.960938 -9.171875 4.234375 -9.171875 C 4.492188 -9.171875 4.710938 -9.238281 4.890625 -9.375 C 5.078125 -9.519531 5.175781 -9.710938 5.1875 -9.953125 L 6.265625 -9.953125 C 6.242188 -9.441406 6.046875 -9.035156 5.671875 -8.734375 C 5.296875 -8.429688 4.816406 -8.28125 4.234375 -8.28125 Z M 4.234375 -8.28125 "/></g></g><g style="fill:#2c3e50;fill-opacity:1;"><g transform="translate(123.964924, 48.921368)"><path style="stroke:none" d=""/></g></g><g style="fill:#2c3e50;fill-opacity:1;"><g transform="translate(127.055797, 48.921368)"><path style="stroke:none" d="M 4.265625 -7.734375 C 4.953125 -7.734375 5.546875 -7.617188 6.046875 -7.390625 C 6.554688 -7.160156 6.945312 -6.832031 7.21875 -6.40625 C 7.488281 -5.988281 7.625 -5.492188 7.625 -4.921875 C 7.625 -4.359375 7.488281 -3.863281 7.21875 -3.4375 C 6.945312 -3.019531 6.554688 -2.695312 6.046875 -2.46875 C 5.546875 -2.238281 4.953125 -2.125 4.265625 -2.125 L 2.703125 -2.125 L 2.703125 0 L 0.921875 0 L 0.921875 -7.734375 Z M 4.171875 -3.59375 C 4.703125 -3.59375 5.109375 -3.707031 5.390625 -3.9375 C 5.671875 -4.164062 5.8125 -4.492188 5.8125 -4.921875 C 5.8125 -5.359375 5.671875 -5.691406 5.390625 -5.921875 C 5.109375 -6.160156 4.703125 -6.28125 4.171875 -6.28125 L 2.703125 -6.28125 L 2.703125 -3.59375 Z M 4.171875 -3.59375 "/></g></g><g style="fill:#2c3e50;fill-opacity:1;"><g transform="translate(134.9927, 48.921368)"><path style="stroke:none" d="M 6.90625 -1.4375 L 6.90625 0 L 0.921875 0 L 0.921875 -7.734375 L 6.765625 -7.734375 L 6.765625 -6.296875 L 2.703125 -6.296875 L 2.703125 -4.625 L 6.28125 -4.625 L 6.28125 -3.21875 L 2.703125 -3.21875 L 2.703125 -1.4375 Z M 6.90625 -1.4375 "/></g></g><g style="fill:#2c3e50;fill-opacity:1;"><g transform="translate(142.366646, 48.921368)"><path style="stroke:none" d="M 5.84375 0 L 4.359375 -2.15625 L 2.703125 -2.15625 L 2.703125 0 L 0.921875 0 L 0.921875 -7.734375 L 4.265625 -7.734375 C 4.953125 -7.734375 5.546875 -7.617188 6.046875 -7.390625 C 6.554688 -7.160156 6.945312 -6.832031 7.21875 -6.40625 C 7.488281 -5.988281 7.625 -5.492188 7.625 -4.921875 C 7.625 -4.347656 7.484375 -3.851562 7.203125 -3.4375 C 6.929688 -3.019531 6.539062 -2.703125 6.03125 -2.484375 L 7.765625 0 Z M 5.8125 -4.921875 C 5.8125 -5.359375 5.671875 -5.691406 5.390625 -5.921875 C 5.109375 -6.160156 4.703125 -6.28125 4.171875 -6.28125 L 2.703125 -6.28125 L 2.703125 -3.578125 L 4.171875 -3.578125 C 4.703125 -3.578125 5.109375 -3.691406 5.390625 -3.921875 C 5.671875 -4.160156 5.8125 -4.492188 5.8125 -4.921875 Z M 5.8125 -4.921875 "/></g></g><g style="fill:#2c3e50;fill-opacity:1;"><g transform="translate(150.447078, 48.921368)"><path style="stroke:none" d="M 0.921875 -7.734375 L 2.703125 -7.734375 L 2.703125 0 L 0.921875 0 Z M 0.921875 -7.734375 "/></g></g><g style="fill:#2c3e50;fill-opacity:1;"><g transform="translate(154.034698, 48.921368)"><path style="stroke:none" d="M 4.65625 0.125 C 3.851562 0.125 3.128906 -0.046875 2.484375 -0.390625 C 1.847656 -0.734375 1.347656 -1.207031 0.984375 -1.8125 C 0.617188 -2.425781 0.4375 -3.109375 0.4375 -3.859375 C 0.4375 -4.617188 0.617188 -5.300781 0.984375 -5.90625 C 1.347656 -6.519531 1.847656 -7 2.484375 -7.34375 C 3.128906 -7.6875 3.851562 -7.859375 4.65625 -7.859375 C 5.457031 -7.859375 6.175781 -7.6875 6.8125 -7.34375 C 7.457031 -7 7.960938 -6.519531 8.328125 -5.90625 C 8.703125 -5.300781 8.890625 -4.617188 8.890625 -3.859375 C 8.890625 -3.109375 8.703125 -2.425781 8.328125 -1.8125 C 7.960938 -1.207031 7.457031 -0.734375 6.8125 -0.390625 C 6.175781 -0.046875 5.457031 0.125 4.65625 0.125 Z M 4.65625 -1.390625 C 5.113281 -1.390625 5.523438 -1.492188 5.890625 -1.703125 C 6.265625 -1.910156 6.554688 -2.203125 6.765625 -2.578125 C 6.972656 -2.953125 7.078125 -3.378906 7.078125 -3.859375 C 7.078125 -4.335938 6.972656 -4.765625 6.765625 -5.140625 C 6.554688 -5.523438 6.265625 -5.820312 5.890625 -6.03125 C 5.523438 -6.238281 5.113281 -6.34375 4.65625 -6.34375 C 4.207031 -6.34375 3.796875 -6.238281 3.421875 -6.03125 C 3.054688 -5.820312 2.769531 -5.523438 2.5625 -5.140625 C 2.351562 -4.765625 2.25 -4.335938 2.25 -3.859375 C 2.25 -3.378906 2.351562 -2.953125 2.5625 -2.578125 C 2.769531 -2.203125 3.054688 -1.910156 3.421875 -1.703125 C 3.796875 -1.492188 4.207031 -1.390625 4.65625 -1.390625 Z M 4.65625 -1.390625 "/></g></g><g style="fill:#2c3e50;fill-opacity:1;"><g transform="translate(163.318363, 48.921368)"><path style="stroke:none" d="M 0.921875 -7.734375 L 4.4375 -7.734375 C 5.269531 -7.734375 6.007812 -7.570312 6.65625 -7.25 C 7.300781 -6.925781 7.800781 -6.472656 8.15625 -5.890625 C 8.507812 -5.316406 8.6875 -4.640625 8.6875 -3.859375 C 8.6875 -3.085938 8.507812 -2.410156 8.15625 -1.828125 C 7.800781 -1.253906 7.300781 -0.804688 6.65625 -0.484375 C 6.007812 -0.160156 5.269531 0 4.4375 0 L 0.921875 0 Z M 4.34375 -1.46875 C 5.113281 -1.46875 5.726562 -1.679688 6.1875 -2.109375 C 6.644531 -2.546875 6.875 -3.128906 6.875 -3.859375 C 6.875 -4.597656 6.644531 -5.179688 6.1875 -5.609375 C 5.726562 -6.046875 5.113281 -6.265625 4.34375 -6.265625 L 2.703125 -6.265625 L 2.703125 -1.46875 Z M 4.34375 -1.46875 "/></g></g><g style="fill:#2c3e50;fill-opacity:1;"><g transform="translate(172.403322, 48.921368)"><path style="stroke:none" d="M 0.921875 -7.734375 L 2.703125 -7.734375 L 2.703125 0 L 0.921875 0 Z M 0.921875 -7.734375 "/></g></g><g style="fill:#2c3e50;fill-opacity:1;"><g transform="translate(175.990942, 48.921368)"><path style="stroke:none" d="M 4.625 0.125 C 3.832031 0.125 3.117188 -0.0390625 2.484375 -0.375 C 1.847656 -0.71875 1.347656 -1.191406 0.984375 -1.796875 C 0.617188 -2.410156 0.4375 -3.097656 0.4375 -3.859375 C 0.4375 -4.628906 0.617188 -5.316406 0.984375 -5.921875 C 1.347656 -6.535156 1.847656 -7.007812 2.484375 -7.34375 C 3.117188 -7.6875 3.832031 -7.859375 4.625 -7.859375 C 5.300781 -7.859375 5.90625 -7.738281 6.4375 -7.5 C 6.976562 -7.269531 7.4375 -6.9375 7.8125 -6.5 L 6.65625 -5.4375 C 6.132812 -6.039062 5.488281 -6.34375 4.71875 -6.34375 C 4.238281 -6.34375 3.8125 -6.238281 3.4375 -6.03125 C 3.0625 -5.820312 2.769531 -5.523438 2.5625 -5.140625 C 2.351562 -4.765625 2.25 -4.335938 2.25 -3.859375 C 2.25 -3.378906 2.351562 -2.953125 2.5625 -2.578125 C 2.769531 -2.203125 3.0625 -1.910156 3.4375 -1.703125 C 3.8125 -1.492188 4.238281 -1.390625 4.71875 -1.390625 C 5.488281 -1.390625 6.132812 -1.695312 6.65625 -2.3125 L 7.8125 -1.25 C 7.4375 -0.800781 6.976562 -0.457031 6.4375 -0.21875 C 5.894531 0.0078125 5.289062 0.125 4.625 0.125 Z M 4.625 0.125 "/></g></g><g style="fill:#2c3e50;fill-opacity:1;"><g transform="translate(183.894734, 48.921368)"><path style="stroke:none" d="M 6.015625 -1.65625 L 2.421875 -1.65625 L 1.734375 0 L -0.09375 0 L 3.34375 -7.734375 L 5.109375 -7.734375 L 8.578125 0 L 6.6875 0 Z M 5.453125 -3.015625 L 4.21875 -5.96875 L 3 -3.015625 Z M 4.234375 -8.28125 C 3.648438 -8.28125 3.171875 -8.429688 2.796875 -8.734375 C 2.421875 -9.035156 2.222656 -9.441406 2.203125 -9.953125 L 3.28125 -9.953125 C 3.289062 -9.710938 3.382812 -9.519531 3.5625 -9.375 C 3.738281 -9.238281 3.960938 -9.171875 4.234375 -9.171875 C 4.492188 -9.171875 4.710938 -9.238281 4.890625 -9.375 C 5.078125 -9.519531 5.175781 -9.710938 5.1875 -9.953125 L 6.265625 -9.953125 C 6.242188 -9.441406 6.046875 -9.035156 5.671875 -8.734375 C 5.296875 -8.429688 4.816406 -8.28125 4.234375 -8.28125 Z M 4.234375 -8.28125 "/></g></g></g></svg>