<svg xmlns="http://www.w3.org/2000/svg" xmlns:xlink="http://www.w3.org/1999/xlink" width="500" zoomAndPan="magnify" viewBox="0 0 375 374.999991" height="500" preserveAspectRatio="xMidYMid meet" version="1.0"><defs><g/><clipPath id="5ab988156d"><path d="M 40 16 L 335.359375 16 L 335.359375 309.414062 L 40 309.414062 Z M 40 16 " clip-rule="nonzero"/></clipPath></defs><g clip-path="url(#5ab988156d)"><path fill="#e0c184" d="M 226.03125 41.035156 C 239.144531 56.632812 243.453125 83.078125 238.105469 101.859375 C 215.34375 181.789062 145.433594 144.59375 131.882812 193.34375 C 151.015625 174.199219 173.582031 181.761719 196.433594 171.894531 C 191.496094 179.195312 186.972656 186.644531 183.402344 194.492188 L 183.402344 194.488281 C 171.726562 216.886719 150.394531 228.484375 148.902344 251.40625 C 148.027344 264.832031 153.464844 278.453125 167.65625 284.847656 C 158.835938 271.953125 158.238281 250.5625 175.515625 232.671875 C 175.765625 238.703125 176.710938 245.039062 178.480469 251.742188 C 184.894531 276.066406 205.921875 291.050781 228.382812 294.347656 C 257.082031 298.558594 277.550781 283.363281 296.074219 263.425781 C 320.453125 237.191406 335.359375 202.054688 335.359375 163.4375 C 335.359375 82.445312 269.648438 16.386719 188.136719 16.386719 C 185.777344 16.386719 183.425781 16.441406 181.09375 16.550781 C 209.65625 21.277344 255.246094 35.875 283.914062 66.394531 C 310.058594 92.140625 324.558594 126.914062 324.558594 163.4375 C 324.558594 199.078125 310.855469 231.523438 288.425781 255.804688 C 272.511719 273.035156 252.988281 286.480469 228.1875 280.714844 C 195.101562 273.019531 178.558594 229.820312 200.246094 192.359375 C 211.066406 173.675781 228.257812 160.765625 241.269531 138.453125 C 248.152344 126.65625 252.96875 113.496094 255.714844 98.980469 C 259.535156 124.503906 251.878906 144.300781 232.460938 166.992188 C 204.859375 196.121094 198.976562 247.859375 225.53125 261.101562 C 217.824219 244.066406 223.074219 203.027344 263.019531 191.933594 C 276.53125 188.507812 288.769531 188.445312 294.898438 184.90625 C 300.820312 181.484375 301.691406 175.296875 298.550781 169.777344 C 294.824219 164.402344 294.550781 162.710938 295.382812 161.703125 C 299.140625 157.144531 298.195312 152.152344 293.175781 150.578125 C 296.359375 147.511719 296.246094 144.140625 292.429688 141 C 286.097656 135.113281 287.945312 134.226562 292.707031 129.964844 C 296.539062 126.253906 297.65625 122.808594 294.09375 120.722656 C 288.117188 117.21875 280.421875 112.074219 274.390625 108.542969 C 269.4375 105.785156 267.679688 100.957031 269.566406 93.90625 C 275.664062 92.425781 279.136719 90.140625 280.058594 86.304688 C 278.042969 89.011719 274.230469 90.480469 270.355469 90.417969 C 272.394531 75.09375 252.617188 45.613281 226.03125 41.035156 Z M 227.378906 76.792969 C 226.832031 10.949219 131.226562 23.328125 98.628906 46.660156 C 129.617188 36.25 157.949219 39.617188 180.410156 49.726562 C 140.210938 57.417969 108.144531 60.199219 84.210938 58.074219 C 115.902344 73.207031 146.679688 76.570312 180.980469 70.890625 C 194.402344 68.671875 217.863281 57.867188 227.382812 76.792969 Z M 89.59375 88.785156 C 78.902344 89.421875 65.199219 88.058594 64.027344 75.316406 L 63.976562 74.75 L 64.542969 74.589844 C 75.316406 71.550781 87.316406 77.269531 90.242188 87.917969 L 90.464844 88.734375 Z M 180.238281 104.671875 C 180.101562 115.175781 170.578125 123.941406 159.78125 124.1875 L 159.152344 124.203125 L 159.054688 123.605469 C 157.078125 111.578125 169.273438 106.449219 179.34375 103.996094 L 180.25 103.773438 Z M 151.460938 106.949219 C 149.175781 117.160156 138.289062 124.480469 127.566406 122.835938 L 126.933594 122.738281 L 126.964844 122.121094 C 127.5625 109.960938 140.160156 106.84375 150.707031 106.113281 L 151.660156 106.046875 Z M 204.71875 96.335938 C 195.40625 95.859375 183.726562 93.328125 184.214844 82.167969 L 184.238281 81.609375 L 184.808594 81.515625 C 194.460938 79.914062 204.1875 86.007812 205.46875 95.554688 L 205.578125 96.378906 Z M 205.773438 98.574219 C 206.53125 108.148438 198.355469 116.445312 188.609375 117.265625 L 188 117.316406 L 187.847656 116.746094 C 185.023438 106.015625 195.960938 100.6875 204.839844 97.964844 L 205.703125 97.703125 L 205.773438 98.570312 Z M 225.042969 87.636719 C 217.183594 87.863281 207.226562 86.472656 206.722656 77.121094 L 206.691406 76.558594 L 207.257812 76.417969 C 215.210938 74.425781 223.875 78.921875 225.71875 86.792969 L 225.914062 87.609375 Z M 226.160156 91.285156 C 227.230469 99.28125 220.746094 106.574219 212.597656 107.589844 L 212 107.664062 L 211.820312 107.109375 C 208.960938 98.179688 217.804688 93.332031 225.203125 90.726562 L 226.046875 90.425781 Z M 179.523438 101.917969 C 169.304688 100.8125 157.042969 97.253906 158.535156 84.964844 L 158.601562 84.421875 L 159.164062 84.359375 C 169.898438 83.144531 179.777344 90.664062 180.320312 101.195312 L 180.363281 102.007812 Z M 151.09375 104.226562 C 141.28125 100.457031 131.167969 93.886719 136.027344 82.460938 L 136.238281 81.964844 L 136.792969 82.039062 C 147.5625 83.535156 154.507812 93.566406 152.054688 103.738281 L 151.867188 104.523438 Z M 125.5 100.492188 C 116.894531 96.160156 108.902344 89.382812 114.304688 79.507812 L 114.566406 79.03125 L 115.109375 79.160156 C 124.773438 81.421875 129.65625 91.226562 126.511719 100.101562 L 126.242188 100.863281 Z M 124.613281 104.5 C 119.632812 112.5625 108.207031 116.226562 99.4375 111.859375 L 98.863281 111.570312 L 99.101562 110.992188 C 103.296875 100.757812 114.753906 101.238281 124.167969 103.472656 L 125.109375 103.695312 Z M 102.855469 92.117188 C 95.375 87.691406 88.84375 81.144531 94.363281 72.640625 L 94.65625 72.1875 L 95.1875 72.347656 C 103.730469 74.9375 107.34375 84.035156 103.890625 91.800781 L 103.5625 92.535156 Z M 102.554688 95.09375 C 98.445312 102.476562 88.320312 106.402344 80.234375 102.886719 L 79.636719 102.625 L 79.851562 102.03125 C 83.203125 92.703125 93.457031 92.523438 102.058594 94.089844 L 103.019531 94.265625 Z M 169.925781 309.378906 C 133.800781 306.28125 98.332031 283.917969 81.785156 265.125 C 53.101562 235.214844 73.441406 199.96875 81.78125 166.90625 C 88.003906 142.242188 80.007812 132.644531 70.929688 132.34375 C 63.261719 132.09375 54.871094 137 53.0625 160.019531 C 51.503906 179.828125 54.457031 205.097656 61.75 238.933594 C 48.054688 216.632812 39.875 185.765625 40.757812 159.792969 C 39.859375 90.6875 139.394531 108.136719 128.816406 172.363281 C 126.875 184.164062 122.804688 196.894531 119.761719 210 C 130.007812 200.984375 146.660156 193.570312 166.4375 196.480469 C 131.78125 207.507812 103.390625 245.453125 129.753906 279.035156 C 138.082031 289.636719 150.871094 299.855469 169.925781 309.378906 Z M 108.199219 273.875 C 72.4375 225.878906 156.351562 151.109375 91.421875 126.507812 C 98.863281 137.054688 100.476562 151.890625 96.265625 171.007812 C 86.085938 217.210938 64.035156 241.921875 108.199219 273.875 Z M 108.199219 273.875 " fill-opacity="1" fill-rule="evenodd"/></g><g fill="#e0c184" fill-opacity="1"><g transform="translate(33.884768, 366.249967)"><g><path d="M 3.71875 0 L 3.71875 -28.5625 L 15.90625 -28.5625 C 17.65625 -28.5625 19.140625 -28.28125 20.359375 -27.71875 C 21.578125 -27.164062 22.5 -26.378906 23.125 -25.359375 C 23.75 -24.335938 24.0625 -23.128906 24.0625 -21.734375 C 24.0625 -20.472656 23.753906 -19.359375 23.140625 -18.390625 C 22.535156 -17.429688 21.660156 -16.660156 20.515625 -16.078125 L 20.515625 -15.671875 C 22.304688 -15.203125 23.691406 -14.347656 24.671875 -13.109375 C 25.648438 -11.867188 26.140625 -10.351562 26.140625 -8.5625 C 26.140625 -5.820312 25.3125 -3.707031 23.65625 -2.21875 C 22.007812 -0.738281 19.566406 0 16.328125 0 Z M 14.734375 -17.171875 C 17.359375 -17.171875 18.671875 -18.351562 18.671875 -20.71875 C 18.671875 -21.9375 18.34375 -22.835938 17.6875 -23.421875 C 17.039062 -24.015625 16.054688 -24.3125 14.734375 -24.3125 L 9.359375 -24.3125 L 9.359375 -17.171875 Z M 15.765625 -4.46875 C 18.878906 -4.46875 20.4375 -5.882812 20.4375 -8.71875 C 20.4375 -11.550781 18.878906 -12.96875 15.765625 -12.96875 L 9.359375 -12.96875 L 9.359375 -4.46875 Z M 15.765625 -4.46875 "/></g></g></g><g fill="#e0c184" fill-opacity="1"><g transform="translate(61.811726, 366.249967)"><g><path d="M 9.359375 -12.546875 L 9.359375 -4.734375 L 22.984375 -4.734375 L 22.984375 0 L 3.71875 0 L 3.71875 -28.5625 L 22.671875 -28.5625 L 22.671875 -23.828125 L 9.359375 -23.828125 L 9.359375 -17.15625 L 21 -17.15625 L 21 -12.546875 Z M 9.359375 -12.546875 "/></g></g></g><g fill="#e0c184" fill-opacity="1"><g transform="translate(86.360114, 366.249967)"><g><path d="M 27.40625 0 L 21.46875 0 L 19.3125 -6.578125 L 8.375 -6.578125 L 6.234375 0 L 0.4375 0 L 10.296875 -28.5625 L 17.546875 -28.5625 Z M 13.578125 -22.59375 L 9.90625 -11.328125 L 17.75 -11.328125 L 14.0625 -22.59375 Z M 13.578125 -22.59375 "/></g></g></g><g fill="#e0c184" fill-opacity="1"><g transform="translate(114.189432, 366.249967)"><g><path d="M 15.140625 0.40625 C 11.203125 0.40625 8.28125 -0.523438 6.375 -2.390625 C 4.476562 -4.265625 3.53125 -7.035156 3.53125 -10.703125 L 3.53125 -28.5625 L 9.0625 -28.5625 L 9.0625 -10.75 C 9.0625 -8.664062 9.5625 -7.101562 10.5625 -6.0625 C 11.570312 -5.019531 13.097656 -4.5 15.140625 -4.5 C 19.191406 -4.5 21.21875 -6.582031 21.21875 -10.75 L 21.21875 -28.5625 L 26.734375 -28.5625 L 26.734375 -10.703125 C 26.734375 -7.035156 25.78125 -4.265625 23.875 -2.390625 C 21.976562 -0.523438 19.066406 0.40625 15.140625 0.40625 Z M 15.140625 0.40625 "/></g></g></g><g fill="#e0c184" fill-opacity="1"><g transform="translate(144.45991, 366.249967)"><g><path d="M 22.890625 -28.5625 L 22.890625 -23.8125 L 14.65625 -23.8125 L 14.65625 0 L 9.03125 0 L 9.03125 -23.8125 L 0.78125 -23.8125 L 0.78125 -28.5625 Z M 22.890625 -28.5625 "/></g></g></g><g fill="#e0c184" fill-opacity="1"><g transform="translate(168.129472, 366.249967)"><g><path d="M 15.640625 0 L 10 0 L 10 -11.21875 L 0.140625 -28.5625 L 6.1875 -28.5625 L 12.71875 -17.328125 L 13.203125 -17.328125 L 19.59375 -28.5625 L 25.515625 -28.5625 L 15.640625 -11.21875 Z M 15.640625 0 "/></g></g></g><g fill="#e0c184" fill-opacity="1"><g transform="translate(193.771503, 366.249967)"><g/></g></g><g fill="#e0c184" fill-opacity="1"><g transform="translate(203.204181, 366.249967)"><g><path d="M 12.65625 0.40625 C 10.675781 0.40625 8.914062 0.160156 7.375 -0.328125 C 5.832031 -0.816406 4.546875 -1.457031 3.515625 -2.25 C 2.484375 -3.039062 1.695312 -3.910156 1.15625 -4.859375 L 4.265625 -8.65625 L 4.75 -8.65625 C 5.601562 -7.375 6.691406 -6.351562 8.015625 -5.59375 C 9.335938 -4.84375 10.882812 -4.46875 12.65625 -4.46875 C 14.164062 -4.46875 15.304688 -4.785156 16.078125 -5.421875 C 16.847656 -6.066406 17.234375 -6.945312 17.234375 -8.0625 C 17.234375 -8.738281 17.109375 -9.304688 16.859375 -9.765625 C 16.609375 -10.222656 16.195312 -10.613281 15.625 -10.9375 C 15.050781 -11.257812 14.273438 -11.539062 13.296875 -11.78125 L 9.625 -12.625 C 7.0625 -13.207031 5.148438 -14.175781 3.890625 -15.53125 C 2.640625 -16.894531 2.015625 -18.664062 2.015625 -20.84375 C 2.015625 -22.457031 2.414062 -23.875 3.21875 -25.09375 C 4.03125 -26.320312 5.207031 -27.273438 6.75 -27.953125 C 8.289062 -28.628906 10.132812 -28.96875 12.28125 -28.96875 C 14.488281 -28.96875 16.375 -28.675781 17.9375 -28.09375 C 19.507812 -27.519531 20.835938 -26.632812 21.921875 -25.4375 L 19.125 -21.609375 L 18.640625 -21.609375 C 17.828125 -22.453125 16.898438 -23.082031 15.859375 -23.5 C 14.816406 -23.925781 13.625 -24.140625 12.28125 -24.140625 C 10.738281 -24.140625 9.5625 -23.863281 8.75 -23.3125 C 7.945312 -22.769531 7.546875 -22.019531 7.546875 -21.0625 C 7.546875 -20.15625 7.828125 -19.4375 8.390625 -18.90625 C 8.953125 -18.375 9.929688 -17.957031 11.328125 -17.65625 L 15.078125 -16.875 C 17.847656 -16.289062 19.859375 -15.296875 21.109375 -13.890625 C 22.359375 -12.492188 22.984375 -10.671875 22.984375 -8.421875 C 22.984375 -6.640625 22.597656 -5.085938 21.828125 -3.765625 C 21.066406 -2.441406 19.910156 -1.414062 18.359375 -0.6875 C 16.804688 0.0390625 14.90625 0.40625 12.65625 0.40625 Z M 12.65625 0.40625 "/></g></g></g><g fill="#e0c184" fill-opacity="1"><g transform="translate(227.733022, 366.249967)"><g><path d="M 27.40625 0 L 21.46875 0 L 19.3125 -6.578125 L 8.375 -6.578125 L 6.234375 0 L 0.4375 0 L 10.296875 -28.5625 L 17.546875 -28.5625 Z M 13.578125 -22.59375 L 9.90625 -11.328125 L 17.75 -11.328125 L 14.0625 -22.59375 Z M 13.578125 -22.59375 "/></g></g></g><g fill="#e0c184" fill-opacity="1"><g transform="translate(255.562351, 366.249967)"><g><path d="M 9.359375 -28.5625 L 9.359375 -4.734375 L 22.1875 -4.734375 L 22.1875 0 L 3.71875 0 L 3.71875 -28.5625 Z M 9.359375 -28.5625 "/></g></g></g><g fill="#e0c184" fill-opacity="1"><g transform="translate(278.685091, 366.249967)"><g><path d="M 15.5625 0.40625 C 12.945312 0.40625 10.640625 -0.125 8.640625 -1.1875 C 6.640625 -2.257812 5.070312 -3.890625 3.9375 -6.078125 C 2.8125 -8.273438 2.25 -11.007812 2.25 -14.28125 C 2.25 -17.550781 2.8125 -20.28125 3.9375 -22.46875 C 5.070312 -24.664062 6.640625 -26.296875 8.640625 -27.359375 C 10.640625 -28.429688 12.945312 -28.96875 15.5625 -28.96875 C 18.1875 -28.96875 20.492188 -28.4375 22.484375 -27.375 C 24.472656 -26.3125 26.03125 -24.679688 27.15625 -22.484375 C 28.28125 -20.285156 28.84375 -17.550781 28.84375 -14.28125 C 28.84375 -11.007812 28.28125 -8.273438 27.15625 -6.078125 C 26.03125 -3.878906 24.472656 -2.25 22.484375 -1.1875 C 20.492188 -0.125 18.1875 0.40625 15.5625 0.40625 Z M 15.5625 -4.5 C 17.988281 -4.5 19.835938 -5.273438 21.109375 -6.828125 C 22.390625 -8.378906 23.03125 -10.863281 23.03125 -14.28125 C 23.03125 -17.6875 22.390625 -20.171875 21.109375 -21.734375 C 19.835938 -23.296875 17.988281 -24.078125 15.5625 -24.078125 C 13.132812 -24.078125 11.273438 -23.296875 9.984375 -21.734375 C 8.703125 -20.171875 8.0625 -17.6875 8.0625 -14.28125 C 8.0625 -10.863281 8.703125 -8.378906 9.984375 -6.828125 C 11.273438 -5.273438 13.132812 -4.5 15.5625 -4.5 Z M 15.5625 -4.5 "/></g></g></g><g fill="#e0c184" fill-opacity="1"><g transform="translate(309.795349, 366.249967)"><g><path d="M 9.1875 0 L 3.71875 0 L 3.71875 -28.5625 L 10.171875 -28.5625 L 21.640625 -10.15625 L 22.15625 -10.234375 L 22.15625 -28.5625 L 27.578125 -28.5625 L 27.578125 0 L 21.796875 0 L 9.671875 -19.65625 L 9.1875 -19.578125 Z M 9.1875 0 "/></g></g></g></svg>