<svg xmlns="http://www.w3.org/2000/svg" xmlns:xlink="http://www.w3.org/1999/xlink" width="500" zoomAndPan="magnify" viewBox="0 0 375 240.749995" height="321" preserveAspectRatio="xMidYMid meet" version="1.0"><defs><g/><clipPath id="87ca262ee1"><path d="M 65 5 L 317 5 L 317 110 L 65 110 Z M 65 5 " clip-rule="nonzero"/></clipPath><clipPath id="95d312e263"><path d="M 58.785156 13.84375 L 311.464844 -0.0273438 L 316.703125 95.34375 L 64.019531 109.214844 Z M 58.785156 13.84375 " clip-rule="nonzero"/></clipPath><clipPath id="baeb7c37a6"><path d="M 58.785156 13.84375 L 311.464844 -0.0273438 L 316.703125 95.34375 L 64.019531 109.214844 Z M 58.785156 13.84375 " clip-rule="nonzero"/></clipPath><clipPath id="e09be8a652"><path d="M 58.785156 13.84375 L 311.464844 -0.0273438 L 325.28125 251.671875 L 72.601562 265.539062 Z M 58.785156 13.84375 " clip-rule="nonzero"/></clipPath><clipPath id="78b5021a41"><path d="M 41.855469 89.550781 L 152 89.550781 L 152 142 L 41.855469 142 Z M 41.855469 89.550781 " clip-rule="nonzero"/></clipPath><clipPath id="e4c02a550b"><path d="M 229 150 L 324.457031 150 L 324.457031 165 L 229 165 Z M 229 150 " clip-rule="nonzero"/></clipPath></defs><g clip-path="url(#87ca262ee1)"><g clip-path="url(#95d312e263)"><g clip-path="url(#baeb7c37a6)"><g clip-path="url(#e09be8a652)"><path fill="#333333" d="M 318.265625 124.160156 C 317.96875 118.8125 317.347656 113.554688 316.417969 108.417969 L 300.65625 104.703125 C 298.296875 95.09375 294.707031 85.996094 290.070312 77.574219 L 299.296875 64.128906 C 293.660156 55.117188 286.925781 46.882812 279.296875 39.605469 L 264.128906 45.960938 C 256.777344 39.757812 248.625 34.492188 239.863281 30.335938 L 239.414062 13.816406 C 229.742188 9.894531 219.488281 7.140625 208.84375 5.71875 L 200.234375 19.886719 C 195.5 19.542969 190.6875 19.492188 185.820312 19.761719 C 180.957031 20.027344 176.179688 20.601562 171.507812 21.464844 L 161.398438 8.320312 C 150.976562 10.902344 141.085938 14.757812 131.902344 19.71875 L 133.261719 36.183594 C 125.007812 41.277344 117.484375 47.40625 110.855469 54.371094 L 95.082031 49.71875 C 88.292969 57.785156 82.5 66.707031 77.894531 76.28125 L 88.53125 88.636719 C 84.839844 97.511719 82.265625 106.949219 80.972656 116.761719 L 65.714844 122.179688 C 65.351562 127.386719 65.308594 132.679688 65.601562 138.027344 C 65.632812 138.585938 65.671875 139.144531 65.710938 139.703125 C 65.734375 140.261719 65.753906 140.820312 65.785156 141.378906 C 66.078125 146.726562 66.703125 151.984375 67.632812 157.121094 L 83.390625 160.835938 C 85.753906 170.445312 89.339844 179.542969 93.980469 187.964844 L 84.753906 201.410156 C 90.386719 210.421875 97.125 218.65625 104.753906 225.933594 L 119.921875 219.578125 C 127.273438 225.78125 135.421875 231.046875 144.1875 235.203125 L 144.632812 251.722656 C 154.304688 255.644531 164.5625 258.398438 175.207031 259.820312 L 183.8125 245.652344 C 188.550781 245.996094 193.363281 246.046875 198.226562 245.777344 C 203.09375 245.511719 207.871094 244.9375 212.542969 244.074219 L 222.652344 257.21875 C 233.074219 254.636719 242.964844 250.78125 252.148438 245.820312 L 250.785156 229.355469 C 259.042969 224.261719 266.566406 218.132812 273.195312 211.167969 L 288.96875 215.820312 C 295.753906 207.753906 301.550781 198.832031 306.15625 189.257812 L 295.519531 176.902344 C 299.210938 168.027344 301.78125 158.589844 303.074219 148.777344 L 318.335938 143.359375 C 318.695312 138.152344 318.738281 132.859375 318.445312 127.511719 C 318.414062 126.953125 318.375 126.394531 318.335938 125.835938 C 318.316406 125.277344 318.292969 124.71875 318.265625 124.160156 Z M 197.757812 237.222656 C 141.261719 240.324219 92.871094 197.453125 88.976562 141.199219 C 89 141.195312 89.019531 141.191406 89.039062 141.1875 C 88.957031 140.277344 88.898438 139.355469 88.835938 138.433594 C 88.796875 137.511719 88.753906 136.589844 88.734375 135.675781 C 88.714844 135.671875 88.695312 135.671875 88.675781 135.667969 C 86.386719 79.328125 129.792969 31.417969 186.292969 28.316406 C 242.789062 25.214844 291.175781 68.085938 295.070312 124.339844 C 295.050781 124.34375 295.03125 124.347656 295.011719 124.351562 C 295.09375 125.261719 295.152344 126.183594 295.214844 127.105469 C 295.253906 128.027344 295.296875 128.949219 295.3125 129.863281 C 295.335938 129.867188 295.355469 129.867188 295.375 129.871094 C 297.660156 186.210938 254.257812 234.121094 197.757812 237.222656 Z M 197.757812 237.222656 " fill-opacity="1" fill-rule="nonzero"/></g></g></g></g><g clip-path="url(#78b5021a41)"><path fill="#333333" d="M 145.125 90.292969 C 147.164062 89.960938 149.210938 89.582031 151.28125 89.550781 C 145.3125 90.472656 139.40625 91.933594 133.765625 94.113281 C 128.566406 96.121094 123.652344 98.867188 119.214844 102.242188 C 115.085938 105.332031 111.386719 108.9375 107.464844 112.273438 C 103.046875 115.941406 98.21875 119.085938 93.230469 121.914062 C 82.53125 127.921875 71.089844 132.511719 59.449219 136.339844 C 54.429688 137.964844 49.367188 139.472656 44.25 140.769531 C 43.496094 140.9375 42.753906 141.199219 41.980469 141.25 C 44.894531 140.535156 47.761719 139.621094 50.644531 138.773438 C 62.84375 135.019531 74.847656 130.5 86.179688 124.597656 C 94.175781 120.414062 101.847656 115.503906 108.570312 109.453125 C 110.171875 108.066406 111.617188 106.511719 113.242188 105.144531 C 122.226562 97.359375 133.472656 92.402344 145.125 90.292969 Z M 145.125 90.292969 " fill-opacity="1" fill-rule="nonzero"/></g><path fill="#333333" d="M 173.425781 91.242188 C 186.363281 90.394531 199.351562 91.398438 212.167969 93.210938 C 215.519531 93.46875 218.648438 94.753906 221.800781 95.800781 C 231.6875 99.191406 241.46875 102.921875 250.949219 107.324219 C 242.851562 106.601562 234.714844 106.363281 226.589844 106.339844 C 216.875 106.296875 207.160156 106.582031 197.460938 107.058594 C 195.152344 107.1875 192.816406 107.261719 190.53125 106.835938 C 188.71875 106.5 186.929688 105.808594 185.507812 104.609375 C 181.648438 101.144531 177.980469 97.449219 173.8125 94.351562 C 173.089844 93.78125 172.191406 93.394531 171.675781 92.605469 C 171.476562 92.34375 171.441406 91.910156 171.746094 91.710938 C 172.226562 91.359375 172.847656 91.3125 173.425781 91.242188 Z M 173.425781 91.242188 " fill-opacity="1" fill-rule="nonzero"/><path fill="#333333" d="M 152.710938 93.597656 C 156.011719 93.257812 159.398438 93.417969 162.59375 94.363281 C 166.847656 95.574219 170.683594 98.023438 173.804688 101.128906 C 176.429688 103.71875 178.558594 106.765625 180.34375 109.980469 C 167.558594 110.5 154.773438 110.972656 141.988281 111.5 C 140.230469 107.675781 137.960938 104.035156 134.96875 101.054688 C 134.476562 100.535156 133.796875 100.125 133.574219 99.40625 C 133.539062 98.839844 134.160156 98.597656 134.582031 98.386719 C 136.742188 97.480469 138.964844 96.730469 141.203125 96.035156 C 144.957031 94.894531 148.796875 93.980469 152.710938 93.597656 Z M 152.710938 93.597656 " fill-opacity="1" fill-rule="nonzero"/><path fill="#333333" d="M 127.691406 101.582031 C 128.53125 101.164062 129.355469 100.582031 130.324219 100.542969 C 131.070312 100.621094 131.640625 101.171875 132.199219 101.617188 C 133.84375 103.097656 135.117188 104.925781 136.332031 106.757812 C 137.003906 107.804688 137.648438 108.871094 138.238281 109.964844 C 138.441406 110.363281 138.671875 110.847656 138.46875 111.292969 C 138.171875 111.746094 137.5625 111.695312 137.085938 111.707031 C 133.582031 111.660156 130.078125 111.722656 126.574219 111.824219 C 123.222656 111.972656 119.859375 112.15625 116.542969 112.695312 C 115.335938 112.90625 114.109375 113.132812 112.988281 113.644531 C 115.542969 109.28125 119.53125 105.925781 123.917969 103.496094 C 125.140625 102.796875 126.425781 102.203125 127.691406 101.582031 Z M 127.691406 101.582031 " fill-opacity="1" fill-rule="nonzero"/><path fill="#333333" d="M 209.015625 109.230469 C 216.675781 109.042969 224.335938 108.84375 231.988281 108.492188 C 240.25 108.210938 248.53125 108.328125 256.761719 109.089844 C 263.882812 109.714844 270.992188 110.472656 278.078125 111.40625 C 281.816406 111.910156 285.546875 112.449219 289.246094 113.191406 C 294.726562 114.253906 300.265625 115.339844 305.40625 117.59375 C 306.949219 118.28125 308.460938 119.054688 309.894531 119.957031 C 306.976562 118.832031 303.984375 117.871094 300.914062 117.285156 C 299.605469 117.015625 298.277344 116.886719 296.96875 116.625 C 295.488281 116.503906 293.996094 116.636719 292.511719 116.621094 C 287.894531 116.65625 283.261719 116.800781 278.679688 117.429688 C 278.082031 117.523438 277.390625 117.632812 277.015625 118.164062 C 276.6875 118.6875 276.9375 119.328125 277.171875 119.839844 C 278.761719 122.636719 280.183594 125.527344 281.660156 128.386719 C 282.667969 130.402344 283.722656 132.398438 284.699219 134.429688 C 280.6875 128.039062 275.15625 122.625 268.746094 118.652344 C 267.648438 117.976562 266.53125 117.339844 265.367188 116.789062 C 263.78125 116.058594 262.070312 115.664062 260.355469 115.390625 C 257.058594 114.964844 253.804688 114.261719 250.523438 113.71875 C 234.882812 111.007812 219.027344 109.417969 203.148438 109.394531 C 205.101562 109.257812 207.058594 109.285156 209.015625 109.230469 Z M 209.015625 109.230469 " fill-opacity="1" fill-rule="nonzero"/><path fill="#333333" d="M 248.058594 117.90625 C 250.535156 118.425781 253.03125 119.328125 254.9375 121.054688 C 256.039062 122.035156 256.851562 123.34375 257.203125 124.777344 C 257.4375 125.722656 257.3125 126.78125 256.730469 127.578125 C 256.023438 128.550781 254.898438 129.113281 253.78125 129.476562 C 254.804688 128.695312 255.859375 127.8125 256.289062 126.554688 C 256.703125 125.375 256.316406 124.078125 255.59375 123.109375 C 254.46875 121.570312 252.871094 120.460938 251.253906 119.5 C 250.222656 118.898438 249.15625 118.371094 248.058594 117.90625 Z M 248.058594 117.90625 " fill-opacity="1" fill-rule="nonzero"/><path fill="#333333" d="M 295.691406 117.898438 C 296.378906 117.8125 297.074219 117.777344 297.769531 117.851562 C 301.035156 118.511719 304.34375 119.082031 307.519531 120.125 C 308.449219 120.433594 309.378906 120.804688 310.136719 121.4375 C 311.148438 122.238281 311.796875 123.398438 312.214844 124.601562 C 312.949219 126.753906 313.714844 128.902344 314.246094 131.121094 C 314.460938 132.066406 314.707031 133.121094 314.214844 134.027344 C 313.929688 134.605469 313.257812 134.894531 312.632812 134.851562 C 306.390625 134.378906 300.125 134.132812 293.863281 134.03125 C 292.261719 133.964844 290.605469 134.183594 289.058594 133.652344 C 287.324219 133.054688 286.058594 131.617188 285.035156 130.15625 C 283.359375 127.722656 281.867188 125.167969 280.476562 122.5625 C 280.046875 121.683594 279.644531 120.671875 279.894531 119.683594 C 280.089844 118.957031 280.867188 118.636719 281.554688 118.589844 C 286.253906 118.125 290.980469 118.132812 295.691406 117.898438 Z M 295.691406 117.898438 " fill-opacity="1" fill-rule="nonzero"/><path fill="#333333" d="M 244.183594 118.0625 C 246.628906 117.867188 248.941406 118.972656 250.988281 120.191406 C 252.296875 120.988281 253.5625 121.925781 254.449219 123.191406 C 255.167969 124.222656 255.535156 125.53125 255.304688 126.78125 C 254.964844 127.90625 253.9375 128.683594 252.847656 129.011719 C 251.453125 129.421875 249.960938 129.363281 248.542969 129.09375 C 245.199219 128.445312 242.304688 126.015625 240.949219 122.910156 C 240.527344 121.976562 240.464844 120.804688 241.136719 119.972656 C 241.90625 119.042969 242.933594 118.171875 244.183594 118.0625 Z M 244.183594 118.0625 " fill-opacity="1" fill-rule="nonzero"/><path fill="#333333" d="M 260.144531 118.125 C 262.566406 117.714844 264.992188 118.664062 266.957031 120.023438 C 268.214844 120.882812 269.328125 121.933594 270.359375 123.050781 C 271.300781 124.019531 271.902344 125.285156 272.234375 126.585938 C 272.46875 127.632812 272.480469 128.847656 271.792969 129.734375 C 270.984375 130.761719 269.582031 131.089844 268.335938 131.0625 C 264.984375 130.746094 261.808594 128.929688 259.832031 126.207031 C 259.113281 125.230469 258.53125 124.152344 258.097656 123.019531 C 257.742188 121.980469 257.648438 120.800781 258.085938 119.773438 C 258.445312 118.925781 259.242188 118.289062 260.144531 118.125 Z M 260.144531 118.125 " fill-opacity="1" fill-rule="nonzero"/><path fill="#333333" d="M 265.761719 118.488281 C 267.894531 119.648438 270.027344 120.863281 271.855469 122.472656 C 272.78125 123.308594 273.664062 124.246094 274.152344 125.414062 C 274.53125 126.285156 274.574219 127.328125 274.136719 128.1875 C 273.808594 128.890625 273.222656 129.425781 272.617188 129.894531 C 273.246094 128.753906 273.398438 127.367188 272.984375 126.128906 C 272.34375 124.148438 270.886719 122.570312 269.375 121.199219 C 268.257812 120.179688 266.996094 119.347656 265.761719 118.488281 Z M 265.761719 118.488281 " fill-opacity="1" fill-rule="nonzero"/><path fill="#333333" d="M 312.839844 123.023438 C 312.898438 122.992188 313.019531 122.925781 313.082031 122.894531 C 313.671875 123.019531 314.132812 123.464844 314.558594 123.875 C 315.796875 125.1875 316.65625 126.800781 317.386719 128.441406 C 317.867188 129.582031 318.402344 130.726562 318.574219 131.96875 C 318.625 132.5 318.675781 133.132812 318.28125 133.554688 C 318.035156 133.714844 317.761719 133.511719 317.578125 133.355469 C 315.96875 131.769531 315.167969 129.59375 314.152344 127.621094 C 313.617188 126.476562 313.039062 125.335938 312.742188 124.101562 C 312.6875 123.75 312.582031 123.320312 312.839844 123.023438 Z M 312.839844 123.023438 " fill-opacity="1" fill-rule="nonzero"/><path fill="#333333" d="M 204.902344 126.933594 C 207.609375 126.449219 210.472656 126.46875 213.0625 127.480469 C 215.339844 128.335938 217.304688 129.890625 218.820312 131.777344 C 220.707031 134.125 221.96875 136.925781 222.804688 139.804688 C 223.707031 142.964844 224.140625 146.261719 224.09375 149.550781 C 223.925781 152.476562 223.535156 155.40625 222.761719 158.238281 C 222.027344 160.894531 220.9375 163.492188 219.261719 165.699219 C 217.792969 167.648438 215.835938 169.253906 213.570312 170.195312 C 211.007812 171.28125 208.140625 171.539062 205.394531 171.183594 C 207.785156 170.949219 210.152344 170.175781 212.089844 168.726562 C 214.285156 167.105469 215.863281 164.777344 216.945312 162.300781 C 218.34375 159.078125 219.046875 155.597656 219.453125 152.121094 C 219.894531 148.738281 219.832031 145.300781 219.40625 141.921875 C 219.039062 139.132812 218.359375 136.347656 217.058594 133.835938 C 215.945312 131.675781 214.308594 129.746094 212.195312 128.519531 C 210.011719 127.210938 207.417969 126.773438 204.902344 126.933594 Z M 204.902344 126.933594 " fill-opacity="1" fill-rule="nonzero"/><path fill="#333333" d="M 114.414062 134.460938 C 115.667969 136.617188 117.019531 138.75 118.785156 140.53125 C 119.816406 141.546875 121.011719 142.421875 122.371094 142.945312 C 123.800781 143.507812 125.347656 143.652344 126.867188 143.761719 C 145.289062 144.878906 163.710938 145.925781 182.132812 147 C 183.25 147.105469 184.378906 147.050781 185.488281 147.246094 C 176.761719 147.050781 168.03125 146.96875 159.304688 146.8125 C 148.09375 146.652344 136.886719 146.460938 125.675781 146.300781 C 124.226562 146.238281 122.75 146.375 121.320312 146.066406 C 119.179688 145.585938 117.507812 143.804688 116.84375 141.757812 C 116.042969 139.320312 115.175781 136.90625 114.414062 134.460938 Z M 114.414062 134.460938 " fill-opacity="1" fill-rule="nonzero"/><path fill="#333333" d="M 127.625 149.714844 C 128.273438 149.636719 128.917969 149.484375 129.574219 149.488281 C 141.734375 149.96875 153.902344 150.40625 166.070312 150.765625 C 170.476562 150.875 174.882812 151.023438 179.292969 151.039062 C 179.785156 151.046875 180.277344 151.09375 180.765625 151.160156 C 179.019531 151.113281 177.273438 151.304688 175.527344 151.328125 C 164.472656 151.777344 153.402344 151.804688 142.339844 151.757812 C 133.621094 151.714844 124.902344 151.5625 116.1875 151.359375 C 119.996094 150.777344 123.8125 150.265625 127.625 149.714844 Z M 127.625 149.714844 " fill-opacity="1" fill-rule="nonzero"/><g clip-path="url(#e4c02a550b)"><path fill="#333333" d="M 229.859375 151.058594 C 229.960938 150.792969 230.253906 150.839844 230.480469 150.839844 C 237.007812 151.148438 243.539062 151.429688 250.070312 151.277344 C 251.09375 153.292969 252.839844 154.949219 254.972656 155.726562 C 256.351562 156.257812 257.84375 156.464844 259.320312 156.398438 C 271.113281 157.144531 282.933594 157.761719 294.753906 157.59375 C 298.964844 157.433594 303.171875 157.183594 307.367188 156.796875 C 310.628906 156.472656 313.890625 156.089844 317.101562 155.410156 C 318.480469 155.105469 319.863281 154.769531 321.171875 154.21875 C 321.851562 153.917969 322.566406 153.582031 322.980469 152.933594 C 323.65625 153.800781 323.957031 154.878906 324.265625 155.914062 C 324.550781 156.894531 324.363281 158.015625 323.6875 158.796875 C 322.710938 159.941406 321.265625 160.519531 319.875 160.992188 C 316.976562 161.90625 313.949219 162.304688 310.9375 162.660156 C 303.125 163.484375 295.265625 163.714844 287.417969 163.980469 C 271.183594 164.511719 254.925781 164.03125 238.746094 162.660156 C 236.136719 162.425781 233.53125 162.183594 230.929688 161.875 C 230.726562 161.820312 230.394531 161.851562 230.359375 161.574219 C 230.367188 158.066406 230.179688 154.550781 229.859375 151.058594 Z M 229.859375 151.058594 " fill-opacity="1" fill-rule="nonzero"/></g><path fill="#333333" d="M 218.476562 168.617188 C 222.875 164.828125 225.132812 158.996094 225.378906 153.28125 C 225.769531 154.859375 225.753906 156.503906 225.855469 158.117188 C 225.90625 160.265625 225.976562 162.417969 225.851562 164.5625 C 225.945312 165.003906 226.496094 165.125 226.878906 165.210938 C 228.75 165.496094 230.652344 165.46875 232.539062 165.617188 C 232.007812 166.503906 231.207031 167.183594 230.484375 167.90625 C 229.363281 168.980469 228.195312 170.007812 226.996094 170.996094 C 225.625 172.113281 223.742188 172.035156 222.078125 172.246094 C 218.5 172.5 214.894531 172.769531 211.3125 172.4375 C 213.929688 171.675781 216.410156 170.410156 218.476562 168.617188 Z M 218.476562 168.617188 " fill-opacity="1" fill-rule="nonzero"/><path fill="#333333" d="M 87.964844 156.230469 C 91.277344 156.488281 94.578125 156.910156 97.890625 157.21875 C 113.199219 158.761719 128.515625 160.238281 143.84375 161.570312 C 154.097656 162.453125 164.355469 163.292969 174.628906 163.886719 C 177.148438 163.988281 179.667969 164.179688 182.191406 164.199219 C 178.117188 164.257812 174.046875 164.144531 169.976562 164.117188 C 159.664062 164.03125 149.351562 163.945312 139.039062 163.902344 C 138.296875 163.886719 137.558594 163.925781 136.824219 163.875 C 120.535156 161.339844 104.253906 158.75 87.964844 156.230469 Z M 87.964844 156.230469 " fill-opacity="1" fill-rule="nonzero"/><path fill="#333333" d="M 296.261719 166.433594 C 299.453125 166.347656 302.640625 166.199219 305.820312 165.933594 C 305.273438 166.929688 304.34375 167.636719 303.488281 168.355469 C 299.53125 171.441406 294.695312 173.523438 289.65625 173.8125 C 286.441406 173.996094 283.1875 173.363281 280.277344 171.988281 C 277.46875 170.679688 274.980469 168.753906 272.839844 166.527344 C 280.644531 166.625 288.453125 166.640625 296.261719 166.433594 Z M 296.261719 166.433594 " fill-opacity="1" fill-rule="nonzero"/><g fill="#fca311" fill-opacity="1"><g transform="translate(18.1173, 211.813195)"><g><path d="M 14.59375 0 C 14.28125 0 14.125 -0.15625 14.125 -0.46875 L 14.125 -18.828125 L 0.46875 -18.828125 C 0.15625 -18.828125 0 -18.984375 0 -19.296875 L 0 -23.0625 C 0 -23.375 0.15625 -23.53125 0.46875 -23.53125 L 32.46875 -23.53125 C 32.78125 -23.53125 32.9375 -23.375 32.9375 -23.0625 L 32.9375 -19.296875 C 32.9375 -18.984375 32.78125 -18.828125 32.46875 -18.828125 L 18.828125 -18.828125 L 18.828125 -0.46875 C 18.828125 -0.15625 18.671875 0 18.359375 0 Z M 14.59375 0 "/></g></g></g><g fill="#fca311" fill-opacity="1"><g transform="translate(55.756317, 211.813195)"><g><path d="M 0.46875 0 C 0.15625 0 0 -0.15625 0 -0.46875 L 0 -23.0625 C 0 -23.375 0.15625 -23.53125 0.46875 -23.53125 L 28.140625 -23.53125 C 29.523438 -23.53125 30.671875 -23.070312 31.578125 -22.15625 C 32.484375 -21.25 32.9375 -20.109375 32.9375 -18.734375 L 32.9375 -14.21875 C 32.9375 -12.832031 32.484375 -11.679688 31.578125 -10.765625 C 30.671875 -9.859375 29.523438 -9.40625 28.140625 -9.40625 L 27.671875 -9.40625 L 30.96875 0 L 25.796875 0 L 22.5 -9.40625 L 4.703125 -9.40625 L 4.703125 -0.46875 C 4.703125 -0.15625 4.546875 0 4.234375 0 Z M 4.703125 -14.125 L 27.296875 -14.125 C 27.546875 -14.125 27.765625 -14.21875 27.953125 -14.40625 C 28.140625 -14.59375 28.234375 -14.8125 28.234375 -15.0625 L 28.234375 -17.890625 C 28.234375 -18.140625 28.140625 -18.359375 27.953125 -18.546875 C 27.765625 -18.734375 27.546875 -18.828125 27.296875 -18.828125 L 4.703125 -18.828125 Z M 4.703125 -14.125 "/></g></g></g><g fill="#fca311" fill-opacity="1"><g transform="translate(93.395334, 211.813195)"><g><path d="M 0.46875 0 C 0.15625 0 0 -0.15625 0 -0.46875 L 0 -18.734375 C 0 -20.109375 0.453125 -21.25 1.359375 -22.15625 C 2.273438 -23.070312 3.421875 -23.53125 4.796875 -23.53125 L 28.140625 -23.53125 C 29.523438 -23.53125 30.671875 -23.070312 31.578125 -22.15625 C 32.484375 -21.25 32.9375 -20.109375 32.9375 -18.734375 L 32.9375 -0.46875 C 32.9375 -0.15625 32.78125 0 32.46875 0 L 28.703125 0 C 28.390625 0 28.234375 -0.15625 28.234375 -0.46875 L 28.234375 -9.40625 L 4.703125 -9.40625 L 4.703125 -0.46875 C 4.703125 -0.15625 4.546875 0 4.234375 0 Z M 4.703125 -14.125 L 28.234375 -14.125 L 28.234375 -17.890625 C 28.234375 -18.140625 28.140625 -18.359375 27.953125 -18.546875 C 27.765625 -18.734375 27.546875 -18.828125 27.296875 -18.828125 L 5.640625 -18.828125 C 5.390625 -18.828125 5.171875 -18.734375 4.984375 -18.546875 C 4.796875 -18.359375 4.703125 -18.140625 4.703125 -17.890625 Z M 4.703125 -14.125 "/></g></g></g><g fill="#fca311" fill-opacity="1"><g transform="translate(131.034351, 211.813195)"><g><path d="M 32.46875 0 L 28.234375 0 L 4.703125 -17.40625 L 4.703125 -0.46875 C 4.703125 -0.15625 4.546875 0 4.234375 0 L 0.46875 0 C 0.15625 0 0 -0.15625 0 -0.46875 L 0 -23.0625 C 0 -23.375 0.15625 -23.53125 0.46875 -23.53125 L 4.703125 -23.53125 L 28.234375 -6.125 L 28.234375 -23.0625 C 28.234375 -23.375 28.390625 -23.53125 28.703125 -23.53125 L 32.46875 -23.53125 C 32.78125 -23.53125 32.9375 -23.375 32.9375 -23.0625 L 32.9375 -0.46875 C 32.9375 -0.15625 32.78125 0 32.46875 0 Z M 32.46875 0 "/></g></g></g><g fill="#fca311" fill-opacity="1"><g transform="translate(168.673369, 211.813195)"><g><path d="M 0.46875 0 C 0.15625 0 0 -0.15625 0 -0.46875 L 0 -4.234375 C 0 -4.546875 0.15625 -4.703125 0.46875 -4.703125 L 27.296875 -4.703125 C 27.546875 -4.703125 27.765625 -4.796875 27.953125 -4.984375 C 28.140625 -5.171875 28.234375 -5.390625 28.234375 -5.640625 L 28.234375 -8.46875 C 28.234375 -8.71875 28.140625 -8.9375 27.953125 -9.125 C 27.765625 -9.3125 27.546875 -9.40625 27.296875 -9.40625 L 4.796875 -9.40625 C 3.421875 -9.40625 2.273438 -9.859375 1.359375 -10.765625 C 0.453125 -11.679688 0 -12.832031 0 -14.21875 L 0 -18.734375 C 0 -20.109375 0.453125 -21.25 1.359375 -22.15625 C 2.273438 -23.070312 3.421875 -23.53125 4.796875 -23.53125 L 32.46875 -23.53125 C 32.78125 -23.53125 32.9375 -23.375 32.9375 -23.0625 L 32.9375 -19.296875 C 32.9375 -18.984375 32.78125 -18.828125 32.46875 -18.828125 L 5.640625 -18.828125 C 5.390625 -18.828125 5.171875 -18.734375 4.984375 -18.546875 C 4.796875 -18.359375 4.703125 -18.140625 4.703125 -17.890625 L 4.703125 -15.0625 C 4.703125 -14.8125 4.796875 -14.59375 4.984375 -14.40625 C 5.171875 -14.21875 5.390625 -14.125 5.640625 -14.125 L 28.140625 -14.125 C 29.523438 -14.125 30.671875 -13.664062 31.578125 -12.75 C 32.484375 -11.84375 32.9375 -10.695312 32.9375 -9.3125 L 32.9375 -4.796875 C 32.9375 -3.421875 32.484375 -2.273438 31.578125 -1.359375 C 30.671875 -0.453125 29.523438 0 28.140625 0 Z M 0.46875 0 "/></g></g></g><g fill="#fca311" fill-opacity="1"><g transform="translate(206.312386, 211.813195)"><g><path d="M 0.46875 0 C 0.15625 0 0 -0.15625 0 -0.46875 L 0 -18.734375 C 0 -20.109375 0.453125 -21.25 1.359375 -22.15625 C 2.273438 -23.070312 3.421875 -23.53125 4.796875 -23.53125 L 28.140625 -23.53125 C 29.523438 -23.53125 30.671875 -23.070312 31.578125 -22.15625 C 32.484375 -21.25 32.9375 -20.109375 32.9375 -18.734375 L 32.9375 -0.46875 C 32.9375 -0.15625 32.78125 0 32.46875 0 L 28.703125 0 C 28.390625 0 28.234375 -0.15625 28.234375 -0.46875 L 28.234375 -9.40625 L 4.703125 -9.40625 L 4.703125 -0.46875 C 4.703125 -0.15625 4.546875 0 4.234375 0 Z M 4.703125 -14.125 L 28.234375 -14.125 L 28.234375 -17.890625 C 28.234375 -18.140625 28.140625 -18.359375 27.953125 -18.546875 C 27.765625 -18.734375 27.546875 -18.828125 27.296875 -18.828125 L 5.640625 -18.828125 C 5.390625 -18.828125 5.171875 -18.734375 4.984375 -18.546875 C 4.796875 -18.359375 4.703125 -18.140625 4.703125 -17.890625 Z M 4.703125 -14.125 "/></g></g></g><g fill="#fca311" fill-opacity="1"><g transform="translate(243.951403, 211.813195)"><g><path d="M 4.796875 0 C 3.421875 0 2.273438 -0.453125 1.359375 -1.359375 C 0.453125 -2.273438 0 -3.421875 0 -4.796875 L 0 -23.0625 C 0 -23.375 0.15625 -23.53125 0.46875 -23.53125 L 4.234375 -23.53125 C 4.546875 -23.53125 4.703125 -23.375 4.703125 -23.0625 L 4.703125 -5.640625 C 4.703125 -5.390625 4.796875 -5.171875 4.984375 -4.984375 C 5.171875 -4.796875 5.390625 -4.703125 5.640625 -4.703125 L 27.296875 -4.703125 C 27.546875 -4.703125 27.765625 -4.796875 27.953125 -4.984375 C 28.140625 -5.171875 28.234375 -5.390625 28.234375 -5.640625 L 28.234375 -23.0625 C 28.234375 -23.375 28.390625 -23.53125 28.703125 -23.53125 L 32.46875 -23.53125 C 32.78125 -23.53125 32.9375 -23.375 32.9375 -23.0625 L 32.9375 -4.796875 C 32.9375 -3.421875 32.484375 -2.273438 31.578125 -1.359375 C 30.671875 -0.453125 29.523438 0 28.140625 0 Z M 4.796875 0 "/></g></g></g><g fill="#fca311" fill-opacity="1"><g transform="translate(281.590408, 211.813195)"><g><path d="M 14.59375 0 C 14.28125 0 14.125 -0.15625 14.125 -0.46875 L 14.125 -18.828125 L 0.46875 -18.828125 C 0.15625 -18.828125 0 -18.984375 0 -19.296875 L 0 -23.0625 C 0 -23.375 0.15625 -23.53125 0.46875 -23.53125 L 32.46875 -23.53125 C 32.78125 -23.53125 32.9375 -23.375 32.9375 -23.0625 L 32.9375 -19.296875 C 32.9375 -18.984375 32.78125 -18.828125 32.46875 -18.828125 L 18.828125 -18.828125 L 18.828125 -0.46875 C 18.828125 -0.15625 18.671875 0 18.359375 0 Z M 14.59375 0 "/></g></g></g><g fill="#fca311" fill-opacity="1"><g transform="translate(319.229437, 211.813195)"><g><path d="M 4.796875 0 C 3.421875 0 2.273438 -0.453125 1.359375 -1.359375 C 0.453125 -2.273438 0 -3.421875 0 -4.796875 L 0 -18.734375 C 0 -20.109375 0.453125 -21.25 1.359375 -22.15625 C 2.273438 -23.070312 3.421875 -23.53125 4.796875 -23.53125 L 28.140625 -23.53125 C 29.523438 -23.53125 30.671875 -23.070312 31.578125 -22.15625 C 32.484375 -21.25 32.9375 -20.109375 32.9375 -18.734375 L 32.9375 -4.796875 C 32.9375 -3.421875 32.484375 -2.273438 31.578125 -1.359375 C 30.671875 -0.453125 29.523438 0 28.140625 0 Z M 5.640625 -4.703125 L 27.296875 -4.703125 C 27.546875 -4.703125 27.765625 -4.796875 27.953125 -4.984375 C 28.140625 -5.171875 28.234375 -5.390625 28.234375 -5.640625 L 28.234375 -17.890625 C 28.234375 -18.140625 28.140625 -18.359375 27.953125 -18.546875 C 27.765625 -18.734375 27.546875 -18.828125 27.296875 -18.828125 L 5.640625 -18.828125 C 5.390625 -18.828125 5.171875 -18.734375 4.984375 -18.546875 C 4.796875 -18.359375 4.703125 -18.140625 4.703125 -17.890625 L 4.703125 -5.640625 C 4.703125 -5.390625 4.796875 -5.171875 4.984375 -4.984375 C 5.171875 -4.796875 5.390625 -4.703125 5.640625 -4.703125 Z M 5.640625 -4.703125 "/></g></g></g><g fill="#333333" fill-opacity="1"><g transform="translate(66.919239, 236.040925)"><g><path d="M 4.953125 -11.015625 C 4.710938 -11.054688 4.582031 -11.195312 4.5625 -11.4375 L 4.5625 -15.375 C 4.601562 -15.625 4.734375 -15.757812 4.953125 -15.78125 L 12.765625 -15.78125 L 12.765625 -18.8125 L 5.859375 -18.921875 C 3.429688 -18.984375 1.90625 -18.113281 1.28125 -16.3125 C 1.09375 -15.78125 1 -15.203125 1 -14.578125 L 1 -12.203125 C 1 -9.492188 2.421875 -8.0625 5.265625 -7.90625 C 5.460938 -7.882812 5.648438 -7.875 5.828125 -7.875 L 9.453125 -7.875 C 9.679688 -7.832031 9.804688 -7.695312 9.828125 -7.46875 L 9.828125 -3.4375 C 9.796875 -3.175781 9.671875 -3.035156 9.453125 -3.015625 L 1.390625 -3.015625 L 1.390625 0 L 8.5625 0.125 C 11.226562 0.195312 12.785156 -0.8125 13.234375 -2.90625 C 13.335938 -3.320312 13.390625 -3.753906 13.390625 -4.203125 L 13.390625 -6.6875 C 13.390625 -8.957031 12.320312 -10.34375 10.1875 -10.84375 C 9.675781 -10.957031 9.125 -11.015625 8.53125 -11.015625 Z M 4.953125 -11.015625 "/></g></g></g><g fill="#333333" fill-opacity="1"><g transform="translate(105.481908, 236.040925)"><g><path d="M 13.09375 0 L 13.09375 -3.015625 L 5.484375 -3.015625 L 5.484375 -8.0625 L 12.375 -8.0625 L 12.375 -11.046875 L 5.484375 -11.046875 L 5.484375 -15.78125 L 12.9375 -15.78125 L 12.9375 -18.8125 L 2.015625 -18.8125 L 2.015625 0 Z M 13.09375 0 "/></g></g></g><g fill="#333333" fill-opacity="1"><g transform="translate(143.748482, 236.040925)"><g><path d="M 5.59375 0 L 5.59375 -7.171875 L 9.328125 -7.171875 C 9.546875 -7.171875 9.703125 -7.0625 9.796875 -6.84375 C 9.796875 -6.800781 9.804688 -6.769531 9.828125 -6.75 L 12.078125 0 L 15.578125 0 L 13.59375 -5.625 C 13.257812 -6.550781 12.828125 -7.203125 12.296875 -7.578125 C 14.015625 -8.285156 14.878906 -9.628906 14.890625 -11.609375 L 14.890625 -14.59375 C 14.890625 -17.0625 13.738281 -18.476562 11.4375 -18.84375 C 11 -18.894531 10.539062 -18.921875 10.0625 -18.921875 L 2.125 -18.8125 L 2.125 0 Z M 10.921875 -15.90625 C 11.179688 -15.863281 11.320312 -15.734375 11.34375 -15.515625 L 11.34375 -10.546875 C 11.300781 -10.304688 11.160156 -10.175781 10.921875 -10.15625 L 5.59375 -10.15625 L 5.59375 -15.90625 Z M 10.921875 -15.90625 "/></g></g></g><g fill="#333333" fill-opacity="1"><g transform="translate(184.38381, 236.040925)"><g><path d="M 11.609375 -3.140625 L 15.515625 -18.8125 L 12.234375 -18.8125 L 8.5625 -3.375 C 8.457031 -3.15625 8.335938 -3.035156 8.203125 -3.015625 L 7.046875 -3.015625 L 3.640625 -18.8125 L 0.203125 -18.8125 L 4.359375 0 L 8.078125 0.09375 C 9.367188 0.113281 10.238281 -0.148438 10.6875 -0.703125 C 11.007812 -1.140625 11.316406 -1.953125 11.609375 -3.140625 Z M 11.609375 -3.140625 "/></g></g></g><g fill="#333333" fill-opacity="1"><g transform="translate(224.338126, 236.040925)"><g><path d="M 5.828125 0 L 5.828125 -18.8125 L 2.375 -18.8125 L 2.375 0 Z M 5.828125 0 "/></g></g></g><g fill="#333333" fill-opacity="1"><g transform="translate(256.771642, 236.040925)"><g><path d="M 12.5625 -3.140625 L 5.5625 -3.140625 C 5.351562 -3.179688 5.238281 -3.300781 5.21875 -3.5 L 5.21875 -15.3125 C 5.25 -15.53125 5.363281 -15.648438 5.5625 -15.671875 L 12.5625 -15.671875 L 12.5625 -18.8125 L 6.3125 -18.8125 C 3.425781 -18.8125 1.894531 -17.613281 1.71875 -15.21875 C 1.695312 -15.039062 1.6875 -14.863281 1.6875 -14.6875 L 1.6875 -4.109375 C 1.726562 -1.390625 3.269531 -0.0195312 6.3125 0 L 12.5625 0 Z M 12.5625 -3.140625 "/></g></g></g><g fill="#333333" fill-opacity="1"><g transform="translate(294.061096, 236.040925)"><g><path d="M 13.09375 0 L 13.09375 -3.015625 L 5.484375 -3.015625 L 5.484375 -8.0625 L 12.375 -8.0625 L 12.375 -11.046875 L 5.484375 -11.046875 L 5.484375 -15.78125 L 12.9375 -15.78125 L 12.9375 -18.8125 L 2.015625 -18.8125 L 2.015625 0 Z M 13.09375 0 "/></g></g></g></svg>