<svg xmlns="http://www.w3.org/2000/svg" version="1.1" xmlns:xlink="http://www.w3.org/1999/xlink" width="512" height="512" x="0" y="0" viewBox="0 0 512 512" style="enable-background:new 0 0 512 512" xml:space="preserve" class=""><g><rect width="446" height="305.613" fill="#ed3400" rx="25.31" opacity="0.6901960784313725" data-original="#e57e25" class=""></rect><path fill="#ed3400" d="M435.739 300.212A26.13 26.13 0 0 0 446 279.434V26.179A26.179 26.179 0 0 0 419.821 0H166.508L435.2 300.014z" opacity="0.6901960784313725" data-original="#f29c1f" class=""></path><path fill="#ed3400" d="M279.492 0H26.179A26.179 26.179 0 0 0 0 26.179v253.255a26.124 26.124 0 0 0 9.7 20.334l1.1.246z" opacity="0.6901960784313725" data-original="#f29c1f" class=""></path><path fill="#f83600" d="M419.821 0H26.179A26.179 26.179 0 0 0 0 26.179v10.063l188.916 130.177a60.068 60.068 0 0 0 68.168 0L446 36.242V26.179A26.179 26.179 0 0 0 419.821 0z" opacity="1" data-original="#f0c419" class=""></path><path fill="#ff5364" d="M116.126 512a8 8 0 0 1-5.157-14.119l110.588-91.916a8 8 0 1 1 10.306 12.235l-110.587 91.919a7.97 7.97 0 0 1-5.15 1.881z" opacity="1" data-original="#ff5364" class=""></path><path fill="#f83600" d="M209.927 494.588a8 8 0 0 1-5.275-14.018l27.222-24.87a8 8 0 1 1 10.543 12.035l-27.217 24.87a7.967 7.967 0 0 1-5.273 1.983z" opacity="1" data-original="#35acef" class=""></path><path fill="#1f8dbd" d="m239.598 336.348 50.471 120.895 92.207-138.322 129.63-123.515z" opacity="1" data-original="#285680" class=""></path><path fill="#0039a6" d="m511.906 194.516-266.03 155.177-78.277-20.307z" opacity="1" data-original="#7ed0fc" class=""></path><path fill="#f83600" d="M418.218 297.138 290.069 457.243l15.123-91.701z" opacity="1" data-original="#35acef" class=""></path><path fill="#0039a6" d="M511.906 195.406c.073-.227.169-.4 0-.232L305.192 365.542 433.246 400.4z" opacity="1" data-original="#7ed0fc" class=""></path></g></svg>