<svg xmlns="http://www.w3.org/2000/svg" xmlns:xlink="http://www.w3.org/1999/xlink" width="280" zoomAndPan="magnify" viewBox="0 0 210 60" height="80" preserveAspectRatio="xMidYMid meet" version="1.0"><defs><g/><clipPath id="1f35e9b534"><path d="M 20.191406 40 L 69 40 L 69 49 L 20.191406 49 Z M 20.191406 40 " clip-rule="nonzero"/></clipPath></defs><rect x="-21" width="252" fill="#ffffff" y="-6" height="72" fill-opacity="1"/><rect x="-21" width="252" fill="#000000" y="-6" height="72" fill-opacity="1"/><path fill="#ffffff" d="M 76.800781 46.402344 C 78.496094 43.953125 80.648438 42.0625 83.976562 41.613281 C 90.421875 40.742188 92.636719 48.734375 81.179688 52.078125 C 94.488281 50.398438 91.242188 39.207031 83.722656 40.519531 C 80.109375 41.152344 78.011719 43.328125 76.800781 46.402344 " fill-opacity="1" fill-rule="nonzero"/><path fill="#ffffff" d="M 77.945312 42.570312 C 75.144531 37.164062 67.058594 44.847656 64.601562 47.386719 C 63.65625 48.367188 60.890625 52.15625 64.160156 51.105469 C 68.675781 49.652344 72.445312 47.300781 78.441406 51.496094 C 72.3125 48.988281 68.109375 50.980469 64.542969 52.234375 C 59.195312 54.117188 61.84375 48.699219 63.917969 46.488281 C 66.261719 43.988281 76.523438 35.429688 77.945312 42.570312 " fill-opacity="1" fill-rule="nonzero"/><g clip-path="url(#1f35e9b534)"><path fill="#ffffff" d="M 68.257812 41.128906 C 63.457031 44.628906 57.675781 45.90625 52.441406 43.597656 C 42.40625 39.175781 43.011719 42.007812 34.664062 45.8125 C 29.914062 47.976562 25.082031 48.414062 20.191406 47.695312 C 25.066406 47.796875 29.789062 47.007812 34.265625 44.789062 C 42.785156 40.570312 42.375 37.996094 52.738281 42.488281 C 58.242188 44.867188 62.25 43.679688 68.257812 41.128906 " fill-opacity="1" fill-rule="nonzero"/></g><path fill="#ffffff" d="M 51.984375 28.265625 C 52.261719 25.472656 52.96875 23.664062 55.136719 22.269531 C 57.144531 20.980469 59.058594 20.484375 59.90625 18.207031 C 60.847656 15.675781 60.90625 12.898438 63.113281 11.476562 C 67.59375 8.589844 71.433594 13.519531 70.101562 17.09375 C 69.226562 19.445312 64.371094 24.328125 61.445312 21.511719 C 63.902344 25.851562 69.921875 19.828125 70.863281 17.277344 C 72.515625 12.808594 68.164062 7.015625 62.589844 10.574219 C 59.992188 12.234375 59.9375 15.035156 58.734375 18.007812 C 57.953125 19.933594 56.382812 20.300781 54.476562 21.421875 C 51.949219 22.90625 50.972656 25.003906 50.679688 28.050781 C 49.746094 37.765625 46.890625 34.785156 43.617188 39.90625 C 48.554688 35.640625 51.089844 37.234375 51.984375 28.265625 " fill-opacity="1" fill-rule="nonzero"/><path fill="#ffffff" d="M 62.882812 25.492188 C 66.164062 28.429688 63.488281 35.636719 69.792969 39.957031 C 64.226562 33.375 67.691406 29.125 62.882812 25.492188 " fill-opacity="1" fill-rule="nonzero"/><path fill="#ffffff" d="M 57.6875 27.183594 C 59.761719 29.730469 59.765625 31.496094 61.03125 34.015625 C 62.167969 36.28125 65.136719 39.070312 66.746094 40.699219 C 65.667969 39.320312 62.992188 35.820312 61.902344 33.746094 C 60.550781 31.183594 60.621094 29.027344 57.6875 27.183594 " fill-opacity="1" fill-rule="nonzero"/><path fill="#ffffff" d="M 55.292969 33.058594 C 56.292969 36.5625 60.066406 39.246094 63.871094 42.042969 C 60.390625 40.242188 55.148438 37.730469 55.292969 33.058594 " fill-opacity="1" fill-rule="nonzero"/><path fill="#ffffff" d="M 62.152344 10.472656 C 60.914062 6.550781 65.75 5.875 65.277344 9.265625 C 64.378906 7.070312 62.109375 7.859375 62.152344 10.472656 " fill-opacity="1" fill-rule="nonzero"/><g fill="#ffffff" fill-opacity="1"><g transform="translate(94.49271, 35.499602)"><g><path d="M 18.328125 -0.203125 L 18.65625 -0.203125 L 18.65625 0 L 14.234375 0 L 14.234375 -0.1875 L 14.53125 -0.1875 C 14.757812 -0.1875 14.957031 -0.273438 15.125 -0.453125 C 15.289062 -0.640625 15.359375 -0.84375 15.328125 -1.0625 L 14.421875 -11.296875 L 10.140625 -1.796875 C 9.753906 -0.960938 9.523438 -0.269531 9.453125 0.28125 L 9.25 0.28125 L 4.03125 -11.015625 L 3.15625 -1.0625 C 3.125 -0.84375 3.191406 -0.640625 3.359375 -0.453125 C 3.523438 -0.273438 3.710938 -0.1875 3.921875 -0.1875 L 4.25 -0.1875 L 4.25 0 L 0.3125 0 L 0.3125 -0.203125 L 0.625 -0.203125 C 1.007812 -0.203125 1.335938 -0.316406 1.609375 -0.546875 C 1.890625 -0.773438 2.0625 -1.085938 2.125 -1.484375 L 3.640625 -14.53125 L 3.84375 -14.53125 L 9.53125 -2.265625 L 15.09375 -14.53125 L 15.265625 -14.53125 L 16.84375 -1.484375 C 16.90625 -0.941406 17.175781 -0.5625 17.65625 -0.34375 C 17.851562 -0.25 18.078125 -0.203125 18.328125 -0.203125 Z M 18.328125 -0.203125 "/></g></g></g><g fill="#ffffff" fill-opacity="1"><g transform="translate(113.453151, 35.499602)"><g><path d="M 14.578125 -0.203125 L 14.734375 -0.203125 L 14.734375 0 L 10.15625 0 L 10.15625 -0.203125 L 10.34375 -0.203125 C 10.625 -0.203125 10.832031 -0.289062 10.96875 -0.46875 C 11.113281 -0.65625 11.1875 -0.828125 11.1875 -0.984375 C 11.1875 -1.148438 11.160156 -1.316406 11.109375 -1.484375 L 9.8125 -4.953125 L 4.3125 -4.953125 L 2.953125 -1.46875 C 2.890625 -1.300781 2.859375 -1.140625 2.859375 -0.984375 C 2.859375 -0.828125 2.929688 -0.65625 3.078125 -0.46875 C 3.222656 -0.289062 3.4375 -0.203125 3.71875 -0.203125 L 3.90625 -0.203125 L 3.90625 0 L -0.1875 0 L -0.1875 -0.203125 L 0 -0.203125 C 0.332031 -0.203125 0.660156 -0.3125 0.984375 -0.53125 C 1.316406 -0.75 1.582031 -1.066406 1.78125 -1.484375 L 6.390625 -12.4375 C 6.890625 -13.539062 7.140625 -14.238281 7.140625 -14.53125 L 7.328125 -14.53125 L 12.78125 -1.484375 C 12.96875 -1.066406 13.222656 -0.75 13.546875 -0.53125 C 13.878906 -0.3125 14.222656 -0.203125 14.578125 -0.203125 Z M 4.5625 -5.5625 L 9.5625 -5.5625 L 7.125 -12.09375 Z M 4.5625 -5.5625 "/></g></g></g><g fill="#ffffff" fill-opacity="1"><g transform="translate(127.953513, 35.499602)"><g><path d="M 1.234375 -0.828125 C 1.203125 -1.023438 1.1875 -1.394531 1.1875 -1.9375 C 1.1875 -2.476562 1.285156 -3.054688 1.484375 -3.671875 L 1.671875 -3.671875 C 1.660156 -3.515625 1.65625 -3.363281 1.65625 -3.21875 C 1.65625 -2.382812 1.90625 -1.691406 2.40625 -1.140625 C 2.90625 -0.597656 3.566406 -0.328125 4.390625 -0.328125 C 5.253906 -0.328125 5.957031 -0.582031 6.5 -1.09375 C 7.050781 -1.613281 7.328125 -2.265625 7.328125 -3.046875 C 7.328125 -3.828125 7.0625 -4.460938 6.53125 -4.953125 L 2.625 -8.578125 C 1.894531 -9.253906 1.53125 -10.070312 1.53125 -11.03125 C 1.53125 -12 1.851562 -12.820312 2.5 -13.5 C 3.144531 -14.1875 4.015625 -14.53125 5.109375 -14.53125 C 5.628906 -14.53125 6.210938 -14.460938 6.859375 -14.328125 L 7.65625 -14.328125 L 7.65625 -11.828125 L 7.46875 -11.828125 C 7.46875 -12.460938 7.25 -12.96875 6.8125 -13.34375 C 6.375 -13.726562 5.804688 -13.921875 5.109375 -13.921875 C 4.421875 -13.921875 3.84375 -13.691406 3.375 -13.234375 C 2.90625 -12.773438 2.671875 -12.195312 2.671875 -11.5 C 2.671875 -10.8125 2.941406 -10.21875 3.484375 -9.71875 L 7.5 -6 C 8.175781 -5.375 8.515625 -4.519531 8.515625 -3.4375 C 8.515625 -2.351562 8.164062 -1.460938 7.46875 -0.765625 C 6.78125 -0.0664062 5.859375 0.28125 4.703125 0.28125 C 4.109375 0.28125 3.472656 0.1875 2.796875 0 C 2.128906 -0.175781 1.609375 -0.453125 1.234375 -0.828125 Z M 1.234375 -0.828125 "/></g></g></g><g fill="#ffffff" fill-opacity="1"><g transform="translate(137.627205, 35.499602)"><g><path d="M 1.234375 -0.828125 C 1.203125 -1.023438 1.1875 -1.394531 1.1875 -1.9375 C 1.1875 -2.476562 1.285156 -3.054688 1.484375 -3.671875 L 1.671875 -3.671875 C 1.660156 -3.515625 1.65625 -3.363281 1.65625 -3.21875 C 1.65625 -2.382812 1.90625 -1.691406 2.40625 -1.140625 C 2.90625 -0.597656 3.566406 -0.328125 4.390625 -0.328125 C 5.253906 -0.328125 5.957031 -0.582031 6.5 -1.09375 C 7.050781 -1.613281 7.328125 -2.265625 7.328125 -3.046875 C 7.328125 -3.828125 7.0625 -4.460938 6.53125 -4.953125 L 2.625 -8.578125 C 1.894531 -9.253906 1.53125 -10.070312 1.53125 -11.03125 C 1.53125 -12 1.851562 -12.820312 2.5 -13.5 C 3.144531 -14.1875 4.015625 -14.53125 5.109375 -14.53125 C 5.628906 -14.53125 6.210938 -14.460938 6.859375 -14.328125 L 7.65625 -14.328125 L 7.65625 -11.828125 L 7.46875 -11.828125 C 7.46875 -12.460938 7.25 -12.96875 6.8125 -13.34375 C 6.375 -13.726562 5.804688 -13.921875 5.109375 -13.921875 C 4.421875 -13.921875 3.84375 -13.691406 3.375 -13.234375 C 2.90625 -12.773438 2.671875 -12.195312 2.671875 -11.5 C 2.671875 -10.8125 2.941406 -10.21875 3.484375 -9.71875 L 7.5 -6 C 8.175781 -5.375 8.515625 -4.519531 8.515625 -3.4375 C 8.515625 -2.351562 8.164062 -1.460938 7.46875 -0.765625 C 6.78125 -0.0664062 5.859375 0.28125 4.703125 0.28125 C 4.109375 0.28125 3.472656 0.1875 2.796875 0 C 2.128906 -0.175781 1.609375 -0.453125 1.234375 -0.828125 Z M 1.234375 -0.828125 "/></g></g></g><g fill="#ffffff" fill-opacity="1"><g transform="translate(147.300897, 35.499602)"><g><path d="M 14.578125 -0.203125 L 14.734375 -0.203125 L 14.734375 0 L 10.15625 0 L 10.15625 -0.203125 L 10.34375 -0.203125 C 10.625 -0.203125 10.832031 -0.289062 10.96875 -0.46875 C 11.113281 -0.65625 11.1875 -0.828125 11.1875 -0.984375 C 11.1875 -1.148438 11.160156 -1.316406 11.109375 -1.484375 L 9.8125 -4.953125 L 4.3125 -4.953125 L 2.953125 -1.46875 C 2.890625 -1.300781 2.859375 -1.140625 2.859375 -0.984375 C 2.859375 -0.828125 2.929688 -0.65625 3.078125 -0.46875 C 3.222656 -0.289062 3.4375 -0.203125 3.71875 -0.203125 L 3.90625 -0.203125 L 3.90625 0 L -0.1875 0 L -0.1875 -0.203125 L 0 -0.203125 C 0.332031 -0.203125 0.660156 -0.3125 0.984375 -0.53125 C 1.316406 -0.75 1.582031 -1.066406 1.78125 -1.484375 L 6.390625 -12.4375 C 6.890625 -13.539062 7.140625 -14.238281 7.140625 -14.53125 L 7.328125 -14.53125 L 12.78125 -1.484375 C 12.96875 -1.066406 13.222656 -0.75 13.546875 -0.53125 C 13.878906 -0.3125 14.222656 -0.203125 14.578125 -0.203125 Z M 4.5625 -5.5625 L 9.5625 -5.5625 L 7.125 -12.09375 Z M 4.5625 -5.5625 "/></g></g></g><g fill="#ffffff" fill-opacity="1"><g transform="translate(161.801258, 35.499602)"><g><path d="M 8.53125 0.28125 C 6.351562 0.269531 4.585938 -0.410156 3.234375 -1.765625 C 1.890625 -3.128906 1.21875 -4.914062 1.21875 -7.125 C 1.21875 -9.332031 1.890625 -11.117188 3.234375 -12.484375 C 4.585938 -13.847656 6.351562 -14.53125 8.53125 -14.53125 C 10.40625 -14.53125 12.054688 -14.070312 13.484375 -13.15625 L 13.890625 -10.28125 L 13.703125 -10.28125 C 13.398438 -11.445312 12.796875 -12.34375 11.890625 -12.96875 C 10.992188 -13.601562 9.875 -13.921875 8.53125 -13.921875 C 6.800781 -13.921875 5.40625 -13.296875 4.34375 -12.046875 C 3.28125 -10.796875 2.75 -9.15625 2.75 -7.125 C 2.75 -5.09375 3.28125 -3.453125 4.34375 -2.203125 C 5.40625 -0.960938 6.800781 -0.335938 8.53125 -0.328125 C 9.414062 -0.328125 10.253906 -0.484375 11.046875 -0.796875 C 11.835938 -1.109375 12.53125 -1.539062 13.125 -2.09375 L 13.125 -5.703125 C 13.125 -6.003906 13.03125 -6.226562 12.84375 -6.375 C 12.664062 -6.53125 12.414062 -6.609375 12.09375 -6.609375 L 11.765625 -6.609375 L 11.765625 -6.828125 L 15.765625 -6.828125 L 15.765625 -6.609375 L 15.453125 -6.609375 C 15.109375 -6.609375 14.847656 -6.53125 14.671875 -6.375 C 14.503906 -6.226562 14.425781 -6.003906 14.4375 -5.703125 L 14.4375 -2.34375 C 14.082031 -1.882812 13.660156 -1.46875 13.171875 -1.09375 C 12.679688 -0.726562 12.023438 -0.40625 11.203125 -0.125 C 10.378906 0.144531 9.488281 0.28125 8.53125 0.28125 Z M 8.53125 0.28125 "/></g></g></g><g fill="#ffffff" fill-opacity="1"><g transform="translate(178.053066, 35.499602)"><g><path d="M 1.484375 -0.203125 C 1.835938 -0.203125 2.140625 -0.328125 2.390625 -0.578125 C 2.640625 -0.828125 2.773438 -1.128906 2.796875 -1.484375 L 2.796875 -12.890625 C 2.753906 -13.210938 2.609375 -13.484375 2.359375 -13.703125 C 2.117188 -13.929688 1.828125 -14.046875 1.484375 -14.046875 L 1.234375 -14.046875 L 1.21875 -14.25 L 7.1875 -14.25 C 7.601562 -14.25 8.054688 -14.289062 8.546875 -14.375 C 9.046875 -14.457031 9.398438 -14.539062 9.609375 -14.625 L 9.609375 -12.046875 L 9.40625 -12.046875 L 9.40625 -12.421875 C 9.40625 -12.742188 9.289062 -13.019531 9.0625 -13.25 C 8.84375 -13.476562 8.578125 -13.601562 8.265625 -13.625 L 4.109375 -13.625 L 4.109375 -7.328125 L 7.546875 -7.328125 C 7.816406 -7.335938 8.046875 -7.4375 8.234375 -7.625 C 8.429688 -7.820312 8.53125 -8.0625 8.53125 -8.34375 L 8.53125 -8.625 L 8.734375 -8.625 L 8.734375 -5.421875 L 8.53125 -5.421875 L 8.53125 -5.71875 C 8.53125 -5.988281 8.4375 -6.21875 8.25 -6.40625 C 8.070312 -6.601562 7.847656 -6.707031 7.578125 -6.71875 L 4.109375 -6.71875 L 4.109375 -0.625 L 7.03125 -0.625 C 8.03125 -0.625 8.796875 -0.847656 9.328125 -1.296875 C 9.859375 -1.742188 10.296875 -2.410156 10.640625 -3.296875 L 10.84375 -3.296875 L 9.671875 0 L 1.21875 0 L 1.21875 -0.203125 Z M 1.484375 -0.203125 "/></g></g></g></svg>