<svg xmlns="http://www.w3.org/2000/svg" xmlns:xlink="http://www.w3.org/1999/xlink" width="500" zoomAndPan="magnify" viewBox="0 0 375 102.749999" height="137" preserveAspectRatio="xMidYMid meet" version="1.0"><defs><g/></defs><g fill="#322f30" fill-opacity="1"><g transform="translate(28.862189, 67.698193)"><g><path d="M 58.234375 0 L 55.171875 -38.375 L 54.78125 -38.375 L 41.515625 -0.390625 L 32.734375 -0.390625 L 19.46875 -38.375 L 19.078125 -38.375 L 16.015625 0 L 1.25 0 L 7.0625 -64.75 L 22.765625 -64.75 L 37.125 -27.390625 L 51.484375 -64.75 L 67.1875 -64.75 L 72.984375 0 Z M 58.234375 0 "/></g></g></g><g fill="#322f30" fill-opacity="1"><g transform="translate(96.422162, 67.698193)"><g><path d="M 45.4375 -18.203125 L 16.25 -18.203125 C 16.25 -15.378906 17.160156 -13.285156 18.984375 -11.921875 C 20.816406 -10.566406 22.804688 -9.890625 24.953125 -9.890625 C 27.203125 -9.890625 28.976562 -10.1875 30.28125 -10.78125 C 31.59375 -11.382812 33.085938 -12.578125 34.765625 -14.359375 L 44.8125 -9.34375 C 40.625 -2.332031 33.664062 1.171875 23.9375 1.171875 C 17.863281 1.171875 12.65625 -0.90625 8.3125 -5.0625 C 3.976562 -9.21875 1.8125 -14.222656 1.8125 -20.078125 C 1.8125 -25.941406 3.976562 -30.96875 8.3125 -35.15625 C 12.65625 -39.34375 17.863281 -41.4375 23.9375 -41.4375 C 30.320312 -41.4375 35.515625 -39.59375 39.515625 -35.90625 C 43.515625 -32.21875 45.515625 -26.945312 45.515625 -20.09375 C 45.515625 -19.144531 45.488281 -18.515625 45.4375 -18.203125 Z M 16.640625 -25.90625 L 31.9375 -25.90625 C 31.625 -28 30.800781 -29.601562 29.46875 -30.71875 C 28.132812 -31.84375 26.421875 -32.40625 24.328125 -32.40625 C 22.023438 -32.40625 20.191406 -31.800781 18.828125 -30.59375 C 17.472656 -29.394531 16.742188 -27.832031 16.640625 -25.90625 Z M 16.640625 -25.90625 "/></g></g></g><g fill="#322f30" fill-opacity="1"><g transform="translate(137.067607, 67.698193)"><g><path d="M 7.453125 -4.984375 C 3.691406 -9.085938 1.8125 -14.125 1.8125 -20.09375 C 1.8125 -26.0625 3.691406 -31.109375 7.453125 -35.234375 C 11.222656 -39.367188 16.007812 -41.4375 21.8125 -41.4375 C 27.15625 -41.4375 31.550781 -39.765625 35 -36.421875 L 35 -67.5 L 48.890625 -67.5 L 48.890625 0 L 35.15625 0 L 35.15625 -4.546875 L 35 -4.546875 C 31.550781 -0.734375 27.15625 1.171875 21.8125 1.171875 C 16.007812 1.171875 11.222656 -0.878906 7.453125 -4.984375 Z M 19.265625 -26.921875 C 17.460938 -25.140625 16.5625 -22.863281 16.5625 -20.09375 C 16.5625 -17.320312 17.421875 -15.054688 19.140625 -13.296875 C 20.867188 -11.546875 23.148438 -10.671875 25.984375 -10.671875 C 28.703125 -10.671875 30.9375 -11.5625 32.6875 -13.34375 C 34.4375 -15.125 35.3125 -17.375 35.3125 -20.09375 C 35.3125 -22.863281 34.410156 -25.140625 32.609375 -26.921875 C 30.804688 -28.703125 28.597656 -29.59375 25.984375 -29.59375 C 23.304688 -29.59375 21.066406 -28.703125 19.265625 -26.921875 Z M 19.265625 -26.921875 "/></g></g></g><g fill="#0077b6" fill-opacity="1"><g transform="translate(183.998297, 67.698193)"><g><path d="M 42.140625 -64.75 L 42.140625 -51.796875 L 19.46875 -51.796875 L 19.46875 -38.921875 L 40.421875 -38.921875 L 40.421875 -25.984375 L 19.46875 -25.984375 L 19.46875 0 L 4.703125 0 L 4.703125 -64.75 Z M 42.140625 -64.75 "/></g></g></g><g fill="#0077b6" fill-opacity="1"><g transform="translate(221.818891, 67.698193)"><g><path d="M 7.453125 -4.984375 C 3.691406 -9.085938 1.8125 -14.125 1.8125 -20.09375 C 1.8125 -26.0625 3.691406 -31.109375 7.453125 -35.234375 C 11.222656 -39.367188 16.007812 -41.4375 21.8125 -41.4375 C 27.15625 -41.4375 31.550781 -39.765625 35 -36.421875 L 35 -40.265625 L 48.890625 -40.265625 L 48.890625 0 L 35.15625 0 L 35.15625 -4.546875 L 35 -4.546875 C 31.550781 -0.734375 27.15625 1.171875 21.8125 1.171875 C 16.007812 1.171875 11.222656 -0.878906 7.453125 -4.984375 Z M 19.265625 -26.921875 C 17.460938 -25.140625 16.5625 -22.863281 16.5625 -20.09375 C 16.5625 -17.320312 17.421875 -15.054688 19.140625 -13.296875 C 20.867188 -11.546875 23.148438 -10.671875 25.984375 -10.671875 C 28.703125 -10.671875 30.9375 -11.5625 32.6875 -13.34375 C 34.4375 -15.125 35.3125 -17.375 35.3125 -20.09375 C 35.3125 -22.863281 34.410156 -25.140625 32.609375 -26.921875 C 30.804688 -28.703125 28.597656 -29.59375 25.984375 -29.59375 C 23.304688 -29.59375 21.066406 -28.703125 19.265625 -26.921875 Z M 19.265625 -26.921875 "/></g></g></g><g fill="#0077b6" fill-opacity="1"><g transform="translate(268.741772, 67.698193)"><g><path d="M 4.703125 0 L 4.703125 -40.265625 L 18.59375 -40.265625 L 18.59375 -36.03125 L 18.75 -36.03125 C 22.363281 -39.632812 26.210938 -41.4375 30.296875 -41.4375 C 33.222656 -41.4375 35.96875 -40.832031 38.53125 -39.625 C 41.09375 -38.425781 43.03125 -36.570312 44.34375 -34.0625 C 48.425781 -38.976562 52.875 -41.4375 57.6875 -41.4375 C 61.976562 -41.4375 65.664062 -40.234375 68.75 -37.828125 C 71.84375 -35.421875 73.390625 -31.65625 73.390625 -26.53125 L 73.390625 0 L 59.484375 0 L 59.484375 -22.765625 C 59.484375 -24.910156 58.894531 -26.703125 57.71875 -28.140625 C 56.539062 -29.578125 54.773438 -30.296875 52.421875 -30.296875 C 50.378906 -30.296875 48.820312 -29.679688 47.75 -28.453125 C 46.6875 -27.222656 46.097656 -25.742188 45.984375 -24.015625 L 45.984375 0 L 32.09375 0 L 32.09375 -22.765625 C 32.09375 -24.910156 31.503906 -26.703125 30.328125 -28.140625 C 29.148438 -29.578125 27.382812 -30.296875 25.03125 -30.296875 C 22.882812 -30.296875 21.273438 -29.628906 20.203125 -28.296875 C 19.128906 -26.960938 18.59375 -25.378906 18.59375 -23.546875 L 18.59375 0 Z M 4.703125 0 "/></g></g></g><g fill="#322f30" fill-opacity="1"><g transform="translate(13.714695, 96.446978)"><g><path d="M 18.28125 -15.21875 L 18.28125 0 L 16.734375 0 L 16.734375 -12.171875 L 10.765625 -1.9375 L 10 -1.9375 L 4.015625 -12.109375 L 4.015625 0 L 2.484375 0 L 2.484375 -15.21875 L 3.796875 -15.21875 L 10.40625 -3.9375 L 16.953125 -15.21875 Z M 18.28125 -15.21875 "/></g></g></g><g fill="#322f30" fill-opacity="1"><g transform="translate(39.898918, 96.446978)"><g><path d="M 13.234375 -1.390625 L 13.234375 0 L 2.484375 0 L 2.484375 -15.21875 L 12.90625 -15.21875 L 12.90625 -13.828125 L 4.09375 -13.828125 L 4.09375 -8.40625 L 11.953125 -8.40625 L 11.953125 -7.046875 L 4.09375 -7.046875 L 4.09375 -1.390625 Z M 13.234375 -1.390625 "/></g></g></g><g fill="#322f30" fill-opacity="1"><g transform="translate(59.869377, 96.446978)"><g><path d="M 2.484375 -15.21875 L 8.671875 -15.21875 C 10.273438 -15.21875 11.691406 -14.894531 12.921875 -14.25 C 14.160156 -13.601562 15.117188 -12.703125 15.796875 -11.546875 C 16.484375 -10.398438 16.828125 -9.085938 16.828125 -7.609375 C 16.828125 -6.128906 16.484375 -4.8125 15.796875 -3.65625 C 15.117188 -2.507812 14.160156 -1.613281 12.921875 -0.96875 C 11.691406 -0.320312 10.273438 0 8.671875 0 L 2.484375 0 Z M 8.578125 -1.390625 C 9.910156 -1.390625 11.078125 -1.65625 12.078125 -2.1875 C 13.078125 -2.71875 13.851562 -3.445312 14.40625 -4.375 C 14.957031 -5.3125 15.234375 -6.390625 15.234375 -7.609375 C 15.234375 -8.828125 14.957031 -9.898438 14.40625 -10.828125 C 13.851562 -11.765625 13.078125 -12.5 12.078125 -13.03125 C 11.078125 -13.5625 9.910156 -13.828125 8.578125 -13.828125 L 4.09375 -13.828125 L 4.09375 -1.390625 Z M 8.578125 -1.390625 "/></g></g></g><g fill="#322f30" fill-opacity="1"><g transform="translate(83.25088, 96.446978)"><g><path d="M 2.484375 -15.21875 L 4.09375 -15.21875 L 4.09375 0 L 2.484375 0 Z M 2.484375 -15.21875 "/></g></g></g><g fill="#322f30" fill-opacity="1"><g transform="translate(95.247722, 96.446978)"><g><path d="M 9.078125 0.125 C 7.578125 0.125 6.21875 -0.207031 5 -0.875 C 3.789062 -1.539062 2.84375 -2.460938 2.15625 -3.640625 C 1.46875 -4.816406 1.125 -6.140625 1.125 -7.609375 C 1.125 -9.066406 1.46875 -10.382812 2.15625 -11.5625 C 2.84375 -12.75 3.796875 -13.675781 5.015625 -14.34375 C 6.234375 -15.007812 7.597656 -15.34375 9.109375 -15.34375 C 10.234375 -15.34375 11.273438 -15.15625 12.234375 -14.78125 C 13.191406 -14.40625 14.003906 -13.851562 14.671875 -13.125 L 13.65625 -12.109375 C 12.457031 -13.304688 10.957031 -13.90625 9.15625 -13.90625 C 7.945312 -13.90625 6.847656 -13.628906 5.859375 -13.078125 C 4.878906 -12.535156 4.109375 -11.785156 3.546875 -10.828125 C 2.992188 -9.867188 2.71875 -8.796875 2.71875 -7.609375 C 2.71875 -6.421875 2.992188 -5.347656 3.546875 -4.390625 C 4.109375 -3.429688 4.878906 -2.675781 5.859375 -2.125 C 6.847656 -1.570312 7.945312 -1.296875 9.15625 -1.296875 C 10.976562 -1.296875 12.476562 -1.90625 13.65625 -3.125 L 14.671875 -2.109375 C 14.003906 -1.378906 13.1875 -0.820312 12.21875 -0.4375 C 11.257812 -0.0625 10.210938 0.125 9.078125 0.125 Z M 9.078125 0.125 "/></g></g></g><g fill="#322f30" fill-opacity="1"><g transform="translate(116.304496, 96.446978)"><g><path d="M 2.484375 -15.21875 L 4.09375 -15.21875 L 4.09375 0 L 2.484375 0 Z M 2.484375 -15.21875 "/></g></g></g><g fill="#322f30" fill-opacity="1"><g transform="translate(128.301344, 96.446978)"><g><path d="M 15.1875 -15.21875 L 15.1875 0 L 13.859375 0 L 4.09375 -12.34375 L 4.09375 0 L 2.484375 0 L 2.484375 -15.21875 L 3.796875 -15.21875 L 13.609375 -2.875 L 13.609375 -15.21875 Z M 15.1875 -15.21875 "/></g></g></g><g fill="#322f30" fill-opacity="1"><g transform="translate(151.400407, 96.446978)"><g><path d="M 12.015625 -4.0625 L 3.546875 -4.0625 L 1.71875 0 L 0.046875 0 L 7 -15.21875 L 8.578125 -15.21875 L 15.546875 0 L 13.84375 0 Z M 11.4375 -5.375 L 7.78125 -13.546875 L 4.125 -5.375 Z M 7.8125 -16.34375 C 6.882812 -16.34375 6.109375 -16.59375 5.484375 -17.09375 C 4.859375 -17.601562 4.53125 -18.285156 4.5 -19.140625 L 5.59375 -19.140625 C 5.601562 -18.578125 5.816406 -18.128906 6.234375 -17.796875 C 6.660156 -17.460938 7.1875 -17.296875 7.8125 -17.296875 C 8.4375 -17.296875 8.957031 -17.460938 9.375 -17.796875 C 9.789062 -18.128906 10.007812 -18.578125 10.03125 -19.140625 L 11.109375 -19.140625 C 11.078125 -18.285156 10.75 -17.601562 10.125 -17.09375 C 9.507812 -16.59375 8.738281 -16.34375 7.8125 -16.34375 Z M 7.8125 -16.34375 "/></g></g></g><g fill="#322f30" fill-opacity="1"><g transform="translate(172.413737, 96.446978)"><g/></g></g><g fill="#322f30" fill-opacity="1"><g transform="translate(183.541531, 96.446978)"><g><path d="M 2.484375 -15.21875 L 8.671875 -15.21875 C 10.273438 -15.21875 11.691406 -14.894531 12.921875 -14.25 C 14.160156 -13.601562 15.117188 -12.703125 15.796875 -11.546875 C 16.484375 -10.398438 16.828125 -9.085938 16.828125 -7.609375 C 16.828125 -6.128906 16.484375 -4.8125 15.796875 -3.65625 C 15.117188 -2.507812 14.160156 -1.613281 12.921875 -0.96875 C 11.691406 -0.320312 10.273438 0 8.671875 0 L 2.484375 0 Z M 8.578125 -1.390625 C 9.910156 -1.390625 11.078125 -1.65625 12.078125 -2.1875 C 13.078125 -2.71875 13.851562 -3.445312 14.40625 -4.375 C 14.957031 -5.3125 15.234375 -6.390625 15.234375 -7.609375 C 15.234375 -8.828125 14.957031 -9.898438 14.40625 -10.828125 C 13.851562 -11.765625 13.078125 -12.5 12.078125 -13.03125 C 11.078125 -13.5625 9.910156 -13.828125 8.578125 -13.828125 L 4.09375 -13.828125 L 4.09375 -1.390625 Z M 8.578125 -1.390625 "/></g></g></g><g fill="#322f30" fill-opacity="1"><g transform="translate(206.923028, 96.446978)"><g><path d="M 13.234375 -1.390625 L 13.234375 0 L 2.484375 0 L 2.484375 -15.21875 L 12.90625 -15.21875 L 12.90625 -13.828125 L 4.09375 -13.828125 L 4.09375 -8.40625 L 11.953125 -8.40625 L 11.953125 -7.046875 L 4.09375 -7.046875 L 4.09375 -1.390625 Z M 13.234375 -1.390625 "/></g></g></g><g fill="#322f30" fill-opacity="1"><g transform="translate(226.89349, 96.446978)"><g/></g></g><g fill="#322f30" fill-opacity="1"><g transform="translate(238.021272, 96.446978)"><g><path d="M 4.09375 -13.828125 L 4.09375 -7.84375 L 11.953125 -7.84375 L 11.953125 -6.453125 L 4.09375 -6.453125 L 4.09375 0 L 2.484375 0 L 2.484375 -15.21875 L 12.90625 -15.21875 L 12.90625 -13.828125 Z M 4.09375 -13.828125 "/></g></g></g><g fill="#322f30" fill-opacity="1"><g transform="translate(257.209581, 96.446978)"><g><path d="M 12.015625 -4.0625 L 3.546875 -4.0625 L 1.71875 0 L 0.046875 0 L 7 -15.21875 L 8.578125 -15.21875 L 15.546875 0 L 13.84375 0 Z M 11.4375 -5.375 L 7.78125 -13.546875 L 4.125 -5.375 Z M 11.4375 -5.375 "/></g></g></g><g fill="#322f30" fill-opacity="1"><g transform="translate(278.222898, 96.446978)"><g><path d="M 18.28125 -15.21875 L 18.28125 0 L 16.734375 0 L 16.734375 -12.171875 L 10.765625 -1.9375 L 10 -1.9375 L 4.015625 -12.109375 L 4.015625 0 L 2.484375 0 L 2.484375 -15.21875 L 3.796875 -15.21875 L 10.40625 -3.9375 L 16.953125 -15.21875 Z M 18.28125 -15.21875 "/></g></g></g><g fill="#322f30" fill-opacity="1"><g transform="translate(304.407125, 96.446978)"><g><path d="M 2.484375 -15.21875 L 4.09375 -15.21875 L 4.09375 0 L 2.484375 0 Z M 2.484375 -15.21875 "/></g></g></g><g fill="#322f30" fill-opacity="1"><g transform="translate(316.403961, 96.446978)"><g><path d="M 2.484375 -15.21875 L 4.09375 -15.21875 L 4.09375 -1.390625 L 12.609375 -1.390625 L 12.609375 0 L 2.484375 0 Z M 2.484375 -15.21875 "/></g></g></g><g fill="#322f30" fill-opacity="1"><g transform="translate(334.636292, 96.446978)"><g><path d="M 2.484375 -15.21875 L 4.09375 -15.21875 L 4.09375 0 L 2.484375 0 Z M 2.484375 -15.21875 "/></g></g></g><g fill="#322f30" fill-opacity="1"><g transform="translate(346.633128, 96.446978)"><g><path d="M 13.234375 -1.390625 L 13.234375 0 L 2.484375 0 L 2.484375 -15.21875 L 12.90625 -15.21875 L 12.90625 -13.828125 L 4.09375 -13.828125 L 4.09375 -8.40625 L 11.953125 -8.40625 L 11.953125 -7.046875 L 4.09375 -7.046875 L 4.09375 -1.390625 Z M 13.234375 -1.390625 "/></g></g></g></svg>