<svg xmlns="http://www.w3.org/2000/svg" xmlns:xlink="http://www.w3.org/1999/xlink" width="500" zoomAndPan="magnify" viewBox="0 0 375 374.999991" height="500" preserveAspectRatio="xMidYMid meet" version="1.0"><defs><g/><clipPath id="27b06107ad"><path d="M 45.957031 39.621094 L 328.707031 39.621094 L 328.707031 322.371094 L 45.957031 322.371094 Z M 45.957031 39.621094 " clip-rule="nonzero"/></clipPath><clipPath id="bf7d7cb0b4"><path d="M 187.496094 39.621094 C 109.328125 39.621094 45.957031 102.988281 45.957031 181.160156 C 45.957031 259.328125 109.328125 322.699219 187.496094 322.699219 C 265.667969 322.699219 329.035156 259.328125 329.035156 181.160156 C 329.035156 102.988281 265.667969 39.621094 187.496094 39.621094 Z M 187.496094 39.621094 " clip-rule="nonzero"/></clipPath><clipPath id="3d5f836dd8"><path d="M 53.011719 46.671875 L 321.980469 46.671875 L 321.980469 315.640625 L 53.011719 315.640625 Z M 53.011719 46.671875 " clip-rule="nonzero"/></clipPath><clipPath id="4e92c58b50"><path d="M 187.496094 46.671875 C 113.222656 46.671875 53.011719 106.882812 53.011719 181.15625 C 53.011719 255.429688 113.222656 315.640625 187.496094 315.640625 C 261.769531 315.640625 321.980469 255.429688 321.980469 181.15625 C 321.980469 106.882812 261.769531 46.671875 187.496094 46.671875 Z M 187.496094 46.671875 " clip-rule="nonzero"/></clipPath><clipPath id="b9dd432414"><path d="M 45.957031 256.492188 L 329.042969 256.492188 L 329.042969 340.660156 L 45.957031 340.660156 Z M 45.957031 256.492188 " clip-rule="nonzero"/></clipPath><clipPath id="8630da9ff0"><path d="M 155 71.054688 L 217 71.054688 L 217 201 L 155 201 Z M 155 71.054688 " clip-rule="nonzero"/></clipPath><clipPath id="4ba1a5327c"><path d="M 94.730469 209 L 159 209 L 159 252 L 94.730469 252 Z M 94.730469 209 " clip-rule="nonzero"/></clipPath><clipPath id="3ab69e2409"><path d="M 227 233 L 279.980469 233 L 279.980469 267.554688 L 227 267.554688 Z M 227 233 " clip-rule="nonzero"/></clipPath></defs><g clip-path="url(#27b06107ad)"><g clip-path="url(#bf7d7cb0b4)"><path stroke-linecap="butt" transform="matrix(0.75, 0, 0, 0.75, 45.957625, 39.619689)" fill="none" stroke-linejoin="miter" d="M 188.71797 0.00187343 C 84.494005 0.00187343 -0.00079231 84.491462 -0.00079231 188.720636 C -0.00079231 292.944601 84.494005 377.439398 188.71797 377.439398 C 292.947144 377.439398 377.436732 292.944601 377.436732 188.720636 C 377.436732 84.491462 292.947144 0.00187343 188.71797 0.00187343 Z M 188.71797 0.00187343 " stroke="#383535" stroke-width="8" stroke-opacity="1" stroke-miterlimit="4"/></g></g><g clip-path="url(#3d5f836dd8)"><g clip-path="url(#4e92c58b50)"><path stroke-linecap="butt" transform="matrix(0.75, 0, 0, 0.75, 53.011004, 46.673066)" fill="none" stroke-linejoin="miter" d="M 179.313464 -0.00158765 C 80.282208 -0.00158765 0.000952708 80.279668 0.000952708 179.310924 C 0.000952708 278.342181 80.282208 358.623436 179.313464 358.623436 C 278.344721 358.623436 358.625976 278.342181 358.625976 179.310924 C 358.625976 80.279668 278.344721 -0.00158765 179.313464 -0.00158765 Z M 179.313464 -0.00158765 " stroke="#202a54" stroke-width="2" stroke-opacity="1" stroke-miterlimit="4"/></g></g><g clip-path="url(#b9dd432414)"><path fill="#ffffff" d="M 45.957031 256.492188 L 329.046875 256.492188 L 329.046875 340.660156 L 45.957031 340.660156 Z M 45.957031 256.492188 " fill-opacity="1" fill-rule="nonzero"/></g><path fill="#ceaf83" d="M 246.089844 175.136719 L 219.011719 156.023438 L 219.011719 153.1875 L 246.089844 172.300781 Z M 246.089844 181.761719 L 219.011719 162.648438 L 219.011719 159.816406 L 246.089844 178.929688 Z M 246.089844 188.390625 L 219.011719 169.277344 L 219.011719 166.441406 L 246.089844 185.554688 Z M 246.089844 195.019531 L 219.011719 175.902344 L 219.011719 173.066406 L 246.089844 192.183594 Z M 246.089844 201.644531 L 219.011719 182.527344 L 219.011719 179.699219 L 246.089844 198.8125 Z M 246.089844 208.273438 L 219.011719 189.15625 L 219.011719 186.324219 L 246.089844 205.4375 Z M 246.089844 214.898438 L 219.011719 195.785156 L 219.011719 192.949219 L 246.089844 212.0625 Z M 219.011719 147.257812 L 213.167969 150.625 L 213.167969 202.648438 L 215.824219 202.984375 L 217.160156 203.15625 L 218.132812 204.085938 L 224.09375 209.789062 L 238.894531 220.238281 L 243.382812 219.613281 L 219.011719 202.410156 L 219.011719 199.578125 L 246.089844 218.691406 L 246.089844 219.234375 L 246.851562 219.128906 L 249.144531 218.808594 L 249.457031 219.199219 L 249.457031 168.75 Z M 207.6875 153.785156 L 207.6875 175.355469 L 206.1875 175.355469 L 206.1875 154.648438 L 200.957031 157.664062 L 200.957031 191.386719 L 199.910156 191.386719 L 199.910156 158.265625 L 196.5 160.230469 L 196.5 195.421875 L 207.425781 195.421875 L 207.425781 201.929688 L 210.976562 202.375 L 210.976562 151.886719 L 207.6875 153.785156 " fill-opacity="1" fill-rule="nonzero"/><path fill="#202a54" d="M 193.503906 236.617188 L 193.796875 236.875 L 193.796875 239.214844 L 193.503906 238.957031 L 192.425781 238.003906 L 192.425781 235.664062 L 193.503906 236.617188 " fill-opacity="1" fill-rule="nonzero"/><g clip-path="url(#8630da9ff0)"><path fill="#202a54" d="M 214.472656 117.351562 L 207.90625 111.539062 L 207.90625 98.566406 L 214.472656 104.378906 Z M 214.472656 132.664062 L 207.90625 126.855469 L 207.90625 113.878906 L 214.472656 119.695312 Z M 206.726562 110.492188 L 202.460938 106.71875 L 200.160156 104.683594 L 200.160156 91.707031 L 202.460938 93.746094 L 206.726562 97.523438 Z M 206.726562 125.808594 L 202.460938 122.035156 L 200.160156 119.996094 L 200.160156 107.023438 L 202.460938 109.058594 L 206.726562 112.835938 Z M 206.726562 141.125 L 202.460938 137.347656 L 200.160156 135.3125 L 200.160156 122.339844 L 202.460938 124.375 L 206.726562 128.148438 Z M 198.984375 103.636719 L 197.984375 102.75 L 193.503906 98.792969 L 192.417969 97.832031 L 192.417969 84.859375 L 193.503906 85.820312 L 197.984375 89.78125 L 198.984375 90.667969 Z M 198.984375 118.953125 L 197.984375 118.066406 L 193.503906 114.105469 L 192.417969 113.144531 L 192.417969 100.171875 L 193.503906 101.132812 L 197.984375 105.09375 L 198.984375 105.976562 Z M 198.984375 134.265625 L 197.984375 133.382812 L 193.503906 129.421875 L 192.417969 128.460938 L 192.417969 115.484375 L 193.503906 116.445312 L 197.984375 120.410156 L 198.984375 121.292969 Z M 198.984375 149.582031 L 197.984375 148.699219 L 193.503906 144.734375 L 192.417969 143.777344 L 192.417969 130.800781 L 193.503906 131.761719 L 197.984375 135.726562 L 198.984375 136.609375 Z M 191.238281 96.785156 L 189.023438 94.828125 L 185.113281 91.367188 L 184.671875 90.972656 L 184.671875 78 L 185.113281 78.398438 L 189.023438 81.855469 L 191.238281 83.8125 Z M 191.238281 112.101562 L 189.023438 110.144531 L 185.113281 106.679688 L 184.671875 106.289062 L 184.671875 93.316406 L 185.113281 93.710938 L 189.023438 97.167969 L 191.238281 99.128906 Z M 191.238281 127.414062 L 189.023438 125.457031 L 185.113281 121.996094 L 184.671875 121.605469 L 184.671875 108.628906 L 185.113281 109.023438 L 189.023438 112.484375 L 191.238281 114.445312 Z M 191.238281 142.730469 L 189.023438 140.769531 L 185.113281 137.308594 L 184.671875 136.917969 L 184.671875 123.945312 L 185.113281 124.339844 L 189.023438 127.796875 L 191.238281 129.753906 Z M 191.238281 158.042969 L 189.023438 156.082031 L 185.113281 152.625 L 184.671875 152.230469 L 184.671875 139.257812 L 185.113281 139.648438 L 189.023438 143.109375 L 191.238281 145.070312 Z M 191.238281 173.355469 L 189.023438 171.394531 L 185.113281 167.9375 L 184.671875 167.542969 L 184.671875 154.574219 L 185.113281 154.964844 L 189.023438 158.421875 L 191.238281 160.382812 Z M 191.238281 188.671875 L 189.023438 186.710938 L 185.113281 183.25 L 184.671875 182.855469 L 184.671875 169.886719 L 185.113281 170.28125 L 189.023438 173.738281 L 191.238281 175.695312 Z M 214.609375 100.339844 L 206.664062 93.308594 L 202.183594 89.34375 L 197.707031 85.378906 L 193.226562 81.417969 L 188.75 77.453125 L 184.839844 73.992188 L 181.601562 71.128906 L 155.335938 90.101562 L 155.335938 119.386719 L 173.421875 126.742188 L 175.101562 127.425781 L 175.101562 199.027344 L 187.503906 200.679688 L 185.113281 198.566406 L 184.671875 198.171875 L 184.671875 185.203125 L 185.113281 185.59375 L 189.023438 189.050781 L 191.238281 191.011719 L 191.238281 195.421875 L 192.417969 195.421875 L 192.417969 192.058594 L 192.425781 192.0625 L 192.425781 189.71875 L 192.417969 189.714844 L 192.417969 176.742188 L 192.425781 176.75 L 192.425781 174.40625 L 192.417969 174.402344 L 192.417969 161.425781 L 192.425781 161.433594 L 192.425781 159.09375 L 192.417969 159.085938 L 192.417969 146.113281 L 193.503906 147.074219 L 197.984375 151.035156 L 198.984375 151.921875 L 198.984375 154.101562 L 200.160156 153.421875 L 200.160156 152.964844 L 200.472656 153.242188 L 202.070312 152.320312 L 200.160156 150.628906 L 200.160156 137.652344 L 202.460938 139.691406 L 206.726562 143.464844 L 206.726562 149.636719 L 207.90625 148.957031 L 207.90625 144.507812 L 210.949219 147.203125 L 211.132812 147.097656 L 212.550781 146.277344 L 207.90625 142.167969 L 207.90625 129.195312 L 214.472656 135.011719 L 214.472656 145.171875 L 216.550781 143.976562 L 216.550781 102.0625 L 214.609375 100.339844 " fill-opacity="1" fill-rule="nonzero"/></g><path fill="#ceaf83" d="M 125.519531 139.082031 L 148.25 126.378906 L 148.25 131.550781 L 150.789062 129.75 L 170.980469 137.960938 L 170.980469 130.667969 L 148.792969 121.644531 L 125.519531 139.082031 " fill-opacity="1" fill-rule="nonzero"/><path fill="#ceaf83" d="M 125.519531 151.226562 L 148.25 138.523438 L 148.25 143.691406 L 150.789062 141.890625 L 170.980469 150.101562 L 170.980469 142.808594 L 148.792969 133.785156 L 125.519531 151.226562 " fill-opacity="1" fill-rule="nonzero"/><path fill="#ceaf83" d="M 125.519531 163.367188 L 148.25 150.664062 L 148.25 155.832031 L 150.789062 154.03125 L 170.980469 162.242188 L 170.980469 154.949219 L 148.792969 145.925781 L 125.519531 163.367188 " fill-opacity="1" fill-rule="nonzero"/><path fill="#ceaf83" d="M 125.519531 175.507812 L 148.25 162.804688 L 148.25 167.972656 L 150.789062 166.171875 L 170.980469 174.382812 L 170.980469 167.089844 L 148.792969 158.066406 L 125.519531 175.507812 " fill-opacity="1" fill-rule="nonzero"/><path fill="#ceaf83" d="M 125.519531 187.648438 L 148.25 174.945312 L 148.25 180.113281 L 150.789062 178.3125 L 170.980469 186.523438 L 170.980469 179.230469 L 148.792969 170.207031 L 125.519531 187.648438 " fill-opacity="1" fill-rule="nonzero"/><path fill="#ceaf83" d="M 125.519531 199.789062 L 131.207031 195.527344 L 129.625 197.492188 Z M 125.519531 199.789062 " fill-opacity="1" fill-rule="nonzero"/><path fill="#ceaf83" d="M 170.980469 191.371094 L 170.980469 198.664062 L 170.289062 198.382812 L 150.789062 190.457031 L 148.25 192.257812 L 148.25 187.085938 L 136.179688 193.832031 L 135.191406 193.699219 L 133.878906 193.523438 L 148.792969 182.347656 L 170.980469 191.371094 " fill-opacity="1" fill-rule="nonzero"/><path fill="#ceaf83" d="M 152.542969 196.015625 L 147.628906 195.359375 L 148.792969 194.492188 Z M 152.542969 196.015625 " fill-opacity="1" fill-rule="nonzero"/><g clip-path="url(#4ba1a5327c)"><path fill="#202a54" d="M 158.660156 235.03125 C 158.242188 234.679688 142.402344 224.152344 134.652344 217.820312 L 94.726562 251.757812 L 131.6875 212.910156 L 134.652344 209.796875 L 139.679688 215.082031 L 158.660156 235.03125 " fill-opacity="1" fill-rule="nonzero"/></g><path fill="#ceaf83" d="M 204.691406 220.535156 L 188.910156 220.535156 L 188.910156 225.996094 L 182.652344 226.757812 L 181.304688 226.921875 L 180.324219 227.859375 L 168.6875 238.996094 L 134.652344 203.226562 L 106.320312 233 L 134.65625 197.738281 L 191.09375 205.269531 L 191.09375 212.164062 L 194.066406 215.289062 L 194.066406 199.496094 L 203.351562 199.496094 L 203.351562 205.519531 L 215.316406 207.027344 L 230.363281 221.429688 L 204.691406 225.015625 L 204.691406 220.535156 " fill-opacity="1" fill-rule="nonzero"/><path fill="#202a54" d="M 126.882812 237.890625 L 126.882812 239.640625 L 133.300781 239.640625 L 133.300781 231.472656 C 129.753906 231.472656 126.882812 234.34375 126.882812 237.890625 " fill-opacity="1" fill-rule="nonzero"/><path fill="#202a54" d="M 135.832031 231.472656 L 135.832031 239.640625 L 142.25 239.640625 L 142.25 237.890625 C 142.25 234.34375 139.375 231.472656 135.832031 231.472656 " fill-opacity="1" fill-rule="nonzero"/><path fill="#202a54" d="M 126.882812 248.585938 L 133.300781 248.585938 L 133.300781 242.164062 L 126.882812 242.164062 L 126.882812 248.585938 " fill-opacity="1" fill-rule="nonzero"/><path fill="#202a54" d="M 135.832031 248.585938 L 142.25 248.585938 L 142.25 242.164062 L 135.832031 242.164062 L 135.832031 248.585938 " fill-opacity="1" fill-rule="nonzero"/><g clip-path="url(#3ab69e2409)"><path fill="#ceaf83" d="M 280.25 267.589844 L 257.171875 247.972656 L 247.414062 239.679688 C 244.457031 242.09375 240.070312 245.25 236.183594 247.972656 C 231.6875 251.117188 227.855469 253.675781 227.671875 253.832031 L 233.246094 247.972656 L 243.28125 237.425781 L 245.085938 235.523438 L 247.414062 233.078125 L 249.851562 235.640625 L 280.25 267.589844 " fill-opacity="1" fill-rule="nonzero"/></g><path fill="#202a54" d="M 270.714844 252.164062 L 247.414062 227.675781 L 242.398438 232.949219 L 228.105469 247.972656 L 212.398438 264.472656 L 147.960938 264.472656 L 171.496094 241.945312 L 183.140625 230.800781 L 192.980469 229.605469 L 192.980469 224.605469 L 200.617188 224.605469 L 200.617188 237.59375 L 203.0625 235.027344 L 203.0625 229.355469 L 234.113281 225.019531 L 247.414062 223.160156 L 270.714844 252.164062 " fill-opacity="1" fill-rule="nonzero"/><path fill="#ceaf83" d="M 253.808594 256.183594 L 253.808594 257.625 L 248.527344 257.625 L 248.527344 250.902344 C 251.441406 250.902344 253.808594 253.269531 253.808594 256.183594 " fill-opacity="1" fill-rule="nonzero"/><path fill="#ceaf83" d="M 246.445312 250.902344 L 246.445312 257.625 L 241.167969 257.625 L 241.167969 256.183594 C 241.167969 253.269531 243.53125 250.902344 246.445312 250.902344 " fill-opacity="1" fill-rule="nonzero"/><path fill="#ceaf83" d="M 253.808594 264.976562 L 248.527344 264.976562 L 248.527344 259.699219 L 253.808594 259.699219 L 253.808594 264.976562 " fill-opacity="1" fill-rule="nonzero"/><path fill="#ceaf83" d="M 246.445312 264.976562 L 241.167969 264.976562 L 241.167969 259.699219 L 246.445312 259.699219 L 246.445312 264.976562 " fill-opacity="1" fill-rule="nonzero"/><path fill="#202a54" d="M 170.289062 198.382812 L 170.980469 198.664062 L 170.980469 198.476562 Z M 170.289062 198.382812 " fill-opacity="1" fill-rule="nonzero"/><g fill="#202a54" fill-opacity="1"><g transform="translate(45.668707, 312.651401)"><g><path d="M 22.53125 0 L 16.703125 -8.375 C 16.453125 -8.34375 16.082031 -8.328125 15.59375 -8.328125 L 9.140625 -8.328125 L 9.140625 0 L 3.84375 0 L 3.84375 -28.578125 L 15.59375 -28.578125 C 18.070312 -28.578125 20.226562 -28.164062 22.0625 -27.34375 C 23.90625 -26.53125 25.316406 -25.363281 26.296875 -23.84375 C 27.273438 -22.320312 27.765625 -20.507812 27.765625 -18.40625 C 27.765625 -16.257812 27.238281 -14.410156 26.1875 -12.859375 C 25.144531 -11.304688 23.644531 -10.148438 21.6875 -9.390625 L 28.25 0 Z M 22.421875 -18.40625 C 22.421875 -20.238281 21.820312 -21.644531 20.625 -22.625 C 19.425781 -23.601562 17.664062 -24.09375 15.34375 -24.09375 L 9.140625 -24.09375 L 9.140625 -12.703125 L 15.34375 -12.703125 C 17.664062 -12.703125 19.425781 -13.195312 20.625 -14.1875 C 21.820312 -15.175781 22.421875 -16.582031 22.421875 -18.40625 Z M 22.421875 -18.40625 "/></g></g></g><g fill="#202a54" fill-opacity="1"><g transform="translate(75.514196, 312.651401)"><g><path d="M 25.265625 -4.453125 L 25.265625 0 L 3.84375 0 L 3.84375 -28.578125 L 24.703125 -28.578125 L 24.703125 -24.125 L 9.140625 -24.125 L 9.140625 -16.703125 L 22.953125 -16.703125 L 22.953125 -12.328125 L 9.140625 -12.328125 L 9.140625 -4.453125 Z M 25.265625 -4.453125 "/></g></g></g><g fill="#202a54" fill-opacity="1"><g transform="translate(102.869163, 312.651401)"><g><path d="M 22.375 -6.609375 L 8.078125 -6.609375 L 5.265625 0 L -0.203125 0 L 12.65625 -28.578125 L 17.875 -28.578125 L 30.78125 0 L 25.234375 0 Z M 20.625 -10.78125 L 15.234375 -23.265625 L 9.875 -10.78125 Z M 20.625 -10.78125 "/></g></g></g><g fill="#202a54" fill-opacity="1"><g transform="translate(133.449576, 312.651401)"><g><path d="M 3.84375 -28.578125 L 9.140625 -28.578125 L 9.140625 -4.484375 L 24.09375 -4.484375 L 24.09375 0 L 3.84375 0 Z M 3.84375 -28.578125 "/></g></g></g><g fill="#202a54" fill-opacity="1"><g transform="translate(157.905727, 312.651401)"><g/></g></g><g fill="#202a54" fill-opacity="1"><g transform="translate(169.174347, 312.651401)"><g><path d="M 25.265625 -4.453125 L 25.265625 0 L 3.84375 0 L 3.84375 -28.578125 L 24.703125 -28.578125 L 24.703125 -24.125 L 9.140625 -24.125 L 9.140625 -16.703125 L 22.953125 -16.703125 L 22.953125 -12.328125 L 9.140625 -12.328125 L 9.140625 -4.453125 Z M 25.265625 -4.453125 "/></g></g></g><g fill="#202a54" fill-opacity="1"><g transform="translate(196.529314, 312.651401)"><g><path d="M 12.703125 0.40625 C 10.492188 0.40625 8.359375 0.09375 6.296875 -0.53125 C 4.242188 -1.15625 2.617188 -1.984375 1.421875 -3.015625 L 3.265625 -7.140625 C 4.429688 -6.210938 5.863281 -5.457031 7.5625 -4.875 C 9.269531 -4.289062 10.984375 -4 12.703125 -4 C 14.816406 -4 16.398438 -4.335938 17.453125 -5.015625 C 18.503906 -5.703125 19.03125 -6.601562 19.03125 -7.71875 C 19.03125 -8.53125 18.734375 -9.203125 18.140625 -9.734375 C 17.554688 -10.265625 16.816406 -10.679688 15.921875 -10.984375 C 15.023438 -11.285156 13.800781 -11.625 12.25 -12 C 10.070312 -12.519531 8.304688 -13.035156 6.953125 -13.546875 C 5.609375 -14.066406 4.453125 -14.878906 3.484375 -15.984375 C 2.523438 -17.085938 2.046875 -18.578125 2.046875 -20.453125 C 2.046875 -22.035156 2.472656 -23.472656 3.328125 -24.765625 C 4.179688 -26.054688 5.472656 -27.082031 7.203125 -27.84375 C 8.929688 -28.601562 11.050781 -28.984375 13.5625 -28.984375 C 15.300781 -28.984375 17.015625 -28.765625 18.703125 -28.328125 C 20.390625 -27.898438 21.84375 -27.273438 23.0625 -26.453125 L 21.390625 -22.328125 C 20.140625 -23.066406 18.832031 -23.625 17.46875 -24 C 16.113281 -24.382812 14.796875 -24.578125 13.515625 -24.578125 C 11.421875 -24.578125 9.863281 -24.222656 8.84375 -23.515625 C 7.820312 -22.804688 7.3125 -21.867188 7.3125 -20.703125 C 7.3125 -19.878906 7.601562 -19.207031 8.1875 -18.6875 C 8.769531 -18.175781 9.507812 -17.769531 10.40625 -17.46875 C 11.3125 -17.175781 12.535156 -16.835938 14.078125 -16.453125 C 16.203125 -15.960938 17.945312 -15.453125 19.3125 -14.921875 C 20.675781 -14.390625 21.835938 -13.578125 22.796875 -12.484375 C 23.765625 -11.398438 24.25 -9.929688 24.25 -8.078125 C 24.25 -6.503906 23.820312 -5.078125 22.96875 -3.796875 C 22.113281 -2.515625 20.8125 -1.492188 19.0625 -0.734375 C 17.320312 0.0234375 15.203125 0.40625 12.703125 0.40625 Z M 12.703125 0.40625 "/></g></g></g><g fill="#202a54" fill-opacity="1"><g transform="translate(222.210315, 312.651401)"><g><path d="M 9.640625 -24.09375 L 0.15625 -24.09375 L 0.15625 -28.578125 L 24.421875 -28.578125 L 24.421875 -24.09375 L 14.9375 -24.09375 L 14.9375 0 L 9.640625 0 Z M 9.640625 -24.09375 "/></g></g></g><g fill="#202a54" fill-opacity="1"><g transform="translate(246.788956, 312.651401)"><g><path d="M 22.375 -6.609375 L 8.078125 -6.609375 L 5.265625 0 L -0.203125 0 L 12.65625 -28.578125 L 17.875 -28.578125 L 30.78125 0 L 25.234375 0 Z M 20.625 -10.78125 L 15.234375 -23.265625 L 9.875 -10.78125 Z M 20.625 -10.78125 "/></g></g></g><g fill="#202a54" fill-opacity="1"><g transform="translate(277.369369, 312.651401)"><g><path d="M 9.640625 -24.09375 L 0.15625 -24.09375 L 0.15625 -28.578125 L 24.421875 -28.578125 L 24.421875 -24.09375 L 14.9375 -24.09375 L 14.9375 0 L 9.640625 0 Z M 9.640625 -24.09375 "/></g></g></g><g fill="#202a54" fill-opacity="1"><g transform="translate(301.948011, 312.651401)"><g><path d="M 25.265625 -4.453125 L 25.265625 0 L 3.84375 0 L 3.84375 -28.578125 L 24.703125 -28.578125 L 24.703125 -24.125 L 9.140625 -24.125 L 9.140625 -16.703125 L 22.953125 -16.703125 L 22.953125 -12.328125 L 9.140625 -12.328125 L 9.140625 -4.453125 Z M 25.265625 -4.453125 "/></g></g></g></svg>