<svg xmlns="http://www.w3.org/2000/svg" version="1.1" xmlns:xlink="http://www.w3.org/1999/xlink" width="512" height="512" x="0" y="0" viewBox="0 0 512 512" style="enable-background:new 0 0 512 512" xml:space="preserve"><g><path d="M302.933 42.667h-51.2c-7.074 0-12.8 5.726-12.8 12.8s5.726 12.8 12.8 12.8h51.2c7.074 0 12.8-5.726 12.8-12.8s-5.726-12.8-12.8-12.8z" fill="#ffffff" opacity="1" data-original="#000000"></path><path d="M358.4 0H153.6c-28.228 0-51.2 22.972-51.2 51.2v409.6c0 28.228 22.972 51.2 51.2 51.2h204.8c28.228 0 51.2-22.972 51.2-51.2V51.2c0-28.228-22.972-51.2-51.2-51.2zM384 460.8c0 14.14-11.46 25.6-25.6 25.6H153.6c-14.14 0-25.6-11.46-25.6-25.6V51.2c0-14.14 11.46-25.6 25.6-25.6h204.8c14.14 0 25.6 11.46 25.6 25.6v409.6z" fill="#ffffff" opacity="1" data-original="#000000"></path><circle cx="256" cy="443.733" r="25.6" fill="#ffffff" opacity="1" data-original="#000000"></circle><circle cx="209.067" cy="55.467" r="12.8" fill="#ffffff" opacity="1" data-original="#000000"></circle></g></svg>