<svg xmlns="http://www.w3.org/2000/svg" version="1.1" xmlns:xlink="http://www.w3.org/1999/xlink" width="512" height="512" x="0" y="0" viewBox="0 0 512 512" style="enable-background:new 0 0 512 512" xml:space="preserve"><g><path d="M123.856 71.638H105.66c2.737-20.263 13.941-21.281 19.097-21.75a10 10 0 0 0 9.094-9.959V10.004c0-2.749-1.132-5.378-3.13-7.267S126.033-.131 123.29.02C91.68 1.798 54 17.758 54 83.696v52.04c0 8.687 7.067 15.754 15.754 15.754h54.103c8.687 0 15.754-7.068 15.753-15.755V87.392c0-8.687-7.067-15.754-15.754-15.754zm-4.245 59.851H74V83.696c0-46.01 20.461-58.86 39.851-62.487v10.514c-13.391 4.076-28.803 16.114-28.803 49.915 0 5.523 4.477 10 10 10h24.563v39.851zM226.091 71.638h-18.197c2.737-20.263 13.941-21.281 19.097-21.75a10 10 0 0 0 9.094-9.959V10.004c0-2.749-1.132-5.378-3.13-7.267s-4.69-2.868-7.431-2.717c-31.61 1.778-69.29 17.738-69.29 83.676v52.04c0 8.687 7.067 15.754 15.754 15.754h54.103c8.687 0 15.755-7.068 15.754-15.756V87.392c0-8.687-7.067-15.754-15.754-15.754zm-4.246 59.852h-45.611V83.696c0-46.01 20.461-58.86 39.851-62.487v10.514c-13.391 4.076-28.803 16.114-28.803 49.915 0 5.523 4.477 10 10 10h24.563v39.852zM285.07 80.795c-1.86-1.86-4.44-2.93-7.07-2.93s-5.21 1.07-7.07 2.93-2.93 4.44-2.93 7.07 1.07 5.21 2.93 7.07c1.86 1.86 4.44 2.93 7.07 2.93s5.21-1.07 7.07-2.93 2.93-4.44 2.93-7.07-1.07-5.21-2.93-7.07z" fill="#ffffff" opacity="1" data-original="#000000"></path><path d="M334.267 77.864h-12.601c-5.523 0-10 4.477-10 10s4.477 10 10 10h12.601C421.241 97.864 492 168.623 492 255.597c0 74.232-52.648 139.152-125.187 154.365a10 10 0 0 0-7.947 9.787v58.104l-61.594-61.594a10.001 10.001 0 0 0-7.071-2.929H177.733C90.759 413.33 20 342.571 20 255.597c0-26.805 6.843-53.274 19.79-76.548 2.686-4.826.949-10.915-3.877-13.6-4.827-2.686-10.916-.949-13.6 3.877C7.715 195.565 0 225.397 0 255.597 0 353.6 79.73 433.33 177.733 433.33h108.326l75.736 75.736a9.997 9.997 0 0 0 10.898 2.167 9.999 9.999 0 0 0 6.173-9.238v-74.321c36.183-9.376 68.9-30.239 92.807-59.343C497.678 336.674 512 296.638 512 255.597c0-98.002-79.73-177.732-177.733-177.733z" fill="#ffffff" opacity="1" data-original="#000000"></path><path d="M379.064 177.492H132.937c-5.523 0-10 4.477-10 10s4.477 10 10 10h246.126c5.523 0 10.001-4.477 10.001-10s-4.477-10-10-10zM379.064 230.825H132.937c-5.523 0-10 4.477-10 10s4.477 10 10 10h246.126c5.523 0 10.001-4.477 10.001-10s-4.477-10-10-10zM379.064 284.158H132.937c-5.523 0-10 4.478-10 10s4.477 10 10 10h246.126c5.523 0 10.001-4.478 10.001-10s-4.477-10-10-10zM379.063 337.492H247.871c-5.523 0-10 4.478-10 10s4.477 10 10 10h131.192c5.523 0 10-4.478 10-10s-4.477-10-10-10zM191.607 337.491h-.161c-5.523 0-10 4.478-10 10s4.477 10 10 10h.161c5.523 0 10-4.478 10-10s-4.477-10-10-10z" fill="#ffffff" opacity="1" data-original="#000000"></path></g></svg>