<svg xmlns="http://www.w3.org/2000/svg" version="1.1" xmlns:xlink="http://www.w3.org/1999/xlink" width="512" height="512" x="0" y="0" viewBox="0 0 512 512" style="enable-background:new 0 0 512 512" xml:space="preserve" class=""><g><clipPath id="a"><rect width="314.08" height="230.85" x="121.5" y="33.03" rx="8.36" fill="#000000" opacity="1" data-original="#000000" class=""></rect></clipPath><clipPath id="b"><path d="M135.27 246.21h50.53v91.27h-50.53z" fill="#000000" opacity="1" data-original="#000000" class=""></path></clipPath><g data-name="UX Design"><g clip-path="url(#a)"><rect width="314.08" height="230.85" x="121.5" y="33.03" fill="#efefef" rx="8.36" opacity="1" data-original="#efefef" class=""></rect><path fill="#ea2c00" d="M105.21 17.29h337.08v49.08H105.21z" opacity="1" data-original="#40c2d6" class=""></path></g><rect width="60.57" height="8.45" x="362.66" y="45.42" fill="#efefef" rx="2.7" opacity="1" data-original="#efefef" class=""></rect><path fill="#0053c4" d="M153.58 85.6h249.93v38.82H153.58zM153.58 140.47h93.69v103.81h-93.69z" opacity="1" data-original="#86ebf9" class=""></path><path fill="#ea2c00" d="M262.73 140.47H403.5v103.81H262.73z" opacity="1" data-original="#efbd42" class=""></path><g fill="#efefef"><path d="M333.11 156.69a30.14 30.14 0 1 0 30.14 30.14 30.14 30.14 0 0 0-30.14-30.14zm0 49.87a19.73 19.73 0 1 1 19.73-19.73 19.73 19.73 0 0 1-19.73 19.73z" fill="#efefef" opacity="1" data-original="#efefef" class=""></path><rect width="20.2" height="16.02" x="323.01" y="149.86" rx="5.03" fill="#efefef" opacity="1" data-original="#efefef" class=""></rect><rect width="20.2" height="16.02" x="323.01" y="208.96" rx="5.03" fill="#efefef" opacity="1" data-original="#efefef" class=""></rect><rect width="20.2" height="16.02" x="352.56" y="179.41" rx="5.03" transform="rotate(90 362.66 187.42)" fill="#efefef" opacity="1" data-original="#efefef" class=""></rect><rect width="20.2" height="16.02" x="293.47" y="179.41" rx="5.03" transform="rotate(90 303.57 187.42)" fill="#efefef" opacity="1" data-original="#efefef" class=""></rect><rect width="20.2" height="16.02" x="343.91" y="200.3" rx="5.03" transform="rotate(135 354.042 208.317)" fill="#efefef" opacity="1" data-original="#efefef" class=""></rect><rect width="20.2" height="16.02" x="302.12" y="158.52" rx="5.03" transform="rotate(135 312.25 166.533)" fill="#efefef" opacity="1" data-original="#efefef" class=""></rect><rect width="20.2" height="16.02" x="343.91" y="158.52" rx="5.03" transform="rotate(45 354.07 166.475)" fill="#efefef" opacity="1" data-original="#efefef" class=""></rect><rect width="20.2" height="16.02" x="302.12" y="200.3" rx="5.03" transform="rotate(45 312.284 208.276)" fill="#efefef" opacity="1" data-original="#efefef" class=""></rect></g><path fill="#2d1929" d="M450.17 241.2 382.6 189a9 9 0 0 0-10.85 14.29l68.43 51.08c3.32 2.48 8.21 1.55 10.95-2s2.37-8.6-.96-11.17z" opacity="1" data-original="#2d1929" class=""></path><path fill="#2d1929" d="m351.69 206.14 15-8 .83-23.82-16.28-10.18a23.59 23.59 0 1 1 .46 42z" opacity="1" data-original="#2d1929" class=""></path><g clip-path="url(#b)"><path fill="#e39c76" d="M135.27 246.21h50.53v91.27h-50.53z" opacity="1" data-original="#e39c76" class=""></path><path fill="#d48f6e" d="M139.25 263.84c6.6 23.64 26.85 38.47 50.21 39.92q1.89-14.56 3.77-29.12z" opacity="1" data-original="#d48f6e" class=""></path></g><path fill="#e39c76" d="M203.56 155.88c-.12-.08-10-12.28-25.73-18.29-21-9.74-51.49-4-68.94 15.51-20.1 22.49-13.69 53-12.1 60.52 7.43 35.32 36.78 54.15 49.26 60.73a93 93 0 0 0 22.22 10.29c8.72 2.6 28.83 5.05 45.29-3.27 20.31-10.27 5.35-78.37 3.24-85.37-1.13-22.64-5.64-34.25-13.24-40.12z" opacity="1" data-original="#e39c76" class=""></path><path fill="#e39c76" d="M226.55 209.72c-3.08-2.38-6.87-6.44-9.75-13.77l5.2 31.81c4.26-.86 12.31-4.43 11.62-11.42-.28-2.91-3.72-4.03-7.07-6.62z" opacity="1" data-original="#e39c76" class=""></path><path fill="#2d1929" d="M206.18 209.8c-2.55.74-5.54-1.86-6.68-5.8s0-7.73 2.56-8.47 5.54 1.86 6.68 5.8-.01 7.73-2.56 8.47zM184.59 185.17a1 1 0 0 1-.79-1.62c.08-.11 8.66-10.86 21.7-6.53a1 1 0 0 1 .63 1.27 1 1 0 0 1-1.27.63c-11.67-3.88-19.17 5.47-19.48 5.87a1 1 0 0 1-.79.38z" opacity="1" data-original="#2d1929" class=""></path><path fill="#ea2c00" d="M78.25 483s14.32-132.76 31.58-158.7 97.24-29.19 126.17 11.36S253.47 483 253.47 483z" opacity="1" data-original="#287eef" class=""></path><path fill="#ea2c00" d="M171.05 304.93c39.1-2.59 64 6.18 79.62 14.84 8.71 4.83 35.38 24.3 78.42 42l48.33-108.18 34.91-.52c-7.44 60.2-18.31 105.15-26.83 134.84-4.11 14.3-9.32 30.81-24.08 39.21-9.1 5.18-21.62 6.19-65.35-5.5a409 409 0 0 1-77-29.28zM166.69 305.18c-15.4-.44-76.61-.84-95.23 34.54-5.08 9.66-5.36 18.79-5.16 34.57A1039.4 1039.4 0 0 0 73.53 483h54.17z" opacity="1" data-original="#287eef" class=""></path><rect width="62.6" height="22.43" x="127.87" y="291.84" fill="#ea2c00" rx="3.12" opacity="1" data-original="#287eef" class=""></rect><path fill="#2d1929" d="M129.25 222c39.55-33.19 4.53-53.81 13.76-66.61 3.44-4.78 9.33-3.27 16.16-10.66a30.9 30.9 0 0 0 6.41-10.89s14.39 4.1 22.48 8.91c0 0 6.54-26.57-7.22-32.08s-25.28 3.44-25.28 3.44c-16.84-.24-50.26 2-75.84 24.77-4.65 4.13-9.81 8.81-13.93 16.68C52 181.87 64.35 216.06 80.23 236c19.42 24.4 46.62 30.75 56.05 32.49a61.18 61.18 0 0 0-7.03-46.49z" opacity="1" data-original="#2d1929" class=""></path><path fill="#e39c76" d="M142.32 240.84c-7.32 4.81-18 1.5-23.84-7.39s-4.66-20 2.66-24.82 18-1.51 23.85 7.38 4.65 19.99-2.67 24.83z" opacity="1" data-original="#e39c76" class=""></path><path fill="#2d1929" d="M141 231.48c-1 0-5.4-.25-6.74-4.69-.93-3.1 2.83-5.13 4.35-5.81-1.45-1.94-7-8.75-12.62-7.33-5.28 1.33-3.9 7.29-3.84 7.55a.5.5 0 0 1-1 .23c0-.07-1.66-7.18 4.57-8.75 7.14-1.81 13.77 7.82 14 8.24a.5.5 0 0 1-.24.75s-5.21 2-4.34 4.83c1.26 4.19 5.71 4 5.9 4a.52.52 0 0 1 .53.47.49.49 0 0 1-.47.53z" opacity="1" data-original="#2d1929" class=""></path><path fill="#ea2c00" d="m74.56 365 9.8 42.83v75.12h9.55l-3.87-74.35zM254.83 408.13s-10.84-1-32.27-14.08c0 0 15.72 61.24 10.22 72.94S127.7 483 127.7 483h125.77s5.87-57 1.36-74.87zM329.09 361.74s3.18 31.12 11.18 40.67-24.2-12.19-28.52-48.27z" opacity="1" data-original="#1573d8" class=""></path><path fill="#efefef" d="m219.37 236.88-24.08 3.78a25.91 25.91 0 0 0 25.45 10.15q-.69-6.98-1.37-13.93z" opacity="1" data-original="#efefef" class=""></path><path fill="#e39c76" d="M370.83 268.32q5.18-15.81 10.37-31.61a26.46 26.46 0 0 1 4-23.31c4.27 2.4 9.57 1.48 12.29-1.46a9.67 9.67 0 0 0 1.47-10.4 7 7 0 0 1 9.28 4c3.53-2.51 7.77-.05 8 4 3.49-1.58 6.71 1.74 5.85 5.25 9.61-.56 3.75 15.21-.95 23.47a48.58 48.58 0 0 1-7.18 9.63q-2.25 13.68-4.51 27.35a57.56 57.56 0 0 1-38.62-6.92z" opacity="1" data-original="#e39c76" class=""></path><path fill="#ea2c00" d="m355.23 302.83 16.83-43.07a5.09 5.09 0 0 1 5.8-3.12l32.24 6.84a4.29 4.29 0 0 1 3.28 5.19l-9.8 41.54z" opacity="1" data-original="#287eef" class=""></path></g></g></svg>