<svg xmlns="http://www.w3.org/2000/svg" xmlns:xlink="http://www.w3.org/1999/xlink" width="500" zoomAndPan="magnify" viewBox="0 0 375 225" height="300" preserveAspectRatio="xMidYMid meet" version="1.0"><defs><g/><clipPath id="f2fa7183dc"><path d="M 41 26.359375 L 339 26.359375 L 339 135 L 41 135 Z M 41 26.359375 " clip-rule="nonzero"/></clipPath></defs><rect x="-37.5" width="450" fill="#ffffff" y="-22.5" height="270" fill-opacity="1"/><rect x="-37.5" width="450" fill="#000000" y="-22.5" height="270" fill-opacity="1"/><g clip-path="url(#f2fa7183dc)"><path fill="#edba75" d="M 277.347656 120.628906 C 278.007812 116.480469 280.109375 104.648438 283.414062 99.832031 C 283.414062 99.832031 284.523438 104.394531 280.429688 121.226562 C 280.320312 121.679688 280.859375 122 281.203125 121.691406 C 298.28125 106.164062 285.230469 88.753906 285.230469 88.753906 C 285.230469 88.753906 266.542969 99.910156 276.457031 120.757812 C 276.65625 121.175781 277.273438 121.085938 277.347656 120.628906 Z M 286.296875 127.125 C 292.714844 123.535156 311.273438 113.625 321.476562 112.953125 C 321.476562 112.953125 316.40625 119.421875 288.808594 132.015625 C 288.070312 132.351562 288.210938 133.445312 289.015625 133.578125 C 328.863281 140.261719 338.679688 103.464844 338.679688 103.464844 C 338.679688 103.464844 303.105469 89.828125 285.15625 126.039062 C 284.796875 126.765625 285.589844 127.519531 286.296875 127.125 Z M 103.625 58.371094 C 113.539062 37.523438 94.855469 26.371094 94.855469 26.371094 C 94.855469 26.371094 81.800781 43.777344 98.882812 59.300781 C 99.222656 59.613281 99.765625 59.292969 99.652344 58.839844 C 95.558594 42.003906 96.671875 37.445312 96.671875 37.445312 C 99.972656 42.261719 102.078125 54.09375 102.738281 58.242188 C 102.808594 58.699219 103.425781 58.789062 103.625 58.371094 Z M 93.789062 64.738281 C 87.367188 61.152344 68.808594 51.238281 58.609375 50.570312 C 58.609375 50.570312 63.675781 57.035156 91.273438 69.625 C 92.011719 69.960938 91.871094 71.054688 91.070312 71.1875 C 51.222656 77.878906 41.40625 41.074219 41.40625 41.074219 C 41.40625 41.074219 76.976562 27.445312 94.925781 63.652344 C 95.285156 64.378906 94.492188 65.132812 93.789062 64.738281 " fill-opacity="1" fill-rule="nonzero"/></g><path fill="#edba75" d="M 217.667969 122.453125 L 217.667969 115.691406 C 217.667969 115.007812 217.109375 114.457031 216.429688 114.457031 L 209.667969 114.457031 C 208.984375 114.457031 208.429688 115.007812 208.429688 115.691406 L 208.429688 122.453125 C 208.429688 123.140625 208.984375 123.691406 209.667969 123.691406 L 216.429688 123.691406 C 217.109375 123.691406 217.667969 123.140625 217.667969 122.453125 Z M 205.015625 122.453125 L 205.015625 115.691406 C 205.015625 115.007812 204.464844 114.457031 203.777344 114.457031 L 197.015625 114.457031 C 196.332031 114.457031 195.78125 115.007812 195.78125 115.691406 L 195.78125 122.453125 C 195.78125 123.140625 196.332031 123.691406 197.015625 123.691406 L 203.777344 123.691406 C 204.464844 123.691406 205.015625 123.140625 205.015625 122.453125 Z M 217.667969 110.335938 L 217.667969 103.574219 C 217.667969 102.890625 217.109375 102.335938 216.429688 102.335938 L 209.667969 102.335938 C 208.984375 102.335938 208.429688 102.890625 208.429688 103.574219 L 208.429688 110.335938 C 208.429688 111.019531 208.984375 111.574219 209.667969 111.574219 L 216.429688 111.574219 C 217.109375 111.574219 217.667969 111.019531 217.667969 110.335938 Z M 205.015625 110.335938 L 205.015625 103.574219 C 205.015625 102.890625 204.464844 102.335938 203.777344 102.335938 L 197.015625 102.335938 C 196.332031 102.335938 195.78125 102.890625 195.78125 103.574219 L 195.78125 110.335938 C 195.78125 111.019531 196.332031 111.574219 197.015625 111.574219 L 203.777344 111.574219 C 204.464844 111.574219 205.015625 111.019531 205.015625 110.335938 Z M 125.746094 122.453125 L 125.746094 115.691406 C 125.746094 115.007812 125.191406 114.457031 124.507812 114.457031 L 117.746094 114.457031 C 117.0625 114.457031 116.507812 115.007812 116.507812 115.691406 L 116.507812 122.453125 C 116.507812 123.140625 117.0625 123.691406 117.746094 123.691406 L 124.507812 123.691406 C 125.191406 123.691406 125.746094 123.140625 125.746094 122.453125 Z M 113.097656 122.453125 L 113.097656 115.691406 C 113.097656 115.007812 112.542969 114.457031 111.859375 114.457031 L 105.097656 114.457031 C 104.414062 114.457031 103.859375 115.007812 103.859375 115.691406 L 103.859375 122.453125 C 103.859375 123.140625 104.414062 123.691406 105.097656 123.691406 L 111.859375 123.691406 C 112.542969 123.691406 113.097656 123.140625 113.097656 122.453125 Z M 125.746094 110.335938 L 125.746094 103.574219 C 125.746094 102.890625 125.191406 102.335938 124.507812 102.335938 L 117.746094 102.335938 C 117.0625 102.335938 116.507812 102.890625 116.507812 103.574219 L 116.507812 110.335938 C 116.507812 111.019531 117.0625 111.574219 117.746094 111.574219 L 124.507812 111.574219 C 125.191406 111.574219 125.746094 111.019531 125.746094 110.335938 Z M 113.097656 110.335938 L 113.097656 103.574219 C 113.097656 102.890625 112.542969 102.335938 111.859375 102.335938 L 105.097656 102.335938 C 104.414062 102.335938 103.859375 102.890625 103.859375 103.574219 L 103.859375 110.335938 C 103.859375 111.019531 104.414062 111.574219 105.097656 111.574219 L 111.859375 111.574219 C 112.542969 111.574219 113.097656 111.019531 113.097656 110.335938 Z M 208.171875 60.527344 L 282.496094 132.941406 C 284.488281 134.882812 283.113281 138.265625 280.328125 138.265625 L 265.375 138.265625 C 264.566406 138.265625 263.789062 137.949219 263.210938 137.386719 L 208.171875 83.761719 C 206.964844 82.589844 205.042969 82.589844 203.835938 83.761719 L 174.609375 112.238281 C 173.359375 113.453125 173.359375 115.464844 174.609375 116.683594 L 191.292969 132.941406 C 193.289062 134.882812 191.914062 138.265625 189.128906 138.265625 L 174.175781 138.265625 C 173.367188 138.265625 172.589844 137.949219 172.011719 137.386719 L 160.402344 126.078125 L 148.476562 114.460938 L 116.96875 83.761719 C 115.761719 82.589844 113.839844 82.589844 112.636719 83.761719 L 57.59375 137.386719 C 57.015625 137.949219 56.238281 138.265625 55.425781 138.265625 L 40.476562 138.265625 C 37.691406 138.265625 36.316406 134.882812 38.3125 132.941406 L 112.636719 60.527344 C 113.839844 59.351562 115.761719 59.351562 116.96875 60.527344 L 158.238281 100.734375 C 159.441406 101.90625 161.363281 101.90625 162.570312 100.734375 L 203.835938 60.527344 C 205.042969 59.351562 206.964844 59.351562 208.171875 60.527344 " fill-opacity="1" fill-rule="nonzero"/><g fill="#ffffff" fill-opacity="1"><g transform="translate(125.498438, 172.527742)"><g><path d="M 22.609375 -22.90625 L 13.375 0 L 9.953125 0 L 0.78125 -22.90625 L 4.8125 -22.90625 L 10.28125 -9 C 10.5625 -8.257812 10.835938 -7.523438 11.109375 -6.796875 C 11.378906 -6.078125 11.632812 -5.347656 11.875 -4.609375 C 12.113281 -5.347656 12.363281 -6.082031 12.625 -6.8125 C 12.882812 -7.550781 13.148438 -8.28125 13.421875 -9 L 18.484375 -22.90625 Z M 22.609375 -22.90625 "/></g></g></g><g fill="#ffffff" fill-opacity="1"><g transform="translate(148.682015, 172.527742)"><g><path d="M 13.28125 0 L 2.359375 0 L 2.359375 -3.265625 L 6.046875 -3.265625 L 6.046875 -19.625 L 2.359375 -19.625 L 2.359375 -22.90625 L 13.28125 -22.90625 L 13.28125 -19.625 L 9.59375 -19.625 L 9.59375 -3.265625 L 13.28125 -3.265625 Z M 13.28125 0 "/></g></g></g><g fill="#ffffff" fill-opacity="1"><g transform="translate(164.115897, 172.527742)"><g><path d="M 17.46875 -3.40625 L 17.46875 0 L 3.203125 0 L 3.203125 -22.90625 L 6.734375 -22.90625 L 6.734375 -3.40625 Z M 17.46875 -3.40625 "/></g></g></g><g fill="#ffffff" fill-opacity="1"><g transform="translate(183.506374, 172.527742)"><g><path d="M 17.46875 -3.40625 L 17.46875 0 L 3.203125 0 L 3.203125 -22.90625 L 6.734375 -22.90625 L 6.734375 -3.40625 Z M 17.46875 -3.40625 "/></g></g></g><g fill="#ffffff" fill-opacity="1"><g transform="translate(202.896854, 172.527742)"><g><path d="M 18.328125 0 L 16.15625 -5.6875 L 6.578125 -5.6875 L 4.421875 0 L 0.8125 0 L 9.6875 -22.90625 L 13.28125 -22.90625 L 22.078125 0 Z M 9.625 -13.671875 L 7.890625 -9.09375 L 14.890625 -9.09375 L 13.09375 -13.8125 C 12.800781 -14.570312 12.515625 -15.394531 12.234375 -16.28125 C 11.953125 -17.164062 11.671875 -18.050781 11.390625 -18.9375 C 11.078125 -18.019531 10.773438 -17.101562 10.484375 -16.1875 C 10.191406 -15.28125 9.90625 -14.441406 9.625 -13.671875 Z M 9.625 -13.671875 "/></g></g></g><g fill="#ffffff" fill-opacity="1"><g transform="translate(225.589951, 172.527742)"><g><path d="M 4.0625 -6.90625 C 4.957031 -5.613281 5.890625 -4.613281 6.859375 -3.90625 C 7.828125 -3.195312 9.085938 -2.84375 10.640625 -2.84375 C 11.378906 -2.84375 12.085938 -2.960938 12.765625 -3.203125 C 13.441406 -3.441406 13.992188 -3.789062 14.421875 -4.25 C 14.859375 -4.707031 15.078125 -5.253906 15.078125 -5.890625 C 15.078125 -6.984375 14.613281 -7.832031 13.6875 -8.4375 C 12.757812 -9.050781 11.457031 -9.519531 9.78125 -9.84375 C 7.644531 -10.28125 5.941406 -11.035156 4.671875 -12.109375 C 3.410156 -13.191406 2.78125 -14.757812 2.78125 -16.8125 C 2.78125 -18.125 3.144531 -19.257812 3.875 -20.21875 C 4.601562 -21.175781 5.566406 -21.914062 6.765625 -22.4375 C 7.972656 -22.96875 9.273438 -23.234375 10.671875 -23.234375 C 12.472656 -23.234375 14.03125 -22.882812 15.34375 -22.1875 C 16.65625 -21.488281 17.679688 -20.492188 18.421875 -19.203125 L 15.9375 -16.75 C 15.34375 -17.726562 14.597656 -18.523438 13.703125 -19.140625 C 12.816406 -19.753906 11.769531 -20.0625 10.5625 -20.0625 C 9.363281 -20.0625 8.351562 -19.78125 7.53125 -19.21875 C 6.71875 -18.664062 6.3125 -17.898438 6.3125 -16.921875 C 6.3125 -15.804688 6.742188 -14.988281 7.609375 -14.46875 C 8.472656 -13.957031 9.613281 -13.550781 11.03125 -13.25 C 12.3125 -12.988281 13.53125 -12.582031 14.6875 -12.03125 C 15.84375 -11.488281 16.785156 -10.785156 17.515625 -9.921875 C 18.242188 -9.066406 18.609375 -8.03125 18.609375 -6.8125 C 18.609375 -4.625 17.867188 -2.882812 16.390625 -1.59375 C 14.910156 -0.3125 12.875 0.328125 10.28125 0.328125 C 8.507812 0.328125 6.894531 -0.0195312 5.4375 -0.71875 C 3.988281 -1.414062 2.722656 -2.550781 1.640625 -4.125 Z M 4.0625 -6.90625 "/></g></g></g><g fill="#edba75" fill-opacity="1"><g transform="translate(118.96153, 194.308378)"><g><path d="M 9.484375 -7.328125 C 9.484375 -6.679688 9.289062 -6.082031 8.90625 -5.53125 C 8.519531 -4.976562 8.019531 -4.566406 7.40625 -4.296875 L 9.90625 0.015625 L 7.890625 0 L 5.625 -4.046875 L 3.15625 -4.046875 L 3.15625 0 L 1.5 0 L 1.5 -10.75 L 6.078125 -10.75 C 6.640625 -10.75 7.179688 -10.609375 7.703125 -10.328125 C 8.222656 -10.054688 8.648438 -9.664062 8.984375 -9.15625 C 9.316406 -8.644531 9.484375 -8.035156 9.484375 -7.328125 Z M 5.8125 -9.15625 L 3.15625 -9.15625 L 3.15625 -5.640625 L 6.234375 -5.640625 C 6.722656 -5.640625 7.101562 -5.8125 7.375 -6.15625 C 7.644531 -6.507812 7.78125 -6.90625 7.78125 -7.34375 C 7.78125 -7.90625 7.585938 -8.347656 7.203125 -8.671875 C 6.816406 -8.992188 6.351562 -9.15625 5.8125 -9.15625 Z M 5.8125 -9.15625 "/></g></g></g><g fill="#edba75" fill-opacity="1"><g transform="translate(132.86622, 194.308378)"><g><path d="M 1.5 -10.75 L 8.28125 -10.75 L 8.28125 -9.15625 L 3.15625 -9.15625 L 3.15625 -6.3125 L 7.4375 -6.3125 L 7.4375 -4.71875 L 3.15625 -4.71875 L 3.15625 -1.59375 L 8.28125 -1.59375 L 8.28125 0 L 1.5 0 Z M 1.5 -10.75 "/></g></g></g><g fill="#edba75" fill-opacity="1"><g transform="translate(145.527994, 194.308378)"><g><path d="M 8.59375 0 L 7.59375 -2.671875 L 3.09375 -2.671875 L 2.078125 0 L 0.390625 0 L 4.546875 -10.75 L 6.234375 -10.75 L 10.375 0 Z M 4.515625 -6.421875 L 3.703125 -4.265625 L 6.984375 -4.265625 L 6.140625 -6.484375 C 6.003906 -6.835938 5.867188 -7.222656 5.734375 -7.640625 C 5.609375 -8.054688 5.476562 -8.472656 5.34375 -8.890625 C 5.195312 -8.460938 5.054688 -8.03125 4.921875 -7.59375 C 4.785156 -7.164062 4.648438 -6.773438 4.515625 -6.421875 Z M 4.515625 -6.421875 "/></g></g></g><g fill="#edba75" fill-opacity="1"><g transform="translate(159.509401, 194.308378)"><g><path d="M 8.203125 -1.59375 L 8.203125 0 L 1.5 0 L 1.5 -10.75 L 3.15625 -10.75 L 3.15625 -1.59375 Z M 8.203125 -1.59375 "/></g></g></g><g fill="#edba75" fill-opacity="1"><g transform="translate(171.941011, 194.308378)"><g/></g></g><g fill="#edba75" fill-opacity="1"><g transform="translate(179.47773, 194.308378)"><g><path d="M 1.5 -10.75 L 8.28125 -10.75 L 8.28125 -9.15625 L 3.15625 -9.15625 L 3.15625 -6.3125 L 7.4375 -6.3125 L 7.4375 -4.71875 L 3.15625 -4.71875 L 3.15625 -1.59375 L 8.28125 -1.59375 L 8.28125 0 L 1.5 0 Z M 1.5 -10.75 "/></g></g></g><g fill="#edba75" fill-opacity="1"><g transform="translate(192.139507, 194.308378)"><g><path d="M 1.90625 -3.234375 C 2.320312 -2.628906 2.757812 -2.160156 3.21875 -1.828125 C 3.675781 -1.503906 4.265625 -1.34375 4.984375 -1.34375 C 5.335938 -1.34375 5.671875 -1.394531 5.984375 -1.5 C 6.304688 -1.613281 6.566406 -1.773438 6.765625 -1.984375 C 6.972656 -2.203125 7.078125 -2.460938 7.078125 -2.765625 C 7.078125 -3.273438 6.859375 -3.671875 6.421875 -3.953125 C 5.992188 -4.242188 5.382812 -4.46875 4.59375 -4.625 C 3.59375 -4.832031 2.796875 -5.1875 2.203125 -5.6875 C 1.609375 -6.195312 1.3125 -6.929688 1.3125 -7.890625 C 1.3125 -8.503906 1.476562 -9.035156 1.8125 -9.484375 C 2.15625 -9.941406 2.609375 -10.289062 3.171875 -10.53125 C 3.742188 -10.78125 4.351562 -10.90625 5 -10.90625 C 5.851562 -10.90625 6.585938 -10.738281 7.203125 -10.40625 C 7.816406 -10.082031 8.296875 -9.617188 8.640625 -9.015625 L 7.484375 -7.859375 C 7.203125 -8.328125 6.851562 -8.703125 6.4375 -8.984375 C 6.019531 -9.273438 5.53125 -9.421875 4.96875 -9.421875 C 4.394531 -9.421875 3.914062 -9.285156 3.53125 -9.015625 C 3.15625 -8.753906 2.96875 -8.394531 2.96875 -7.9375 C 2.96875 -7.414062 3.164062 -7.035156 3.5625 -6.796875 C 3.96875 -6.554688 4.503906 -6.363281 5.171875 -6.21875 C 5.773438 -6.09375 6.347656 -5.898438 6.890625 -5.640625 C 7.429688 -5.390625 7.875 -5.0625 8.21875 -4.65625 C 8.5625 -4.257812 8.734375 -3.769531 8.734375 -3.1875 C 8.734375 -2.164062 8.382812 -1.351562 7.6875 -0.75 C 7 -0.144531 6.046875 0.15625 4.828125 0.15625 C 3.992188 0.15625 3.234375 -0.00390625 2.546875 -0.328125 C 1.867188 -0.660156 1.273438 -1.195312 0.765625 -1.9375 Z M 1.90625 -3.234375 "/></g></g></g><g fill="#edba75" fill-opacity="1"><g transform="translate(204.954731, 194.308378)"><g><path d="M 3.546875 0 L 3.546875 -9.15625 L 0.53125 -9.15625 L 0.53125 -10.75 L 8.3125 -10.75 L 8.3125 -9.15625 L 5.203125 -9.15625 L 5.203125 0 Z M 3.546875 0 "/></g></g></g><g fill="#edba75" fill-opacity="1"><g transform="translate(217.033422, 194.308378)"><g><path d="M 8.59375 0 L 7.59375 -2.671875 L 3.09375 -2.671875 L 2.078125 0 L 0.390625 0 L 4.546875 -10.75 L 6.234375 -10.75 L 10.375 0 Z M 4.515625 -6.421875 L 3.703125 -4.265625 L 6.984375 -4.265625 L 6.140625 -6.484375 C 6.003906 -6.835938 5.867188 -7.222656 5.734375 -7.640625 C 5.609375 -8.054688 5.476562 -8.472656 5.34375 -8.890625 C 5.195312 -8.460938 5.054688 -8.03125 4.921875 -7.59375 C 4.785156 -7.164062 4.648438 -6.773438 4.515625 -6.421875 Z M 4.515625 -6.421875 "/></g></g></g><g fill="#edba75" fill-opacity="1"><g transform="translate(231.014826, 194.308378)"><g><path d="M 3.546875 0 L 3.546875 -9.15625 L 0.53125 -9.15625 L 0.53125 -10.75 L 8.3125 -10.75 L 8.3125 -9.15625 L 5.203125 -9.15625 L 5.203125 0 Z M 3.546875 0 "/></g></g></g><g fill="#edba75" fill-opacity="1"><g transform="translate(243.093511, 194.308378)"><g><path d="M 1.5 -10.75 L 8.28125 -10.75 L 8.28125 -9.15625 L 3.15625 -9.15625 L 3.15625 -6.3125 L 7.4375 -6.3125 L 7.4375 -4.71875 L 3.15625 -4.71875 L 3.15625 -1.59375 L 8.28125 -1.59375 L 8.28125 0 L 1.5 0 Z M 1.5 -10.75 "/></g></g></g></svg>