<?xml version="1.0" encoding="UTF-8" standalone="no"?>
<svg
   version="1.1"
   width="512"
   height="512"
   x="0"
   y="0"
   viewBox="0 0 512 512"
   style="enable-background:new 0 0 512 512"
   xml:space="preserve"
   class=""
   id="svg25"
   sodipodi:docname="web-design.svg"
   inkscape:version="1.3.2 (091e20e, 2023-11-25, custom)"
   xmlns:inkscape="http://www.inkscape.org/namespaces/inkscape"
   xmlns:sodipodi="http://sodipodi.sourceforge.net/DTD/sodipodi-0.dtd"
   xmlns="http://www.w3.org/2000/svg"
   xmlns:svg="http://www.w3.org/2000/svg"><defs
     id="defs25" /><sodipodi:namedview
     id="namedview25"
     pagecolor="#ffffff"
     bordercolor="#000000"
     borderopacity="0.25"
     inkscape:showpageshadow="2"
     inkscape:pageopacity="0.0"
     inkscape:pagecheckerboard="0"
     inkscape:deskcolor="#d1d1d1"
     inkscape:zoom="0.579358"
     inkscape:cx="675.74799"
     inkscape:cy="384.04579"
     inkscape:window-width="1920"
     inkscape:window-height="1017"
     inkscape:window-x="-8"
     inkscape:window-y="-8"
     inkscape:window-maximized="1"
     inkscape:current-layer="svg25" /><g
     transform="matrix(-1,0,0,1,512.3848342895508,0)"
     id="g25"><clipPath
       id="a"><path
         d="M122.61 160.59h55.14v110.45h-55.14z"
         fill="#000000"
         opacity="1"
         data-original="#000000"
         id="path1" /></clipPath><clipPath
       id="b"><rect
         width="190.55"
         height="154.02"
         x="268.14"
         y="102.13"
         rx="8.36"
         fill="#000000"
         opacity="1"
         data-original="#000000"
         id="rect1" /></clipPath><path
       fill="#f83600"
       d="M265 407.09c-2.64-9.24-12.15-87.28-20.78-119.65s-52.1-46-52.1-46l11.58 118.35 6.87 109.35h146.91l6.34-30.25s-96.17-22.55-98.82-31.8z"
       opacity="1"
       data-original="#e73f46"
       class=""
       id="path2" /><g
       clip-path="url(#a)"
       id="g4"><path
         fill="#f5b493"
         d="M122.61 160.59h55.14v110.45h-55.14z"
         opacity="1"
         data-original="#f5b493"
         class=""
         id="path3" /><path
         fill="#eba284"
         d="M123.27 172.32c5.26 31.62 28.56 54.73 59.6 62.07v-40.94z"
         opacity="1"
         data-original="#eba284"
         id="path4" /></g><path
       fill="#f83600"
       d="M150.07 231.67c-37.15-1-61 10.44-72.13 16.91-11.56 6.74-17.07 12.69-18.5 14.27-16.11 17.87-17.65 40.41-18.49 56-7.45 136.94-6.61 147.76 20.78 156.26 34.25 10.63 63.47 6.39 107.1.38 10.92-1.5 32.76-4.49 62.71-8.47l-11.28-40.85-112.73-10q7.55-45.47 15.08-90.94a129.9 129.9 0 0 0 16.06-27.46c4.55-10.51 10.27-34.37 11.4-66.1z"
       opacity="1"
       data-original="#e73f46"
       class=""
       id="path5" /><path
       fill="#f83600"
       d="M160.44 234.82s53.07 4.84 67.94 30.27 15.84 195.76 15.84 195.76l-160.65 7.71 3.64-170.33z"
       opacity="1"
       data-original="#e73f46"
       class=""
       id="path6" /><path
       fill="#f5b493"
       d="M122.61 234.87s14 31.68 29.57 31.15 25.57-28.63 25.57-28.63-26.32-20.72-55.14-2.52z"
       opacity="1"
       data-original="#f5b493"
       class=""
       id="path7" /><path
       fill="#f83600"
       d="M122.61 215.68a9.7 9.7 0 0 0-8.34 5.95c-2.38 5.81-7.48 14.89-7.48 14.89s14.21 48 21.88 50.37S150.18 266 150.18 266a58.41 58.41 0 0 1-27.57-50.32zM177.75 219.69s4.46.18 6.23 3.88 8.14 17.28 8.14 17.28-8 35.47-17.22 41S152.18 266 152.18 266s22.07-11.26 25.57-46.31z"
       opacity="1"
       data-original="#e73f46"
       class=""
       id="path8" /><path
       fill="#cc3745"
       d="M106.79 236.52a95.1 95.1 0 0 0 11.57 38.22c3.42 6.09 12.18 21.73 19.82 20.34 9.2-1.67 17.79-32.86 14-24.31.1 0 0 0-14.79 18.76a148.84 148.84 0 0 1-30.6-53.01z"
       opacity="1"
       data-original="#cc3745"
       class=""
       id="path9" /><path
       fill="#cc3745"
       d="M152.8 269.89c.55 1 12.46 23 21.66 20.79 1.91-.47 4.83-2.25 10.22-18.85a203.08 203.08 0 0 0 7.44-31l-18.54 44.72zM154.85 280.89s-7.31 33.14 6.08 68.21 10.57 119.46 10.57 119.46h5.64s3.52-68.21-6.35-100.58-18.14-61.66-15.94-87.09zM228 292l-2.79 51q6.44 65.32 12.86 130.64l9.69-2.7-17.63-128.01Q229.05 317.45 228 292z"
       opacity="1"
       data-original="#cc3745"
       class=""
       id="path10" /><path
       fill="#f5b493"
       d="m159.14 468.68 21-.91s11.78-1.83 18.3-9.58 17.55 8 23.06 7.8-4.56-15.55-4.56-15.55 12.15 15.22 17.45 15-6-19.22-6-19.22 12.15 19 17.08 17.8-9.86-26.6-16.56-31.36-36.77 1.06-36.77 1.06l-32 .88s-8.23 18.49-1 34.08z"
       opacity="1"
       data-original="#f5b493"
       class=""
       id="path11" /><path
       fill="#f83600"
       d="M148.46 430.19s-3.64 35.17 0 48.05l16.84-3.31s-4.05-29.95-1.4-40.34z"
       opacity="1"
       data-original="#e73f46"
       class=""
       id="path12" /><path
       fill="#cc3745"
       d="M144 430.19s-1.4 20.43 2.91 34.35l1.56-34.35z"
       opacity="1"
       data-original="#cc3745"
       class=""
       id="path13" /><path
       fill="#cc3745"
       d="M87.21 298.23a60.59 60.59 0 0 1 6.84 47.59l-.79 73.71 66.85 15.06L102 412.66q-.27-32.84-.53-65.68c4.08-17.75-.78-36.5-14.26-48.75z"
       opacity="1"
       data-original="#cc3745"
       class=""
       id="path14" /><circle
       cx="155.22"
       cy="440.8"
       r="4.89"
       fill="#efbd42"
       opacity="1"
       data-original="#efbd42"
       id="circle14" /><path
       fill="#cc3745"
       d="M95.55 414.86S77.23 426 70.89 442.34c0 0 19.73-19.73 32.59-23.6zM265 407.09s-13.87 9.71-18.56 21.91l26.71-16.33z"
       opacity="1"
       data-original="#cc3745"
       class=""
       id="path15" /><path
       fill="#f5b493"
       d="M227.44 143.54c-1.51-12-4.4-19.33-5.12-27.2-1.79-19.44.34-34.29-13.55-47.53A67.55 67.55 0 0 0 194.08 56c-20-14.63-53.18-15-75.59 1.78C92.68 77.17 93 110.47 93.07 118.74c.37 38.63 27.2 64.55 38.91 74.08a98.94 98.94 0 0 0 21.15 15.46c8.59 4.57 31.61 16.79 48.2 6.1 4.34-2.79 10.29-9.8 17.31-26.21 9.07-21.17 10.3-32.6 8.8-44.63z"
       opacity="1"
       data-original="#f5b493"
       class=""
       id="path16" /><g
       fill="#2d1929"
       id="g17"><path
         d="M194.27 160.15c4-2.26 6.12-4.57 6.17-6.86.05-2.78-3-4.57-5.91-7.88-3.73-4.19-6.24-9.68-7.47-16.32a.51.51 0 0 1 .41-.58.5.5 0 0 1 .58.4c3.25 17.71 13.51 18.44 13.39 24.4-.06 2.67-2.31 5.27-6.69 7.72a.5.5 0 0 1-.48-.88zM208.64 137.74c-2.83.24-5.42-3.11-5.79-7.49s1.63-8.1 4.46-8.34 5.42 3.12 5.79 7.49-1.63 8.11-4.46 8.34zM164.59 141.43c-2.83.23-5.42-3.12-5.78-7.49s1.63-8.11 4.46-8.35 5.42 3.12 5.78 7.49-1.63 8.11-4.46 8.35zM187.86 184.36c-5.6 0-15.29-1.33-20.92-9.68a.5.5 0 0 1 .13-.7.51.51 0 0 1 .7.14c7.87 11.67 24.1 9 24.27 9a.5.5 0 0 1 .17 1 29 29 0 0 1-4.35.24zM191.37 107.31a1 1 0 0 1-.65-1.75c.11-.1 11.33-9.55 24.06-2.29a1 1 0 0 1-1 1.74c-11.48-6.55-21.34 1.71-21.76 2.06a1 1 0 0 1-.65.24zM147.92 111.24a1 1 0 0 1-.73-1.68c9.91-10.78 23.47-5.18 23.61-5.13a1 1 0 0 1-.78 1.85c-.51-.22-12.42-5.09-21.36 4.64a1 1 0 0 1-.74.32z"
         fill="#2d1929"
         opacity="1"
         data-original="#2d1929"
         class=""
         id="path17" /></g><path
       fill="#0039a6"
       d="M447.47 478.8H271.86a4.16 4.16 0 0 1-4.13-4.71l18.79-143.72a4.17 4.17 0 0 1 4.14-3.63h180.62a4.17 4.17 0 0 1 4.11 4.85l-23.81 143.72a4.16 4.16 0 0 1-4.11 3.49z"
       opacity="1"
       data-original="#287eef"
       class=""
       id="path18" /><path
       fill="#0039a6"
       d="M291.83 478.8H157.27a4.17 4.17 0 0 1-4.17-4.17v-1.7a4.16 4.16 0 0 1 4-4.16L291.65 463a4.17 4.17 0 0 1 4.35 4.16v7.51a4.17 4.17 0 0 1-4.17 4.13z"
       opacity="1"
       data-original="#287eef"
       class=""
       id="path19" /><path
       fill="#efefef"
       d="M378.63 423.84a21.07 21.07 0 1 1 21.07-21.07 21.09 21.09 0 0 1-21.07 21.07zm0-40.14a19.07 19.07 0 1 0 19.07 19.07 19.09 19.09 0 0 0-19.07-19.07z"
       opacity="1"
       data-original="#efefef"
       id="path20" /><path
       fill="#2d1929"
       d="M269.05 463.93s.18 13.11 6.79 14.87h-6.26c-5.26-3.75-5.03-10.58-.53-14.87zM136.33 113.3c-4.28 3.59-11.88 8.34-25.1 9.78q6.31 31.23 12.64 62.47c-2.74-1.51-56.05-32-55.8-81.64.3-59.26 62.08-88 109.48-63.54a40 40 0 0 1 46.24 24.31c7.21 17.92-1.14 34.32-2.47 36.83-6.07-18.4-18.77-32.94-35.58-42.11a40.27 40.27 0 0 0-20.35 7.4c-16.64 12.38-12.69 32.77-29.06 46.5z"
       opacity="1"
       data-original="#2d1929"
       class=""
       id="path21" /><path
       fill="#f5b493"
       d="M112.8 156.88c-8.69 3.51-19.2-2.21-23.46-12.77s-.68-22 8-25.48 19.19 2.21 23.46 12.76.69 21.97-8 25.49z"
       opacity="1"
       data-original="#f5b493"
       class=""
       id="path22" /><path
       fill="#2d1929"
       d="M113.62 146.79c-.06 0-5.73-.85-6.25-6.34-.32-3.45 4.1-4.78 5.8-5.16-1.08-2.28-5.53-10.74-11.75-10.4-5.84.28-5.66 6.87-5.65 7.15a.5.5 0 0 1-.48.52.53.53 0 0 1-.52-.48c0-.08-.23-7.86 6.6-8.19 7.89-.39 12.78 11.09 13 11.58a.5.5 0 0 1-.38.69c-.06 0-5.91 1-5.6 4.2.44 4.69 5.18 5.41 5.38 5.44a.5.5 0 0 1-.15.99z"
       opacity="1"
       data-original="#2d1929"
       class=""
       id="path23" /><g
       clip-path="url(#b)"
       id="g24"><path
         fill="#40c2d6"
         d="M258.26 91.63h204.51v32.75H258.26z"
         opacity="1"
         data-original="#40c2d6"
         id="path24" /></g><path
       fill="#2d1929"
       d="m322.46 181.45 22-16.33a4 4 0 0 0 1.63-3.23v-1a1.1 1.1 0 0 0-1.76-.88l-28.37 21.1a1.37 1.37 0 0 0 0 2.2l28.23 21a1.19 1.19 0 0 0 1.9-1V202a3.15 3.15 0 0 0-1.28-2.53l-22.31-16.59a.89.89 0 0 1-.04-1.43zM404.37 181.45l-22-16.33a4 4 0 0 1-1.63-3.23v-1a1.1 1.1 0 0 1 1.76-.88l28.37 21.1a1.37 1.37 0 0 1 0 2.2l-28.23 21a1.19 1.19 0 0 1-1.9-1V202a3.15 3.15 0 0 1 1.28-2.53l22.31-16.59a.89.89 0 0 0 .04-1.43zM350.92 219.6a2 2 0 0 1-2.08-2c0-.23 0-.47 23.84-63.71 1.16-2.93 5.31-3.19 5.31-.37 0 .34 0 .41-23.78 63.72a3.78 3.78 0 0 1-3.29 2.36z"
       opacity="1"
       data-original="#2d1929"
       class=""
       id="path25" /><rect
       width="40.15"
       height="7.75"
       x="282.45"
       y="110.22"
       fill="#efefef"
       rx="3.67"
       opacity="1"
       data-original="#efefef"
       id="rect25" /></g><g
     id="g16"
     transform="matrix(0.46557355,0,0,0.46557355,31.834299,65.348413)"><path
       fill="#ffffff"
       d="m 505.843,330.051 h -0.194 L 503.485,93.122 A 34.538,34.538 0 0 0 469.047,58.987 L 40.305,60.606 A 34.481,34.481 0 0 0 6,95.1 C 6,95.867 5.978,78.412 6.362,366.276 a 34.513,34.513 0 0 0 34.3,34.391 l 175.264,0.719 v 16.084 h -46.889 v 35.543 H 343.3 V 417.47 h -46.882 v -15.755 l 57.125,0.234 v 25.578 c 0,14.053 10.745,25.485 23.951,25.485 h 81.349 c 13.206,0 23.951,-11.432 23.951,-25.485 V 400.569 A 34.471,34.471 0 0 0 506,367.737 Z"
       opacity="1"
       data-original="#ffffff"
       class=""
       id="path1-1" /><path
       fill="#b2aca3"
       d="m 228.217,373.477 h 55.908 v 61.764 h -55.908 z"
       opacity="1"
       data-original="#b2aca3"
       class=""
       id="path2-0" /><path
       fill="#eae5db"
       d="m 181.33,429.764 h 149.68 v 10.955 H 181.33 Z M 493.706,367.787 493.599,356.814 491.191,93.228 A 22.139,22.139 0 0 0 468.967,71.281 L 40.348,72.9 A 22.139,22.139 0 0 0 18.294,95.082 c 0,0.768 -0.023,-16.693 0.362,271.171 a 22.138,22.138 0 0 0 22.054,22.118 l 430.771,1.769 a 22.16,22.16 0 0 0 22.225,-22.353 z"
       opacity="1"
       data-original="#eae5db"
       class=""
       id="path3-1" /><path
       fill="#00abfe"
       d="m 50.716,124.485 188.1,1.782 -4.182,177.91 -186.362,-1.241 z"
       opacity="1"
       data-original="#00abfe"
       class=""
       id="path4-6" /><path
       fill="#7ad001"
       d="m 49.551,209.577 30.786,-29.17 a 27.748,27.748 0 0 1 40.781,2.841 l 36.369,45.606 15.255,-13.9 a 27.216,27.216 0 0 1 35.321,-1.147 l 28.166,22.507 -1.6,67.867 -186.357,-1.245 z"
       opacity="1"
       data-original="#7ad001"
       class=""
       id="path5-8" /><circle
       cx="164.175"
       cy="167.392"
       r="16.327999"
       fill="#ffb020"
       opacity="1"
       data-original="#ffb020"
       class=""
       id="circle5" /><path
       fill="#f83600"
       d="m 261.053,124.653 -0.222,51.54 191.009,2.512 -0.403,-53.89 z"
       opacity="1"
       data-original="#ff605b"
       class=""
       id="path6-5" /><path
       fill="#ffb020"
       d="m 258.195,199.301 -0.938,38.844 96.311,0.231 -1.901,-37.118 z"
       opacity="1"
       data-original="#ffb020"
       class=""
       id="path7-6" /><path
       fill="#b2aca3"
       d="m 254.009,273.37 a 2.5,2.5 0 0 1 0,-5 c 61.128,0 125.187,2.13 184.271,1.772 h 0.015 a 2.5000112,2.5000112 0 0 1 0.015,5 C 378.991,275.5 315.273,273.37 254.009,273.37 Z M 438.3,305.505 h -0.045 c -19.008,-0.337 -38.4,-0.452 -57.152,-0.562 -41.807,-0.247 -85.036,-0.5 -127.655,-3.225 a 2.500125,2.500125 0 0 1 0.32,-4.99 c 42.473,2.714 85.63,2.969 127.364,3.215 18.768,0.111 38.174,0.225 57.211,0.563 a 2.5000924,2.5000924 0 0 1 -0.043,5 z"
       opacity="1"
       data-original="#b2aca3"
       class=""
       id="path8-9" /><path
       fill="#0039a6"
       d="m 493.706,367.787 -0.107,-25.442 H 18.634 l 0.022,23.908 a 22.138,22.138 0 0 0 22.054,22.118 l 430.771,1.769 a 22.16,22.16 0 0 0 22.225,-22.353 z"
       opacity="1"
       data-original="#a369f7"
       class=""
       id="path9-7" /><circle
       cx="257.25699"
       cy="365.68799"
       r="11.366"
       fill="#eae5db"
       opacity="1"
       data-original="#eae5db"
       class=""
       id="circle9" /><path
       fill="#00abfe"
       d="m 470.5,257.948 v 169.579 c 0,7.278 -5.214,13.191 -11.657,13.191 h -81.35 c -6.431,0 -11.657,-5.913 -11.657,-13.191 V 257.948 c 0,-7.278 5.226,-13.191 11.657,-13.191 h 81.35 c 6.444,0 11.657,5.913 11.657,13.191 z"
       opacity="1"
       data-original="#00abfe"
       class=""
       id="path10-2" /><path
       fill="#eae5db"
       d="m 466.591,264.29 v 155.964 c 0,7.072 -5.226,12.8 -11.658,12.8 h -73.528 c -6.431,0 -11.657,-5.724 -11.657,-12.8 V 264.29 c 0,-7.072 5.226,-12.8 11.657,-12.8 h 14.221 v 2.493 c 0,4.186 3.1,7.585 6.91,7.585 H 433.8 c 3.813,0 6.909,-3.4 6.909,-7.585 v -2.493 h 14.221 c 6.435,0.003 11.661,5.728 11.661,12.8 z"
       opacity="1"
       data-original="#eae5db"
       class=""
       id="path11-2" /><path
       fill="#00abfe"
       d="m 376.054,269.6 85.126,0.807 -1.893,80.514 -84.339,-0.562 z"
       opacity="1"
       data-original="#00abfe"
       class=""
       id="path12-1" /><path
       fill="#7ad001"
       d="m 375.527,308.109 13.932,-13.2 a 12.557,12.557 0 0 1 18.456,1.286 l 16.459,20.638 6.9,-6.292 a 12.318,12.318 0 0 1 15.985,-0.519 l 12.746,10.186 -0.722,30.714 -84.339,-0.562 z"
       opacity="1"
       data-original="#7ad001"
       class=""
       id="path13-3" /><circle
       cx="427.401"
       cy="289.01801"
       r="7.3889999"
       fill="#ffb020"
       opacity="1"
       data-original="#ffb020"
       class=""
       id="circle13" /><path
       fill="#f83600"
       d="m 376.28,356.21 -0.078,18.075 66.986,0.881 -0.141,-18.899 z"
       opacity="1"
       data-original="#ff605b"
       class=""
       id="path14-3" /><path
       fill="#ffb020"
       d="m 375.277,382.388 -0.329,13.623 33.776,0.081 -0.666,-13.017 z"
       opacity="1"
       data-original="#ffb020"
       class=""
       id="path15-0" /><path
       fill="#b2aca3"
       d="m 377.035,409.4 a 2.5,2.5 0 0 1 0,-5 c 21.644,0 44.231,0.752 65.448,0.629 h 0.015 a 2.5000112,2.5000112 0 0 1 0.015,5 C 421.179,410.15 398.981,409.4 377.035,409.4 Z m 65.465,11.41 h -0.045 c -21.782,-0.385 -43.763,0.055 -65.722,-1.348 a 2.500093,2.500093 0 1 1 0.319,-4.99 c 21.8,1.393 43.794,0.954 65.491,1.339 a 2.5000924,2.5000924 0 0 1 -0.043,5 z"
       opacity="1"
       data-original="#b2aca3"
       class=""
       id="path16-3" /></g></svg>
